<svg width="166" height="41" viewBox="0 0 166 41" fill="none" xmlns="http://www.w3.org/2000/svg">
<path d="M1.04004 40H6.68204L9.41204 31.55H24.778L27.56 40H33.202L21.034 2.56003H13.208L1.04004 40ZM11.076 26.454L17.056 7.99403L23.114 26.454H11.076Z" fill="#FAFAFA"/>
<path d="M48.3446 40.702C50.6846 40.702 52.7993 40.1734 54.6886 39.116C56.5779 38.0587 58.0773 36.6027 59.1866 34.748C60.2959 32.876 60.8506 30.7527 60.8506 28.378C60.8506 26.35 60.4519 24.4954 59.6546 22.814C58.8746 21.1327 57.7479 19.7547 56.2746 18.68C54.8186 17.588 53.0766 16.9034 51.0486 16.626L60.3046 7.73403V2.56003H37.7886V7.73403H53.6486L42.2086 17.848L44.7566 22.138C45.9179 21.514 47.0966 21.202 48.2926 21.202C50.3726 21.202 52.0539 21.878 53.3366 23.23C54.6366 24.582 55.2866 26.298 55.2866 28.378C55.2866 30.4407 54.6453 32.148 53.3626 33.5C52.0799 34.8347 50.4073 35.5194 48.3446 35.554C46.8193 35.5714 45.4326 35.1554 44.1846 34.306C42.9366 33.4567 42.0613 32.2174 41.5586 30.588L36.3066 32.044C36.8439 33.812 37.7019 35.346 38.8806 36.646C40.0766 37.946 41.4893 38.9514 43.1186 39.662C44.7479 40.3554 46.4899 40.702 48.3446 40.702Z" fill="#FAFAFA"/>
<path d="M66.5844 39.974H91.9084V34.8H74.9824L85.8244 25.128C87.1764 23.932 88.3031 22.8227 89.2044 21.8C90.1057 20.7774 90.7817 19.668 91.2324 18.472C91.6831 17.2587 91.9084 15.8027 91.9084 14.104C91.9084 11.7294 91.3624 9.6147 90.2704 7.76003C89.1957 5.90536 87.7224 4.44936 85.8504 3.39203C83.9784 2.31736 81.8638 1.78003 79.5064 1.78003C77.0278 1.78003 74.8177 2.30003 72.8764 3.34003C70.9524 4.36269 69.4444 5.7927 68.3524 7.63003C67.2604 9.45003 66.7144 11.5734 66.7144 14H72.2784C72.2611 12.7347 72.5557 11.5734 73.1624 10.516C73.7864 9.44136 74.6358 8.58336 75.7104 7.94203C76.7851 7.28336 78.0157 6.95403 79.4024 6.95403C81.4131 6.95403 83.0684 7.63003 84.3684 8.98203C85.6684 10.334 86.3184 12.0154 86.3184 14.026C86.3184 15.0834 86.0757 16.1407 85.5904 17.198C85.1224 18.238 84.2297 19.3474 82.9124 20.526L66.6104 35.138L66.5844 39.974Z" fill="#FAFAFA"/>
<path d="M98.1439 40H103.656V12.154L122.09 40H127.602V2.56003H122.09V30.38L103.656 2.56003H98.1439V40Z" fill="#FAFAFA"/>
<path d="M132.919 39.2501L144.729 21.4873L145.004 21.0735L144.73 20.6589L133.278 3.31006H140.157L147.892 15.4432L148.528 16.4418L149.159 15.4395L156.79 3.31006H163.718L152.266 20.6589L151.993 21.0727L152.267 21.4861L164.028 39.2501H157.151L149.157 26.7011L148.526 25.7114L147.893 26.6993L139.846 39.2501H132.919Z" stroke="url(#paint0_linear_1567_649)" stroke-width="1.5"/>
<defs>
<linearGradient id="paint0_linear_1567_649" x1="158.537" y1="20.0321" x2="148.313" y2="17.5736" gradientUnits="userSpaceOnUse">
<stop stop-color="#00E0FE"/>
<stop offset="1" stop-color="#02CCFF"/>
</linearGradient>
</defs>
</svg>
