<svg id="Layer_1" data-name="Layer 1" xmlns="http://www.w3.org/2000/svg" viewBox="0 0 722.56 136.76"><defs><style>.cls-1{fill:#9a9a9a;}.cls-2{fill:#fff;}</style></defs><g id="Layer_1-2" data-name="Layer 1"><path class="cls-1" d="M10.25,49.2l33-46.63A9.44,9.44,0,0,1,48.66.05a9.77,9.77,0,0,1,7.27,2.4L86.81,27.66a8.31,8.31,0,0,1,.52,8.57L48,80a4,4,0,1,1-3.48,7.11,25.32,25.32,0,0,1-10.31,4,27.22,27.22,0,0,1-16.12-3A30.85,30.85,0,0,1,3.55,73.29a20.4,20.4,0,0,1-2.23-7.36,18.85,18.85,0,0,1,3-11.38,4.07,4.07,0,0,1,0-6A4.08,4.08,0,0,1,10.25,49.2Z"/><path class="cls-2" d="M50.21,6.7,79.79,30a3.29,3.29,0,0,1,0,3.77L41.71,75.47,15.43,53.41,46.78,8.09A3.47,3.47,0,0,1,49.3,6.57,2.54,2.54,0,0,1,50.21,6.7Z"/><circle class="cls-1" cx="6.49" cy="92.76" r="3.24"/><circle class="cls-1" cx="24.31" cy="104.64" r="3.24"/><circle class="cls-1" cx="15.18" cy="114.63" r="3.24"/><circle class="cls-1" cx="3.24" cy="126.83" r="3.24"/><circle class="cls-1" cx="24.85" cy="133.51" r="3.24"/><path class="cls-2" d="M9.2,69.4c.55-.54,2,0,3.24,1.26s1.81,2.7,1.26,3.25-2,0-3.24-1.26S8.65,70,9.2,69.4Z"/><path class="cls-2" d="M14.33,78.54c.55-.55,2,0,3.24,1.26s1.81,2.7,1.26,3.24-2,0-3.24-1.26S13.78,79.09,14.33,78.54Z"/><path class="cls-2" d="M24,81.05c.55-.55,2,0,3.24,1.26s1.81,2.7,1.27,3.25-2,0-3.25-1.27S23.47,81.6,24,81.05Z"/></g><path class="cls-2" d="M111.85,91.9a34.87,34.87,0,0,1-10-4.24l5.1-9.75a32.42,32.42,0,0,0,17.33,5,15,15,0,0,0,6.52-1.12,3.55,3.55,0,0,0,2.25-3.3,4,4,0,0,0-2.47-3.64A43.37,43.37,0,0,0,123,72a75.69,75.69,0,0,1-9.08-3.23,16.48,16.48,0,0,1-6.07-4.68A12.34,12.34,0,0,1,105.25,56a14.57,14.57,0,0,1,2.81-8.85,17.76,17.76,0,0,1,8-5.88,32.35,32.35,0,0,1,12.07-2.07,38.2,38.2,0,0,1,11,1.58,23.58,23.58,0,0,1,8.4,4.2l-5,9.75a26.69,26.69,0,0,0-7.16-3.64,24.41,24.41,0,0,0-7.69-1.31,13.28,13.28,0,0,0-6.41,1.31A4,4,0,0,0,119,54.74a4,4,0,0,0,2.44,3.67,46.4,46.4,0,0,0,7.76,2.85,80.58,80.58,0,0,1,9,3.19,16.71,16.71,0,0,1,6,4.54,11.73,11.73,0,0,1,2.55,7.87q0,8-6,12.27t-17,4.31A45.65,45.65,0,0,1,111.85,91.9Z"/><path class="cls-2" d="M183.73,58.53q3.95,3.55,3.94,11,0,.9-.15,2.7L186,92.76H173.42l.38-4.65A9.7,9.7,0,0,1,170,92a11.51,11.51,0,0,1-5.7,1.38,14.49,14.49,0,0,1-6.6-1.46A11.8,11.8,0,0,1,153.06,88a9.59,9.59,0,0,1-1.69-5.55,10.56,10.56,0,0,1,2.1-6.86,12.38,12.38,0,0,1,6.68-3.79,49.55,49.55,0,0,1,12.15-1.2H175l.07-.52A4.86,4.86,0,0,0,173.83,66c-.92-.85-2.48-1.28-4.68-1.28a19.58,19.58,0,0,0-5.85,1,30.49,30.49,0,0,0-6,2.58l-2.7-8.77a26.82,26.82,0,0,1,7.87-3.3A36.49,36.49,0,0,1,171.85,55Q179.8,55,183.73,58.53Zm-11.25,24a8,8,0,0,0,2-4.95l.08-.83h-2a15.18,15.18,0,0,0-6.37,1,3.33,3.33,0,0,0-2,3.22,3.27,3.27,0,0,0,1.08,2.55,4.18,4.18,0,0,0,2.89,1A5.58,5.58,0,0,0,172.48,82.49Z"/><path class="cls-2" d="M193.07,92.76l4.2-52.87h13.35l-4.2,52.87Z"/><path class="cls-2" d="M231.55,77.84l-.08,1c0,3.25,1.77,4.87,5.33,4.87.84,0,2-.07,3.45-.22L238.82,93a28.24,28.24,0,0,1-4.5.37q-16.2,0-16.2-13.42c0-1,0-1.68.07-2.18l1-12.07h-6.9l.75-9.83h6.9l.83-10.72h13.34l-.82,10.72h8.85l-.75,9.83h-8.85Z"/><path class="cls-2" d="M272.49,55.94h13.28l-26.48,50.32h-13.5l8.63-16.12-12.23-34.2h13.5l6.75,20.7Z"/><path class="cls-2" d="M315.09,91.9a34.8,34.8,0,0,1-10-4.24l5.1-9.75a32.39,32.39,0,0,0,17.32,5,15,15,0,0,0,6.53-1.12,3.55,3.55,0,0,0,2.25-3.3,4,4,0,0,0-2.48-3.64A43.37,43.37,0,0,0,326.19,72a75.46,75.46,0,0,1-9.07-3.23A16.51,16.51,0,0,1,311,64.08,12.34,12.34,0,0,1,308.49,56a14.57,14.57,0,0,1,2.81-8.85,17.76,17.76,0,0,1,8-5.88,32.41,32.41,0,0,1,12.08-2.07,38.13,38.13,0,0,1,11,1.58,23.58,23.58,0,0,1,8.4,4.2l-5,9.75a26.69,26.69,0,0,0-7.16-3.64A24.41,24.41,0,0,0,331,49.79a13.28,13.28,0,0,0-6.41,1.31,4,4,0,0,0,.07,7.31,46.94,46.94,0,0,0,7.77,2.85,81.32,81.32,0,0,1,9,3.19,16.79,16.79,0,0,1,6,4.54A11.73,11.73,0,0,1,350,76.86q0,8-6,12.27t-17,4.31A45.65,45.65,0,0,1,315.09,91.9Z"/><path class="cls-2" d="M355.29,92.76l2.93-36.9h13.35l-2.93,36.9Zm4-55.35h14l-1,12.08H358.44Z"/><path class="cls-2" d="M434.49,58.49q3.08,3.52,3.08,10.27c0,1,0,1.78-.08,2.33l-1.72,21.67H422.42l1.72-21.37a7.39,7.39,0,0,0-.82-4.61,3.59,3.59,0,0,0-3.23-1.62A5.07,5.07,0,0,0,415.85,67q-1.46,1.88-1.76,6l-1.57,19.72H399.17l1.72-21.22q.45-6.37-4.05-6.38a5.08,5.08,0,0,0-4.2,1.88q-1.5,1.88-1.8,6l-1.5,19.72H376l2.93-36.82h13l-.3,3.52a13,13,0,0,1,4.8-3.41A16.66,16.66,0,0,1,402.62,55a12.55,12.55,0,0,1,6.26,1.5A10.12,10.12,0,0,1,413,60.74a15.79,15.79,0,0,1,5.62-4.31,16.64,16.64,0,0,1,7-1.47Q431.42,55,434.49,58.49Z"/><path class="cls-2" d="M482.94,55.86,480,92.76H467l.37-4.2a13.34,13.34,0,0,1-5,3.53,16.48,16.48,0,0,1-6.52,1.27q-6,0-9.15-3.41T443.64,80c0-.55.05-1.42.15-2.62l1.65-21.53h13.35l-1.65,20.78-.08,1.12a6,6,0,0,0,1.2,4,4.43,4.43,0,0,0,3.53,1.38,5.31,5.31,0,0,0,4.35-1.91,8.84,8.84,0,0,0,1.8-5.14l1.65-20.25Z"/><path class="cls-2" d="M487.51,92.76l4.2-52.87h13.35l-4.2,52.87Z"/><path class="cls-2" d="M539.9,58.53q3.95,3.55,3.94,11,0,.9-.15,2.7l-1.58,20.55H529.59l.37-4.65A9.68,9.68,0,0,1,526.14,92a11.51,11.51,0,0,1-5.7,1.38,14.49,14.49,0,0,1-6.6-1.46A11.8,11.8,0,0,1,509.23,88a9.59,9.59,0,0,1-1.69-5.55,10.56,10.56,0,0,1,2.1-6.86,12.34,12.34,0,0,1,6.67-3.79,49.55,49.55,0,0,1,12.15-1.2h2.7l.08-.52A4.86,4.86,0,0,0,530,66c-.92-.85-2.49-1.28-4.69-1.28a19.58,19.58,0,0,0-5.85,1,30.49,30.49,0,0,0-6,2.58l-2.7-8.77a26.89,26.89,0,0,1,7.88-3.3A36.41,36.41,0,0,1,528,55Q536,55,539.9,58.53Zm-11.25,24a8,8,0,0,0,2-4.95l.07-.83h-2a15.24,15.24,0,0,0-6.38,1,3.33,3.33,0,0,0-1.95,3.22,3.28,3.28,0,0,0,1.09,2.55,4.16,4.16,0,0,0,2.89,1A5.58,5.58,0,0,0,528.65,82.49Z"/><path class="cls-2" d="M567,77.84l-.07,1q0,4.88,5.32,4.87c.85,0,2-.07,3.45-.22L574.29,93a28.24,28.24,0,0,1-4.5.37q-16.2,0-16.2-13.42c0-1,0-1.68.07-2.18l1-12.07h-6.9l.75-9.83h6.9l.82-10.72h13.35l-.82,10.72h8.85l-.75,9.83H568Z"/><path class="cls-2" d="M579.24,92.76l2.92-36.9h13.35l-2.92,36.9Zm4-55.35h14l-1,12.08H582.39Z"/><path class="cls-2" d="M609.16,91.11a16.37,16.37,0,0,1-7-6.41,18.49,18.49,0,0,1-2.47-9.64,21.63,21.63,0,0,1,2.55-10.76,17.11,17.11,0,0,1,7.16-6.94A23,23,0,0,1,620.11,55a24.06,24.06,0,0,1,10.73,2.25,16.49,16.49,0,0,1,7,6.38,18.3,18.3,0,0,1,2.47,9.6A21.81,21.81,0,0,1,637.81,84,17.14,17.14,0,0,1,630.65,91a23,23,0,0,1-10.76,2.4A24.06,24.06,0,0,1,609.16,91.11ZM625.4,80.54a15,15,0,0,0,1.76-7.65q0-4.12-1.69-6.11a6.33,6.33,0,0,0-5.13-2,6.17,6.17,0,0,0-5.74,3,14.54,14.54,0,0,0-1.76,7.54q0,4.2,1.68,6.22a6.32,6.32,0,0,0,5.14,2A6.15,6.15,0,0,0,625.4,80.54Z"/><path class="cls-2" d="M681.09,58.45q3.15,3.49,3.15,10.24c0,1.1,0,2-.08,2.55l-1.72,21.52H669.09l1.72-21.07a7.23,7.23,0,0,0-1-4.84,4.49,4.49,0,0,0-3.86-1.69,5.6,5.6,0,0,0-4.54,1.92,8.62,8.62,0,0,0-1.84,5.13l-1.65,20.55H644.56l2.93-36.9h13l-.3,3.9a13.32,13.32,0,0,1,5-3.52A16.93,16.93,0,0,1,671.79,55C675.88,55,679,56.13,681.09,58.45Z"/><path class="cls-2" d="M695.79,92.28a37.81,37.81,0,0,1-8.48-3.34l4.13-9.08A28.34,28.34,0,0,0,698.26,83a24.45,24.45,0,0,0,7.2,1.16,7.34,7.34,0,0,0,3.41-.6A1.74,1.74,0,0,0,710,82a2.1,2.1,0,0,0-1.5-1.88,40.29,40.29,0,0,0-4.87-1.65,52.17,52.17,0,0,1-6.68-2.17A12.9,12.9,0,0,1,692.22,73a8.37,8.37,0,0,1-2-5.81,10.29,10.29,0,0,1,2.1-6.38,13.51,13.51,0,0,1,5.92-4.31A23.51,23.51,0,0,1,707,55a31,31,0,0,1,8.43,1.17,22.21,22.21,0,0,1,7.09,3.26l-4,8.7a24.06,24.06,0,0,0-5.81-2.89,18.93,18.93,0,0,0-6-1,8.88,8.88,0,0,0-3.6.56,1.73,1.73,0,0,0-1.2,1.54q0,1.2,1.53,1.95a29.78,29.78,0,0,0,4.92,1.65,56.65,56.65,0,0,1,6.71,2.25,13,13,0,0,1,4.65,3.34,8.38,8.38,0,0,1,2,5.81,10.31,10.31,0,0,1-4.47,8.89q-4.46,3.18-12.11,3.18A38.2,38.2,0,0,1,695.79,92.28Z"/></svg>