<svg width="4119" height="892" viewBox="0 0 4119 892" fill="none" xmlns="http://www.w3.org/2000/svg">
<g filter="url(#filter0_d)">
<path d="M2978.57 287.507C2977.14 292.126 2975.64 296.744 2974.32 301.177C2949.57 386.058 2924.83 470.946 2900.1 555.842C2886.58 602.208 2873.01 648.559 2859.39 694.894C2856.16 705.862 2858.37 704.569 2846.51 704.615C2836.97 704.615 2827.44 704.615 2817.88 704.615C2816.52 704.637 2815.16 704.545 2813.81 704.338C2813.49 704.26 2813.18 704.112 2812.92 703.905C2812.66 703.698 2812.44 703.436 2812.29 703.137C2811.47 701.275 2810.74 699.371 2810.12 697.434L2702.18 359.227L2670.32 259.083C2669.51 256.497 2668.75 253.865 2668.01 251.255C2667.98 250.755 2668.12 250.259 2668.4 249.842C2668.68 249.425 2669.09 249.111 2669.56 248.946C2669.88 248.946 2670.2 248.738 2670.53 248.738C2681.1 248.738 2691.66 248.738 2702.21 248.738C2703.06 248.694 2703.91 248.951 2704.6 249.466C2705.28 249.98 2705.77 250.72 2705.97 251.555L2715 280.811L2768.58 455.376L2830.78 658.272C2831.66 661.181 2832.77 664.022 2833.81 666.885C2833.81 667.116 2834.32 667.254 2834.59 667.393C2835.38 667.762 2836 667.624 2836.23 666.931C2837.13 664.368 2838.08 661.828 2838.84 659.219L2896.03 462.303L2955.48 257.536C2956.13 255.227 2957.05 253.056 2957.79 250.817C2958.8 250.485 2959.84 250.253 2960.89 250.124C2972.8 250.124 2984.71 250.124 2996.65 250.124C2997.33 250.12 2998.01 250.174 2998.68 250.285C2999.36 250.323 3000.02 250.562 3000.56 250.974C3001.1 251.385 3001.51 251.95 3001.73 252.595C3003.16 257.213 3004.57 261.692 3005.91 266.241L3060.86 453.274L3120.73 656.864C3121.67 660.119 3122.69 663.352 3123.77 666.954C3124.81 666.238 3126.08 665.869 3126.22 665.176C3128.45 658.388 3130.59 651.576 3132.62 644.741C3164.62 537.878 3196.59 431.023 3228.55 324.175C3235.08 302.332 3241.52 280.488 3248.04 258.644C3248.77 256.036 3249.64 253.469 3250.64 250.955C3250.99 250.147 3252.08 249.639 3252.95 249.039C3253.26 248.897 3253.61 248.841 3253.95 248.877C3263.83 248.877 3273.7 248.877 3283.57 248.877C3283.9 248.899 3284.22 248.993 3284.51 249.151C3284.81 249.309 3285.06 249.528 3285.26 249.793C3285.46 250.058 3285.6 250.363 3285.67 250.687C3285.74 251.011 3285.74 251.347 3285.67 251.671C3285.02 253.98 3284.38 256.289 3283.66 258.598L3265.49 316.001L3166.21 629.109C3159.11 651.491 3152.06 673.874 3145.04 696.256C3144.42 698.196 3143.79 700.135 3143.08 702.052C3142.79 702.861 3142.24 703.556 3141.53 704.034C3140.81 704.512 3139.96 704.748 3139.11 704.707C3127.88 704.707 3116.65 704.707 3105.4 704.707C3103.09 704.707 3101.86 703.529 3101.1 701.082C3100.34 698.634 3099.72 696.464 3099.05 694.155L3049.48 523.724C3027.03 446.663 3004.56 369.617 2982.06 292.587C2981.7 291.288 2981.2 290.034 2980.56 288.847C2980.19 288.269 2979.4 288.039 2978.57 287.507Z" fill="white"/>
<path d="M4105.37 563.555C4105.37 564.645 4105.28 565.733 4105.12 566.811C4097.96 596.346 4084.37 623.939 4065.34 647.628C4039.52 679.285 4006.51 699.697 3967.07 709.972C3942.99 716.3 3917.96 718.255 3893.19 715.745C3840.85 710.526 3797.72 687.828 3764.91 646.473C3748.59 625.459 3736.28 601.616 3728.59 576.139C3723.4 559.573 3719.71 542.57 3717.58 525.34C3715.15 507.118 3714.05 488.743 3714.28 470.362C3714.97 434.687 3720.88 399.958 3734.41 366.777C3745.81 337.852 3763.33 311.738 3785.78 290.232C3813.54 263.684 3848.65 246.125 3886.54 239.849C3906.7 236.273 3927.28 235.782 3947.59 238.394C3996.07 244.813 4035.71 267.026 4065.48 306.257C4080.71 326.724 4092.31 349.655 4099.78 374.051C4105.11 390.928 4108.8 408.28 4110.8 425.866C4112.85 443.451 4113.47 461.174 4112.64 478.859C4112.64 480.221 4112.46 481.56 4112.32 482.923C4112.14 484.816 4111.05 485.763 4108.88 485.809C4105.81 485.809 4102.74 485.809 4099.65 485.809H3763.6C3760.18 485.809 3756.67 485.809 3753.39 485.948C3752.79 485.921 3752.19 486.031 3751.65 486.27C3751.1 486.51 3750.61 486.872 3750.22 487.329C3749.83 487.786 3749.56 488.326 3749.41 488.907C3749.26 489.488 3749.25 490.095 3749.37 490.681C3749.72 497.147 3750 503.612 3750.64 510.031C3752.87 535.138 3758.48 559.83 3767.31 583.436C3774.04 601.307 3783.56 617.995 3795.53 632.873C3817.34 660.419 3848.33 679.197 3882.85 685.773C3914.43 692.194 3947.19 689.241 3977.12 677.276C4009.3 664.576 4033.84 642.778 4051.65 613.269C4058.96 600.981 4064.84 587.896 4069.17 574.269C4070.02 571.683 4070.72 569.05 4071.48 566.464C4072.24 563.878 4073.33 562.955 4075.75 562.931C4079.49 562.931 4083.25 562.931 4086.99 562.931C4091.75 562.931 4096.53 562.931 4101.29 562.931C4102.66 563.032 4104.03 563.24 4105.37 563.555ZM3914.04 457.338H4066.19C4069.26 457.338 4072.33 457.338 4075.43 457.338C4077.99 457.338 4079.28 455.976 4079.19 453.667C4079.19 452.651 4079.19 451.635 4079 450.619C4077.9 440.482 4077.43 430.299 4075.93 420.163C4073.44 402.311 4069.07 384.773 4062.89 367.84C4057.15 352.194 4049.26 337.427 4039.43 323.968C4025.41 304.551 4006.64 289.056 3984.92 278.964C3956 265.465 3923.58 261.371 3892.22 267.257C3859.43 272.965 3829.26 288.818 3805.96 312.584C3786.72 331.982 3772.11 355.471 3763.2 381.301C3756.06 401.529 3751.64 422.62 3750.07 444.015C3748.93 458.909 3747.53 457.454 3762.97 457.477C3813.29 457.4 3863.64 457.346 3914.04 457.315V457.338Z" fill="white"/>
<path d="M3545.39 703.437C3543.56 704.525 3541.4 704.933 3539.29 704.592C3530.82 704.338 3522.32 705.285 3513.9 703.968C3513.55 702.925 3513.3 701.85 3513.16 700.759C3513.16 697.711 3513.16 694.64 3513.16 691.523V261.692C3513.16 258.298 3513.16 254.904 3513.39 251.51C3513.45 250.832 3513.75 250.198 3514.23 249.717C3514.71 249.236 3515.34 248.939 3516.02 248.877C3524.89 248.877 3533.73 248.877 3542.57 248.877C3543 248.852 3543.42 248.913 3543.82 249.054C3544.22 249.196 3544.59 249.416 3544.91 249.703C3545.22 249.989 3545.47 250.335 3545.65 250.721C3545.83 251.106 3545.93 251.524 3545.94 251.948C3545.94 255.019 3546.08 258.067 3546.08 261.184C3546.08 284.675 3546.08 308.158 3546.08 331.634C3546.17 333.238 3546.41 334.831 3546.8 336.39C3546.8 336.39 3547.65 336.552 3547.74 336.39C3548.59 334.954 3549.36 333.474 3550.05 331.957C3555.76 318.865 3561.6 305.772 3567.07 292.703C3569.09 288.018 3571.79 283.653 3575.08 279.749C3587.92 263.711 3604.8 251.388 3623.98 244.051C3639.93 237.887 3657.15 235.715 3674.13 237.725C3677.15 238.094 3680.18 238.556 3683.18 239.064C3683.83 239.257 3684.41 239.635 3684.86 240.151C3685.3 240.667 3685.58 241.3 3685.67 241.973C3685.67 249.131 3685.67 256.274 3685.67 263.401C3685.67 265.225 3684.31 266.311 3682.26 266.311C3678.52 266.311 3674.78 266.311 3671.04 266.311C3661.16 266.327 3651.31 267.521 3641.71 269.867C3615.57 276.074 3592.81 292.095 3578.15 314.616C3569.69 327.402 3563.1 341.337 3558.6 355.994C3554.76 368.332 3551.91 380.956 3550.08 393.747C3547.21 413.629 3545.85 433.697 3545.99 453.783C3546.08 533.414 3546.08 613.061 3545.99 692.723C3545.99 696.187 3546.57 699.951 3545.39 703.437Z" fill="white"/>
<path d="M3354.36 477.058V261.669C3354.36 258.252 3354.5 254.858 3354.63 251.463C3354.73 250.796 3355.05 250.181 3355.54 249.717C3356.03 249.252 3356.66 248.965 3357.34 248.9C3366.57 248.9 3375.69 248.9 3384.86 248.9C3386.03 248.9 3387.17 250.332 3387.35 251.694C3387.53 253.056 3387.56 253.726 3387.58 254.742C3387.58 257.467 3387.58 260.191 3387.58 262.893V690.691C3387.58 694.432 3387.58 698.173 3387.35 701.913C3387.26 702.581 3386.94 703.196 3386.45 703.655C3385.96 704.114 3385.32 704.388 3384.65 704.43C3375.41 704.43 3366.23 704.43 3357.1 704.43C3356.44 704.326 3355.82 704.009 3355.35 703.526C3354.88 703.043 3354.58 702.42 3354.5 701.752C3354.5 698.334 3354.36 694.824 3354.36 691.546V477.058Z" fill="white"/>
<path d="M3370.15 178.913C3363.59 178.638 3357.39 175.795 3352.91 170.995C3348.43 166.195 3346.01 159.825 3346.18 153.258C3346.35 146.691 3349.09 140.454 3353.82 135.893C3358.54 131.331 3364.87 128.811 3371.44 128.876C3374.76 128.908 3378.04 129.602 3381.09 130.915C3384.14 132.228 3386.9 134.135 3389.21 136.524C3391.51 138.914 3393.32 141.738 3394.52 144.833C3395.73 147.928 3396.3 151.232 3396.22 154.551C3396.13 157.871 3395.38 161.14 3394.02 164.169C3392.66 167.197 3390.71 169.925 3388.28 172.192C3385.86 174.459 3383.01 176.221 3379.89 177.375C3376.78 178.529 3373.47 179.052 3370.15 178.913Z" fill="white"/>
<path d="M1781.68 387.166V82.8098C1781.68 79.4155 1781.68 76.0212 1781.91 72.6269C1781.97 71.5917 1782.43 70.6215 1783.2 69.9259C1783.97 69.2303 1784.98 68.8652 1786.02 68.9093C1794.54 68.9093 1803.03 68.9093 1811.55 68.9093C1812.06 68.9111 1812.57 69.018 1813.03 69.2233C1813.5 69.4286 1813.92 69.728 1814.27 70.1027C1814.61 70.4775 1814.88 70.9196 1815.05 71.4016C1815.22 71.8835 1815.28 72.395 1815.25 72.904C1815.25 76.2983 1815.25 79.7157 1815.25 83.11V328.193C1815.25 331.61 1815.25 335.12 1815.38 338.422C1815.51 339.011 1815.75 339.569 1816.1 340.061C1816.47 340.731 1817.49 340.061 1818.41 338.491C1823.03 329.74 1827.51 320.966 1832.1 312.237C1834.64 307.411 1837.36 302.701 1839.79 297.829C1841.7 294.216 1844.13 290.908 1847.01 288.015C1858.75 275.63 1872.36 265.166 1887.35 257.005C1903.25 248.393 1920.54 242.618 1938.42 239.941C1953.53 237.394 1968.84 236.28 1984.16 236.616C2013.04 237.678 2040.86 243.312 2066.86 256.497C2088.83 267.542 2108.3 282.967 2124.07 301.824C2144.32 326.297 2159.16 354.775 2167.62 385.388C2171.86 400.102 2174.95 415.126 2176.85 430.322C2178.5 441.794 2179.34 453.368 2179.37 464.958C2179.37 471.77 2179.51 478.582 2179.23 485.37C2178.72 497.608 2177.55 509.777 2175.93 521.946C2174.47 533.067 2172.32 544.087 2169.49 554.942C2163.56 578.758 2154.04 601.532 2141.25 622.482C2119.23 658.535 2086.07 686.428 2046.77 701.936C2032.21 707.672 2017.04 711.769 2001.57 714.151C1986.33 716.668 1971.04 716.46 1955.74 716.229C1938.01 715.882 1920.46 712.701 1903.74 706.808C1880.45 698.777 1859.51 685.091 1842.81 666.977C1840.57 664.41 1838.76 661.502 1837.43 658.364C1832.03 647.004 1826.64 635.651 1821.27 624.306C1820.23 622.158 1818.96 620.08 1817.83 618.048C1817.6 617.679 1816.72 617.679 1816.12 617.633C1816.12 617.633 1815.75 618.141 1815.73 618.418C1815.73 621.466 1815.48 624.514 1815.45 627.654V696.071C1815.45 703.83 1815.31 705.053 1807.07 705.007C1800.93 705.007 1794.81 705.007 1788.6 705.007C1782.39 705.007 1781.81 704.014 1781.68 697.664C1781.68 694.593 1781.68 691.522 1781.68 688.428V387.166ZM1815.41 479.898C1815.41 490.104 1815.41 500.31 1815.41 510.539C1815.44 526.186 1816.9 541.797 1819.75 557.182C1823.19 578.039 1830.17 598.155 1840.39 616.663C1854.76 642.858 1877.32 663.616 1904.62 675.752C1925.25 684.823 1947.58 689.381 1970.12 689.121C1975.9 688.989 1981.67 688.511 1987.39 687.689C1993.82 687.045 2000.22 686.074 2006.55 684.78C2024.18 680.72 2040.99 673.692 2056.26 663.998C2064.34 658.924 2071.9 653.078 2078.84 646.542C2100.75 626.176 2115.79 601.4 2126.43 573.715C2137.19 545.452 2141.74 515.988 2142.59 485.97C2142.96 473.387 2142.54 460.793 2141.32 448.264C2139.97 433.71 2137.66 419.262 2134.39 405.015C2129.97 385.763 2123.03 367.176 2113.75 349.736C2102.5 327.858 2086.52 308.756 2066.98 293.811C2052.85 283.063 2036.78 275.159 2019.65 270.536C2005.19 266.613 1990.27 264.618 1975.29 264.602C1967.47 264.713 1959.65 265.229 1951.88 266.149C1938.68 267.523 1925.69 270.532 1913.23 275.108C1888.76 284.016 1867.48 299.963 1852.05 320.942C1843.73 332.167 1836.95 344.461 1831.92 357.495C1825.91 373.047 1821.65 389.217 1819.22 405.708C1816.82 420.483 1815.54 435.42 1815.41 450.388V479.898Z" fill="white"/>
<path d="M2569.1 249.362C2570.75 249.027 2572.41 248.804 2574.09 248.692C2581.57 248.692 2589.07 248.692 2596.58 248.692C2606 248.692 2606.94 248.046 2603.11 257.813C2593.04 283.467 2583.32 309.259 2573.44 334.982L2539.04 424.55C2530.13 447.733 2521.19 470.908 2512.24 494.076L2477.79 583.621L2451.35 652.199L2426.81 716.022C2420.65 732.231 2414 748.264 2406.86 764.119C2401.71 775.665 2396.36 787.002 2390.44 798.132C2383.1 812.372 2374.61 825.987 2365.05 838.84C2357.64 849.052 2348.91 858.231 2339.07 866.133C2323.51 878.569 2304.29 885.532 2284.38 885.945C2275.51 886.084 2266.67 885.945 2257.8 885.714C2255.41 885.691 2253.03 885.506 2250.67 885.16C2243.95 884.098 2243.28 883.267 2243.33 876.663C2243.33 870.867 2243.33 865.117 2243.33 859.299C2243.33 856.805 2244.97 855.35 2247.23 855.835C2256.99 857.913 2266.9 857.474 2276.76 857.544C2292.92 857.699 2308.62 852.184 2321.13 841.958C2327.55 836.889 2333.36 831.11 2338.47 824.732C2350.41 809.411 2360.52 792.75 2368.6 775.087C2376.5 758.485 2383.1 741.306 2389.87 724.288C2390.72 722.426 2391.4 720.495 2391.92 718.516C2392.27 716.863 2392.27 715.157 2391.92 713.505C2391.41 711.534 2390.73 709.61 2389.89 707.755C2373.42 664.868 2356.94 621.989 2340.46 579.118C2326.85 543.882 2313.22 508.661 2299.57 473.456C2288.06 443.592 2276.58 413.736 2265.14 383.887L2239.19 316.117L2216.77 258.021C2215.92 255.712 2215.32 253.403 2214.63 251.232C2214.65 250.736 2214.81 250.256 2215.09 249.848C2215.37 249.439 2215.76 249.119 2216.22 248.923C2217.24 248.808 2218.23 248.577 2219.25 248.554C2228.48 248.554 2237.72 248.554 2246.84 248.554C2248.03 248.494 2249.22 248.843 2250.19 249.543C2251.16 250.244 2251.87 251.255 2252.19 252.41L2254.32 258.136C2267.08 292.618 2279.84 327.077 2292.62 361.513C2300.77 383.541 2308.78 405.593 2316.98 427.598L2353.6 526.148C2361.17 546.56 2368.72 566.988 2376.25 587.431L2406.68 669.748C2407.29 671.307 2408.07 672.8 2408.98 674.205C2409.25 674.312 2409.54 674.355 2409.82 674.331C2410.11 674.307 2410.38 674.216 2410.62 674.066C2411.4 672.969 2412.04 671.783 2412.54 670.533L2431.36 619.734C2444.5 584.329 2457.65 548.923 2470.79 513.518C2478.94 491.489 2486.95 469.438 2495.13 447.41C2507.44 414.236 2519.75 381.07 2532.07 347.912C2537.86 332.28 2543.61 316.602 2549.32 300.946C2555.02 285.291 2560.86 269.705 2566.79 254.096C2567.58 252.641 2568.32 251.117 2569.1 249.362Z" fill="white"/>
<path d="M1351.43 882.92C1351.29 880.772 1351.01 878.787 1351.01 876.778C1351.01 870.659 1351.01 864.517 1351.19 858.305C1351.21 857.883 1351.33 857.471 1351.52 857.097C1351.72 856.723 1352 856.398 1352.33 856.144C1352.67 855.89 1353.06 855.714 1353.48 855.629C1353.89 855.544 1354.32 855.551 1354.73 855.65C1355.07 855.65 1355.42 855.65 1355.74 855.788C1367.53 857.684 1379.5 858.095 1391.39 857.012C1403.35 856.068 1414.82 851.876 1424.57 844.89C1432.66 839.192 1439.88 832.355 1446.02 824.593C1454.48 813.911 1461.92 802.453 1468.23 790.373C1476.49 774.721 1483.86 758.608 1490.28 742.114C1493.67 733.57 1496.97 725.004 1500.21 716.714C1499.5 712.209 1498.12 707.836 1496.12 703.737C1483.21 670.04 1470.24 636.382 1457.22 602.762L1364.29 361.789L1323.95 256.982C1323.21 255.088 1322.61 253.125 1321.96 251.186C1321.88 250.699 1321.98 250.2 1322.23 249.777C1322.49 249.353 1322.88 249.035 1323.35 248.877C1324.37 248.877 1325.36 248.553 1326.37 248.553C1335.61 248.553 1344.81 248.553 1353.96 248.553C1355.09 248.622 1356.21 248.76 1357.31 248.969C1358.24 250.295 1359.06 251.693 1359.76 253.148C1362.07 259.175 1364.38 265.271 1366.5 271.321L1465.11 537.439C1481.18 580.819 1497.25 624.213 1513.32 667.624C1514.13 669.933 1515.14 671.988 1516.11 674.158C1516.19 674.292 1516.3 674.404 1516.44 674.484C1516.57 674.565 1516.72 674.611 1516.88 674.62C1517.45 674.62 1518.35 674.389 1518.54 673.997C1519.55 671.841 1520.48 669.648 1521.31 667.416L1619.76 401.251C1637.32 353.7 1654.93 306.157 1672.58 258.621C1673.41 256.312 1674.13 254.003 1675.12 251.948C1675.78 250.767 1676.56 249.653 1677.43 248.623C1688.47 248.623 1699.37 248.623 1710.24 248.623C1712.16 248.623 1712.96 250.216 1712.25 252.294C1711.69 253.91 1711.12 255.504 1710.49 257.097L1694.33 299.006L1614.75 505.736C1588.21 574.653 1561.69 643.571 1535.18 712.489C1525.95 736.295 1516.37 759.94 1505.17 782.868C1496.46 801.352 1486.16 819.044 1474.39 835.746C1468.04 844.616 1460.83 852.845 1452.88 860.314C1441.96 870.678 1428.67 878.217 1414.18 882.273C1408.29 883.976 1402.24 885.051 1396.12 885.483C1385.23 886.133 1374.31 886.056 1363.43 885.252C1359.32 885.229 1355.25 884.438 1351.43 882.92Z" fill="white"/>
<path d="M1137.88 56.8328C1138.42 57.7086 1138.81 58.6685 1139.04 59.6729C1139.04 67.1543 1139.04 74.6356 1139.04 82.1169C1139.04 82.4514 1138.97 82.7825 1138.84 83.0909C1138.71 83.3993 1138.52 83.6788 1138.28 83.9131C1138.05 84.1475 1137.76 84.3319 1137.45 84.4556C1137.14 84.5794 1136.81 84.6399 1136.47 84.6338C1134.17 84.3567 1131.86 84.0565 1129.41 83.6871C1118.33 81.7835 1107.04 81.341 1095.84 82.3709C1090.76 82.9185 1085.74 83.9863 1080.88 85.5574C1072.7 88.0448 1065.2 92.3782 1058.96 98.2233C1052.72 104.068 1047.9 111.269 1044.88 119.27C1041.68 127.164 1039.68 135.491 1038.93 143.976C1037.53 158.203 1036.88 172.492 1036.96 186.786C1037.17 205.513 1036.96 224.239 1036.96 242.942C1036.92 245.319 1037.05 247.697 1037.36 250.054C1037.51 250.515 1037.76 250.932 1038.11 251.27C1038.46 251.608 1038.88 251.856 1039.34 251.994C1042.04 252.302 1044.75 252.449 1047.47 252.433C1071.3 252.433 1095.15 252.433 1119.04 252.433C1131.67 252.433 1130.73 251.347 1130.75 263.793C1130.75 268.227 1130.75 272.637 1130.61 277.07C1130.56 277.924 1130.18 278.724 1129.55 279.304C1128.92 279.885 1128.09 280.201 1127.24 280.187C1124.17 280.187 1121.1 280.326 1118 280.326C1094.15 280.326 1070.29 280.326 1046.43 280.326C1036.73 280.326 1036.85 280.049 1036.92 289.839V692.169C1036.92 706.138 1038.63 704.638 1024.43 704.707C1018.63 704.707 1012.88 704.591 1007.06 704.476C1006.39 704.431 1005.75 704.156 1005.26 703.698C1004.76 703.24 1004.44 702.627 1004.34 701.959C1004.34 700.943 1004.16 699.927 1004.16 698.911V293.557C1004.16 289.816 1003.97 286.099 1003.74 282.358C1003.64 282.034 1003.47 281.738 1003.24 281.494C1003.01 281.249 1002.72 281.062 1002.4 280.949C1000.75 280.592 999.06 280.406 997.368 280.395C987.14 280.395 976.935 280.395 966.707 280.395C964.005 280.395 961.281 280.395 958.556 280.395C958.044 280.414 957.534 280.32 957.062 280.12C956.59 279.92 956.167 279.619 955.824 279.238C955.48 278.857 955.225 278.406 955.075 277.916C954.924 277.426 954.883 276.908 954.955 276.401C954.955 269.597 954.955 262.793 954.955 255.989C954.952 255.565 955.032 255.145 955.192 254.753C955.352 254.361 955.588 254.005 955.886 253.704C956.185 253.404 956.54 253.165 956.93 253.002C957.321 252.84 957.74 252.756 958.164 252.756C960.473 252.756 962.943 252.617 965.321 252.617C974.164 252.617 983.03 252.617 991.873 252.617C994.597 252.617 997.322 252.617 1000.05 252.617C1002.77 252.617 1003.95 251.324 1003.99 249.038C1003.99 245.967 1003.99 242.919 1003.99 239.802C1003.99 219.39 1003.99 198.97 1003.99 178.543C1003.89 164.923 1004.56 151.309 1006 137.765C1007.47 123.448 1011.81 109.572 1018.75 96.9641C1032.46 72.4189 1053.38 58.4029 1081.09 54.0619C1092.56 52.4677 1104.19 52.2816 1115.72 53.5077C1120.13 53.9003 1124.56 54.2928 1128.92 54.9394C1131.97 55.2626 1134.9 56.1401 1137.88 56.8328Z" fill="white"/>
<path d="M1206.08 367.793V81.9322C1206.08 78.5378 1206.08 75.1435 1206.34 71.7492C1206.43 71.0767 1206.74 70.4524 1207.22 69.9726C1207.7 69.4928 1208.32 69.184 1208.99 69.0938C1212.04 68.9784 1215.11 68.886 1218.23 68.8629C1223.33 68.8629 1228.46 68.8629 1233.56 68.8629C1237.95 68.8629 1238.85 69.8558 1238.94 74.3123C1238.94 77.3833 1238.94 80.4313 1238.94 83.5485V606.226C1238.94 619.156 1239.24 632.087 1239.33 645.018C1239.38 650.129 1240.01 655.217 1241.2 660.188C1241.83 663.182 1242.8 666.095 1244.09 668.87C1245.27 671.338 1246.94 673.536 1249.01 675.328C1251.07 677.119 1253.48 678.466 1256.09 679.284C1260.27 680.784 1264.68 681.519 1269.12 681.455C1275.23 681.293 1281.35 681.062 1287.59 680.854C1288.08 680.936 1288.54 681.131 1288.94 681.424C1289.34 681.716 1289.67 682.099 1289.9 682.54C1289.9 683.233 1290.1 683.902 1290.1 684.572C1290.1 690.368 1290.1 696.117 1290.1 701.936C1290.1 705.4 1288.72 707.039 1285.49 707.432C1272.28 709.002 1259.05 710.133 1245.8 708.032C1242.44 707.496 1239.12 706.724 1235.87 705.723C1230.78 704.199 1226.08 701.592 1222.1 698.081C1218.11 694.569 1214.93 690.236 1212.78 685.38C1209.11 677.297 1207.13 668.554 1206.94 659.68C1206.55 650.837 1206.43 641.993 1206.32 633.126C1206.32 624.629 1206.32 616.132 1206.32 607.727L1206.08 367.793Z" fill="white"/>
<g filter="url(#filter1_d)">
<path d="M476.337 788.924C474.631 789.168 472.924 789.549 471.217 789.63C468.879 789.63 466.401 789.63 463.993 789.63H22.2833C18.8465 789.63 15.4097 789.467 11.9495 789.358C11.2754 789.268 10.644 788.928 10.1476 788.391C9.65127 787.853 9.31595 787.144 9.19072 786.369C9.19072 785.961 9.02706 785.581 9.00368 785.2C9.00368 773.567 9.00368 761.961 9.00368 750.328C8.96102 749.119 9.29075 747.932 9.93359 746.98C10.5764 746.028 11.4902 745.375 12.5106 745.136C20.4597 742.418 28.4087 739.7 36.3344 736.982C60.8127 728.665 85.0106 719.397 108.694 708.307C142.364 692.791 174.412 672.886 204.223 648.973C230.851 627.494 255.278 602.544 277.027 574.608C299.366 545.69 318.962 514.06 335.476 480.265C352.761 445.148 369.462 409.651 385.578 373.773C425.183 286.217 464.718 198.624 504.182 110.995C511.687 94.3062 519.122 77.5904 526.65 60.9289C528.404 57.0149 530.18 53.101 532.238 49.4045C537.913 38.82 545.529 29.8234 554.542 23.0575C563.554 16.2916 573.741 11.9234 584.374 10.265C588.809 9.49899 593.287 9.12645 597.771 9.15058C628.086 9.15058 658.425 9.15058 688.787 9.15058C691.92 8.79846 695.082 9.06496 698.139 9.93881C698.677 14.9672 696.666 19.3432 695.38 23.8551C684.47 62.2154 673.497 100.549 662.462 138.855L479.119 777.345C478.044 781.177 477.272 785.091 476.337 788.924Z" fill="white"/>
<path d="M466.985 789.238C467.921 785.406 468.692 781.492 469.768 777.714L653.11 139.223C664.098 100.899 675.071 62.5659 686.028 24.2237C687.314 19.7118 689.325 15.3358 688.787 10.3074C690.793 9.83937 692.824 9.53062 694.866 9.3833C722.095 9.3833 749.332 9.3833 776.577 9.3833C778.269 9.471 779.944 9.81829 781.557 10.4162C782.095 10.5792 782.563 11.4762 782.796 12.1557C783.007 12.9097 783.055 13.7124 782.937 14.4932C780.716 29.8772 778.424 45.234 776.227 60.6995C773.889 77.2795 771.551 93.8866 769.213 110.467C767.53 122.29 765.729 134.113 764.023 145.937C762.316 157.76 760.656 169.611 758.973 181.461C757.289 193.312 755.629 205.135 753.923 216.959C752.216 228.782 750.462 240.633 748.732 252.456C746.839 265.475 744.921 278.467 743.074 291.514C740.737 308.067 738.399 324.674 736.061 341.254C734.377 353.077 732.577 364.9 730.87 376.588C729.164 388.275 727.527 400.289 725.82 412.112L720.513 448.806C718.83 460.629 717.17 472.48 715.463 484.303L710.156 520.996L705.106 556.521C703.423 568.344 701.763 580.195 700.056 592.018L694.772 628.712L689.699 664.209L684.415 700.902L679.342 736.427C677.581 748.658 675.812 760.88 674.035 773.093C673.59 776.246 672.936 779.372 672.538 782.552C671.627 789.591 670.995 790.026 664.356 789.999C663.327 789.999 662.298 789.999 661.27 789.999C599.89 789.999 538.519 789.999 477.156 789.999C473.836 789.999 470.399 789.646 466.985 789.238Z" fill="#E3E8E8"/>
</g>
</g>
<defs>
<filter id="filter0_d" x="5" y="5" width="4114" height="887" filterUnits="userSpaceOnUse" color-interpolation-filters="sRGB">
<feFlood flood-opacity="0" result="BackgroundImageFix"/>
<feColorMatrix in="SourceAlpha" type="matrix" values="0 0 0 0 0 0 0 0 0 0 0 0 0 0 0 0 0 0 127 0"/>
<feOffset dx="1" dy="1"/>
<feGaussianBlur stdDeviation="2.5"/>
<feColorMatrix type="matrix" values="0 0 0 0 0 0 0 0 0 0 0 0 0 0 0 0 0 0 0.25 0"/>
<feBlend mode="normal" in2="BackgroundImageFix" result="effect1_dropShadow"/>
<feBlend mode="normal" in="SourceGraphic" in2="effect1_dropShadow" result="shape"/>
</filter>
<filter id="filter1_d" x="0" y="0" width="794" height="801" filterUnits="userSpaceOnUse" color-interpolation-filters="sRGB">
<feFlood flood-opacity="0" result="BackgroundImageFix"/>
<feColorMatrix in="SourceAlpha" type="matrix" values="0 0 0 0 0 0 0 0 0 0 0 0 0 0 0 0 0 0 127 0"/>
<feOffset dx="1" dy="1"/>
<feGaussianBlur stdDeviation="5"/>
<feColorMatrix type="matrix" values="0 0 0 0 0 0 0 0 0 0 0 0 0 0 0 0 0 0 0.25 0"/>
<feBlend mode="normal" in2="BackgroundImageFix" result="effect1_dropShadow"/>
<feBlend mode="normal" in="SourceGraphic" in2="effect1_dropShadow" result="shape"/>
</filter>
</defs>
</svg>
