<svg width="4110" height="883" viewBox="0 0 4110 883" fill="none" xmlns="http://www.w3.org/2000/svg">
<g filter="url(#filter0_d)">
<path d="M2969.57 278.507C2968.14 283.126 2966.64 287.744 2965.32 292.177C2940.57 377.058 2915.83 461.946 2891.1 546.842C2877.58 593.208 2864.01 639.559 2850.39 685.894C2847.16 696.862 2849.37 695.569 2837.51 695.615C2827.97 695.615 2818.44 695.615 2808.88 695.615C2807.52 695.637 2806.16 695.545 2804.81 695.338C2804.49 695.26 2804.18 695.112 2803.92 694.905C2803.66 694.698 2803.44 694.436 2803.29 694.137C2802.47 692.275 2801.74 690.371 2801.12 688.434L2693.18 350.227L2661.32 250.083C2660.51 247.497 2659.75 244.865 2659.01 242.255C2658.98 241.755 2659.12 241.259 2659.4 240.842C2659.68 240.425 2660.09 240.111 2660.56 239.946C2660.88 239.946 2661.2 239.738 2661.53 239.738C2672.1 239.738 2682.66 239.738 2693.21 239.738C2694.06 239.694 2694.91 239.951 2695.6 240.466C2696.28 240.98 2696.77 241.72 2696.97 242.555L2706 271.811L2759.58 446.376L2821.78 649.272C2822.66 652.181 2823.77 655.022 2824.81 657.885C2824.81 658.116 2825.32 658.254 2825.59 658.393C2826.38 658.762 2827 658.624 2827.23 657.931C2828.13 655.368 2829.08 652.828 2829.84 650.219L2887.03 453.303L2946.48 248.536C2947.13 246.227 2948.05 244.056 2948.79 241.817C2949.8 241.485 2950.84 241.253 2951.89 241.124C2963.8 241.124 2975.71 241.124 2987.65 241.124C2988.33 241.12 2989.01 241.174 2989.68 241.285C2990.36 241.323 2991.02 241.562 2991.56 241.974C2992.1 242.385 2992.51 242.95 2992.73 243.595C2994.16 248.213 2995.57 252.692 2996.91 257.241L3051.86 444.274L3111.73 647.864C3112.67 651.119 3113.69 654.352 3114.77 657.954C3115.81 657.238 3117.08 656.869 3117.22 656.176C3119.45 649.388 3121.59 642.576 3123.62 635.741C3155.62 528.878 3187.59 422.023 3219.55 315.175C3226.08 293.332 3232.52 271.488 3239.04 249.644C3239.77 247.036 3240.64 244.469 3241.64 241.955C3241.99 241.147 3243.08 240.639 3243.95 240.039C3244.26 239.897 3244.61 239.841 3244.95 239.877C3254.83 239.877 3264.7 239.877 3274.57 239.877C3274.9 239.899 3275.22 239.993 3275.51 240.151C3275.81 240.309 3276.06 240.528 3276.26 240.793C3276.46 241.058 3276.6 241.363 3276.67 241.687C3276.74 242.011 3276.74 242.347 3276.67 242.671C3276.02 244.98 3275.38 247.289 3274.66 249.598L3256.49 307.001L3157.21 620.109C3150.11 642.491 3143.06 664.874 3136.04 687.256C3135.42 689.196 3134.79 691.135 3134.08 693.052C3133.79 693.861 3133.24 694.556 3132.53 695.034C3131.81 695.512 3130.96 695.748 3130.11 695.707C3118.88 695.707 3107.65 695.707 3096.4 695.707C3094.09 695.707 3092.86 694.529 3092.1 692.082C3091.34 689.634 3090.72 687.464 3090.05 685.155L3040.48 514.724C3018.03 437.663 2995.56 360.617 2973.06 283.587C2972.7 282.288 2972.2 281.034 2971.56 279.847C2971.19 279.269 2970.4 279.039 2969.57 278.507V278.507Z" fill="white"/>
<path d="M4096.37 554.555C4096.37 555.645 4096.28 556.733 4096.12 557.811C4088.96 587.346 4075.37 614.939 4056.34 638.628C4030.52 670.285 3997.51 690.697 3958.07 700.972C3933.99 707.3 3908.96 709.255 3884.19 706.745C3831.85 701.526 3788.72 678.828 3755.91 637.473C3739.59 616.459 3727.28 592.616 3719.59 567.139C3714.4 550.573 3710.71 533.57 3708.58 516.34C3706.15 498.118 3705.05 479.743 3705.28 461.362C3705.97 425.687 3711.88 390.958 3725.41 357.777C3736.81 328.852 3754.33 302.738 3776.78 281.232C3804.54 254.684 3839.65 237.125 3877.54 230.849C3897.7 227.273 3918.28 226.782 3938.59 229.394C3987.07 235.813 4026.71 258.026 4056.48 297.257C4071.71 317.724 4083.31 340.655 4090.78 365.051C4096.11 381.928 4099.8 399.28 4101.8 416.866C4103.85 434.451 4104.47 452.174 4103.64 469.859C4103.64 471.221 4103.46 472.56 4103.32 473.923C4103.14 475.816 4102.05 476.763 4099.88 476.809C4096.81 476.809 4093.74 476.809 4090.65 476.809H3754.6C3751.18 476.809 3747.67 476.809 3744.39 476.948C3743.79 476.921 3743.19 477.031 3742.65 477.27C3742.1 477.51 3741.61 477.872 3741.22 478.329C3740.83 478.786 3740.56 479.326 3740.41 479.907C3740.26 480.488 3740.25 481.095 3740.37 481.681C3740.72 488.147 3741 494.612 3741.64 501.031C3743.87 526.138 3749.48 550.83 3758.31 574.436C3765.04 592.307 3774.56 608.995 3786.53 623.873C3808.34 651.419 3839.33 670.197 3873.85 676.773C3905.43 683.194 3938.19 680.241 3968.12 668.276C4000.3 655.576 4024.84 633.778 4042.65 604.269C4049.96 591.981 4055.84 578.896 4060.17 565.269C4061.02 562.683 4061.72 560.05 4062.48 557.464C4063.24 554.878 4064.33 553.955 4066.75 553.931C4070.49 553.931 4074.25 553.931 4077.99 553.931C4082.75 553.931 4087.53 553.931 4092.29 553.931C4093.66 554.032 4095.03 554.24 4096.37 554.555V554.555ZM3905.04 448.338H4057.19C4060.26 448.338 4063.33 448.338 4066.43 448.338C4068.99 448.338 4070.28 446.976 4070.19 444.667C4070.19 443.651 4070.19 442.635 4070 441.619C4068.9 431.482 4068.43 421.299 4066.93 411.163C4064.44 393.311 4060.07 375.773 4053.89 358.84C4048.15 343.194 4040.26 328.427 4030.43 314.968C4016.41 295.551 3997.64 280.056 3975.92 269.964C3947 256.465 3914.58 252.371 3883.22 258.257C3850.43 263.965 3820.26 279.818 3796.96 303.584C3777.72 322.982 3763.11 346.471 3754.2 372.301C3747.06 392.529 3742.64 413.62 3741.07 435.015C3739.93 449.909 3738.53 448.454 3753.97 448.477C3804.29 448.4 3854.64 448.346 3905.04 448.315V448.338Z" fill="white"/>
<path d="M3536.39 694.437C3534.56 695.525 3532.4 695.933 3530.29 695.592C3521.82 695.338 3513.32 696.285 3504.9 694.968C3504.55 693.925 3504.3 692.85 3504.16 691.759C3504.16 688.711 3504.16 685.64 3504.16 682.523V252.692C3504.16 249.298 3504.16 245.904 3504.39 242.51C3504.45 241.832 3504.75 241.198 3505.23 240.717C3505.71 240.236 3506.34 239.939 3507.02 239.877C3515.89 239.877 3524.73 239.877 3533.57 239.877C3534 239.852 3534.42 239.913 3534.82 240.054C3535.22 240.196 3535.59 240.416 3535.91 240.703C3536.22 240.989 3536.47 241.335 3536.65 241.721C3536.83 242.106 3536.93 242.524 3536.94 242.948C3536.94 246.019 3537.08 249.067 3537.08 252.184C3537.08 275.675 3537.08 299.158 3537.08 322.634C3537.17 324.238 3537.41 325.831 3537.8 327.39C3537.8 327.39 3538.65 327.552 3538.74 327.39C3539.59 325.954 3540.36 324.474 3541.05 322.957C3546.76 309.865 3552.6 296.772 3558.07 283.703C3560.09 279.018 3562.79 274.653 3566.08 270.749C3578.92 254.711 3595.8 242.388 3614.98 235.051C3630.93 228.887 3648.15 226.715 3665.13 228.725C3668.15 229.094 3671.18 229.556 3674.18 230.064C3674.83 230.257 3675.41 230.635 3675.86 231.151C3676.3 231.667 3676.58 232.3 3676.67 232.973C3676.67 240.131 3676.67 247.274 3676.67 254.401C3676.67 256.225 3675.31 257.311 3673.26 257.311C3669.52 257.311 3665.78 257.311 3662.04 257.311C3652.16 257.327 3642.31 258.521 3632.71 260.867C3606.57 267.074 3583.81 283.095 3569.15 305.616C3560.69 318.402 3554.1 332.337 3549.6 346.994C3545.76 359.332 3542.91 371.956 3541.08 384.747C3538.21 404.629 3536.85 424.697 3536.99 444.783C3537.08 524.414 3537.08 604.061 3536.99 683.723C3536.99 687.187 3537.57 690.951 3536.39 694.437Z" fill="white"/>
<path d="M3345.36 468.058V252.669C3345.36 249.252 3345.5 245.858 3345.63 242.463C3345.73 241.796 3346.05 241.181 3346.54 240.717C3347.03 240.252 3347.66 239.965 3348.34 239.9C3357.57 239.9 3366.69 239.9 3375.86 239.9C3377.03 239.9 3378.17 241.332 3378.35 242.694C3378.53 244.056 3378.56 244.726 3378.58 245.742C3378.58 248.467 3378.58 251.191 3378.58 253.893V681.691C3378.58 685.432 3378.58 689.173 3378.35 692.913C3378.26 693.581 3377.94 694.196 3377.45 694.655C3376.96 695.114 3376.32 695.388 3375.65 695.43C3366.41 695.43 3357.23 695.43 3348.1 695.43C3347.44 695.326 3346.82 695.009 3346.35 694.526C3345.88 694.043 3345.58 693.42 3345.5 692.752C3345.5 689.334 3345.36 685.824 3345.36 682.546V468.058Z" fill="white"/>
<path d="M3361.15 169.913C3354.59 169.638 3348.39 166.795 3343.91 161.995C3339.43 157.195 3337.01 150.825 3337.18 144.258C3337.35 137.691 3340.09 131.454 3344.82 126.893C3349.54 122.331 3355.87 119.811 3362.44 119.876C3365.76 119.908 3369.04 120.602 3372.09 121.915C3375.14 123.228 3377.9 125.135 3380.21 127.524C3382.51 129.914 3384.32 132.738 3385.52 135.833C3386.73 138.928 3387.3 142.232 3387.22 145.551C3387.13 148.871 3386.38 152.14 3385.02 155.169C3383.66 158.197 3381.71 160.925 3379.28 163.192C3376.86 165.459 3374.01 167.221 3370.89 168.375C3367.78 169.529 3364.47 170.052 3361.15 169.913V169.913Z" fill="white"/>
<path d="M1772.68 378.166V73.8098C1772.68 70.4155 1772.68 67.0212 1772.91 63.6269C1772.97 62.5917 1773.43 61.6215 1774.2 60.9259C1774.97 60.2303 1775.98 59.8652 1777.02 59.9093C1785.54 59.9093 1794.03 59.9093 1802.55 59.9093C1803.06 59.9111 1803.57 60.018 1804.03 60.2233C1804.5 60.4286 1804.92 60.728 1805.27 61.1027C1805.61 61.4775 1805.88 61.9196 1806.05 62.4016C1806.22 62.8835 1806.28 63.395 1806.25 63.904C1806.25 67.2983 1806.25 70.7157 1806.25 74.11V319.193C1806.25 322.61 1806.25 326.12 1806.38 329.422C1806.51 330.011 1806.75 330.569 1807.1 331.061C1807.47 331.731 1808.49 331.061 1809.41 329.491C1814.03 320.74 1818.51 311.966 1823.1 303.237C1825.64 298.411 1828.36 293.701 1830.79 288.829C1832.7 285.216 1835.13 281.908 1838.01 279.015C1849.75 266.63 1863.36 256.166 1878.35 248.005C1894.25 239.393 1911.54 233.618 1929.42 230.941C1944.53 228.394 1959.84 227.28 1975.16 227.616C2004.04 228.678 2031.86 234.312 2057.86 247.497C2079.83 258.542 2099.3 273.967 2115.07 292.824C2135.32 317.297 2150.16 345.775 2158.62 376.388C2162.86 391.102 2165.95 406.126 2167.85 421.322C2169.5 432.794 2170.34 444.368 2170.37 455.958C2170.37 462.77 2170.51 469.582 2170.23 476.37C2169.72 488.608 2168.55 500.777 2166.93 512.946C2165.47 524.067 2163.32 535.087 2160.49 545.942C2154.56 569.758 2145.04 592.532 2132.25 613.482C2110.23 649.535 2077.07 677.428 2037.77 692.936C2023.21 698.672 2008.04 702.769 1992.57 705.151C1977.33 707.668 1962.04 707.46 1946.74 707.229C1929.01 706.882 1911.46 703.701 1894.74 697.808C1871.45 689.777 1850.51 676.091 1833.81 657.977C1831.57 655.41 1829.76 652.502 1828.43 649.364C1823.03 638.004 1817.64 626.651 1812.27 615.306C1811.23 613.158 1809.96 611.08 1808.83 609.048C1808.6 608.679 1807.72 608.679 1807.12 608.633C1807.12 608.633 1806.75 609.141 1806.73 609.418C1806.73 612.466 1806.48 615.514 1806.45 618.654V687.071C1806.45 694.83 1806.31 696.053 1798.07 696.007C1791.93 696.007 1785.81 696.007 1779.6 696.007C1773.39 696.007 1772.81 695.014 1772.68 688.664C1772.68 685.593 1772.68 682.522 1772.68 679.428V378.166ZM1806.41 470.898C1806.41 481.104 1806.41 491.31 1806.41 501.539C1806.44 517.186 1807.9 532.797 1810.75 548.182C1814.19 569.039 1821.17 589.155 1831.39 607.663C1845.76 633.858 1868.32 654.616 1895.62 666.752C1916.25 675.823 1938.58 680.381 1961.12 680.121C1966.9 679.989 1972.67 679.511 1978.39 678.689C1984.82 678.045 1991.22 677.074 1997.55 675.78C2015.18 671.72 2031.99 664.692 2047.26 654.998C2055.34 649.924 2062.9 644.078 2069.84 637.542C2091.75 617.176 2106.79 592.4 2117.43 564.714C2128.19 536.452 2132.74 506.988 2133.59 476.97C2133.96 464.387 2133.54 451.793 2132.32 439.264C2130.97 424.71 2128.66 410.262 2125.39 396.015C2120.97 376.763 2114.03 358.176 2104.75 340.736C2093.5 318.858 2077.52 299.756 2057.98 284.811C2043.85 274.063 2027.78 266.159 2010.65 261.536C1996.19 257.613 1981.27 255.618 1966.29 255.602C1958.47 255.713 1950.65 256.229 1942.88 257.149C1929.68 258.523 1916.69 261.532 1904.23 266.108C1879.76 275.016 1858.48 290.963 1843.05 311.942C1834.73 323.166 1827.95 335.461 1822.92 348.495C1816.91 364.047 1812.65 380.217 1810.22 396.708C1807.82 411.483 1806.54 426.42 1806.41 441.388V470.898Z" fill="white"/>
<path d="M2560.1 240.362C2561.75 240.027 2563.41 239.804 2565.09 239.692C2572.57 239.692 2580.07 239.692 2587.58 239.692C2597 239.692 2597.94 239.046 2594.11 248.813C2584.04 274.467 2574.32 300.259 2564.44 325.982L2530.04 415.55C2521.13 438.733 2512.19 461.908 2503.24 485.075L2468.79 574.621L2442.35 643.199L2417.81 707.022C2411.65 723.231 2405 739.264 2397.86 755.119C2392.71 766.665 2387.36 778.002 2381.44 789.132C2374.1 803.372 2365.61 816.987 2356.05 829.84C2348.64 840.052 2339.91 849.231 2330.07 857.133C2314.51 869.569 2295.29 876.532 2275.38 876.945C2266.51 877.084 2257.67 876.945 2248.8 876.714C2246.41 876.691 2244.03 876.506 2241.67 876.16C2234.95 875.098 2234.28 874.267 2234.33 867.663C2234.33 861.867 2234.33 856.117 2234.33 850.299C2234.33 847.805 2235.97 846.35 2238.23 846.835C2247.99 848.913 2257.9 848.474 2267.76 848.544C2283.92 848.699 2299.62 843.184 2312.13 832.958C2318.55 827.889 2324.36 822.11 2329.47 815.732C2341.41 800.411 2351.52 783.75 2359.6 766.087C2367.5 749.485 2374.1 732.306 2380.87 715.288C2381.72 713.426 2382.4 711.495 2382.92 709.516C2383.27 707.863 2383.27 706.157 2382.92 704.505C2382.41 702.534 2381.73 700.61 2380.89 698.755C2364.42 655.868 2347.94 612.989 2331.46 570.118C2317.85 534.882 2304.22 499.661 2290.57 464.456C2279.06 434.592 2267.58 404.736 2256.14 374.887L2230.19 307.117L2207.77 249.021C2206.92 246.712 2206.32 244.403 2205.63 242.232C2205.65 241.736 2205.81 241.256 2206.09 240.848C2206.37 240.439 2206.76 240.119 2207.22 239.923C2208.24 239.808 2209.23 239.577 2210.25 239.554C2219.48 239.554 2228.72 239.554 2237.84 239.554C2239.03 239.494 2240.22 239.843 2241.19 240.543C2242.16 241.244 2242.87 242.255 2243.19 243.41L2245.32 249.136C2258.08 283.618 2270.84 318.077 2283.62 352.513C2291.77 374.541 2299.78 396.593 2307.98 418.598L2344.6 517.148C2352.17 537.56 2359.72 557.988 2367.25 578.431L2397.68 660.748C2398.29 662.307 2399.07 663.8 2399.98 665.205C2400.25 665.312 2400.54 665.355 2400.82 665.331C2401.11 665.307 2401.38 665.216 2401.62 665.066C2402.4 663.969 2403.04 662.783 2403.54 661.533L2422.36 610.734C2435.5 575.329 2448.65 539.923 2461.79 504.518C2469.94 482.489 2477.95 460.438 2486.13 438.41C2498.44 405.236 2510.75 372.07 2523.07 338.912C2528.86 323.28 2534.61 307.602 2540.32 291.946C2546.02 276.291 2551.86 260.705 2557.79 245.096C2558.58 243.641 2559.32 242.117 2560.1 240.362V240.362Z" fill="white"/>
<path d="M1342.43 873.92C1342.29 871.772 1342.01 869.787 1342.01 867.778C1342.01 861.659 1342.01 855.517 1342.19 849.305C1342.21 848.883 1342.33 848.471 1342.52 848.097C1342.72 847.723 1343 847.398 1343.33 847.144C1343.67 846.89 1344.06 846.714 1344.48 846.629C1344.89 846.544 1345.32 846.551 1345.73 846.65C1346.07 846.65 1346.42 846.65 1346.74 846.788C1358.53 848.684 1370.5 849.095 1382.39 848.012C1394.35 847.068 1405.82 842.876 1415.57 835.89C1423.66 830.192 1430.88 823.355 1437.02 815.593C1445.48 804.911 1452.92 793.453 1459.23 781.373C1467.49 765.721 1474.86 749.608 1481.28 733.114C1484.67 724.57 1487.97 716.004 1491.21 707.714C1490.5 703.209 1489.12 698.836 1487.12 694.737C1474.21 661.04 1461.24 627.382 1448.22 593.762L1355.29 352.789L1314.95 247.982C1314.21 246.088 1313.61 244.125 1312.96 242.186C1312.88 241.699 1312.98 241.2 1313.23 240.777C1313.49 240.353 1313.88 240.035 1314.35 239.877C1315.37 239.877 1316.36 239.553 1317.37 239.553C1326.61 239.553 1335.81 239.553 1344.96 239.553C1346.09 239.622 1347.21 239.76 1348.31 239.969C1349.24 241.295 1350.06 242.693 1350.76 244.148C1353.07 250.175 1355.38 256.271 1357.5 262.321L1456.11 528.439C1472.18 571.819 1488.25 615.213 1504.32 658.624C1505.13 660.933 1506.14 662.988 1507.11 665.158C1507.19 665.292 1507.3 665.404 1507.44 665.484C1507.57 665.565 1507.72 665.611 1507.88 665.62C1508.45 665.62 1509.35 665.389 1509.54 664.997C1510.55 662.841 1511.48 660.648 1512.31 658.416L1610.76 392.251C1628.32 344.7 1645.93 297.157 1663.58 249.621C1664.41 247.312 1665.13 245.003 1666.12 242.948C1666.78 241.767 1667.56 240.653 1668.43 239.623C1679.47 239.623 1690.37 239.623 1701.24 239.623C1703.16 239.623 1703.96 241.216 1703.25 243.294C1702.69 244.91 1702.12 246.504 1701.49 248.097L1685.33 290.006L1605.75 496.736C1579.21 565.653 1552.69 634.571 1526.18 703.489C1516.95 727.295 1507.37 750.94 1496.17 773.868C1487.46 792.352 1477.16 810.044 1465.39 826.746C1459.04 835.616 1451.83 843.845 1443.88 851.314C1432.96 861.678 1419.67 869.217 1405.18 873.273C1399.29 874.976 1393.24 876.051 1387.12 876.483C1376.23 877.133 1365.31 877.056 1354.43 876.252C1350.32 876.229 1346.25 875.438 1342.43 873.92Z" fill="white"/>
<path d="M1128.88 47.8328C1129.42 48.7086 1129.81 49.6685 1130.04 50.6729C1130.04 58.1543 1130.04 65.6356 1130.04 73.1169C1130.04 73.4514 1129.97 73.7825 1129.84 74.0909C1129.71 74.3993 1129.52 74.6788 1129.28 74.9131C1129.05 75.1475 1128.76 75.3319 1128.45 75.4556C1128.14 75.5794 1127.81 75.6399 1127.47 75.6338C1125.17 75.3567 1122.86 75.0565 1120.41 74.6871C1109.33 72.7835 1098.04 72.341 1086.84 73.3709C1081.76 73.9185 1076.74 74.9863 1071.88 76.5574C1063.7 79.0448 1056.2 83.3782 1049.96 89.2233C1043.72 95.0683 1038.9 102.269 1035.88 110.27C1032.68 118.164 1030.68 126.491 1029.93 134.976C1028.53 149.203 1027.88 163.492 1027.96 177.786C1028.17 196.513 1027.96 215.239 1027.96 233.942C1027.92 236.319 1028.05 238.696 1028.36 241.054C1028.51 241.515 1028.76 241.932 1029.11 242.27C1029.46 242.608 1029.88 242.856 1030.34 242.994C1033.04 243.302 1035.75 243.449 1038.47 243.433C1062.3 243.433 1086.15 243.433 1110.04 243.433C1122.67 243.433 1121.73 242.347 1121.75 254.793C1121.75 259.227 1121.75 263.637 1121.61 268.07C1121.56 268.924 1121.18 269.724 1120.55 270.304C1119.92 270.885 1119.09 271.201 1118.24 271.187C1115.17 271.187 1112.1 271.326 1109 271.326C1085.15 271.326 1061.29 271.326 1037.43 271.326C1027.73 271.326 1027.85 271.049 1027.92 280.839V683.169C1027.92 697.139 1029.63 695.638 1015.43 695.707C1009.63 695.707 1003.88 695.591 998.065 695.476C997.392 695.431 996.754 695.156 996.259 694.698C995.763 694.24 995.439 693.627 995.34 692.959C995.34 691.943 995.156 690.927 995.156 689.911V284.557C995.156 280.816 994.971 277.099 994.74 273.358C994.643 273.034 994.472 272.738 994.239 272.494C994.006 272.249 993.719 272.062 993.401 271.949C991.747 271.592 990.06 271.406 988.368 271.395C978.14 271.395 967.935 271.395 957.707 271.395C955.005 271.395 952.281 271.395 949.556 271.395C949.044 271.414 948.534 271.32 948.062 271.12C947.59 270.92 947.167 270.619 946.824 270.238C946.48 269.857 946.225 269.406 946.075 268.916C945.924 268.426 945.883 267.908 945.955 267.401C945.955 260.597 945.955 253.793 945.955 246.989C945.952 246.565 946.032 246.145 946.192 245.753C946.352 245.361 946.588 245.005 946.886 244.704C947.185 244.404 947.54 244.165 947.93 244.002C948.321 243.84 948.74 243.756 949.164 243.756C951.473 243.756 953.943 243.617 956.321 243.617C965.164 243.617 974.03 243.617 982.873 243.617C985.597 243.617 988.322 243.617 991.046 243.617C993.77 243.617 994.948 242.324 994.994 240.038C994.994 236.967 994.994 233.919 994.994 230.802C994.994 210.39 994.994 189.97 994.994 169.543C994.89 155.923 995.56 142.309 997.003 128.765C998.473 114.448 1002.81 100.572 1009.75 87.9641C1023.46 63.4189 1044.38 49.4029 1072.09 45.0619C1083.56 43.4677 1095.19 43.2816 1106.72 44.5077C1111.13 44.9003 1115.56 45.2928 1119.92 45.9394C1122.97 46.2626 1125.9 47.1401 1128.88 47.8328V47.8328Z" fill="white"/>
<path d="M1197.08 358.793V72.9322C1197.08 69.5378 1197.08 66.1435 1197.34 62.7492C1197.43 62.0767 1197.74 61.4524 1198.22 60.9726C1198.7 60.4928 1199.32 60.184 1199.99 60.0938C1203.04 59.9784 1206.11 59.886 1209.23 59.8629C1214.33 59.8629 1219.46 59.8629 1224.56 59.8629C1228.95 59.8629 1229.85 60.8558 1229.94 65.3123C1229.94 68.3833 1229.94 71.4313 1229.94 74.5485V597.226C1229.94 610.156 1230.24 623.087 1230.33 636.018C1230.38 641.129 1231.01 646.217 1232.2 651.188C1232.83 654.182 1233.8 657.095 1235.09 659.87C1236.27 662.338 1237.94 664.536 1240.01 666.328C1242.07 668.119 1244.48 669.466 1247.09 670.284C1251.27 671.784 1255.68 672.519 1260.12 672.455C1266.23 672.293 1272.35 672.062 1278.59 671.854C1279.08 671.936 1279.54 672.131 1279.94 672.424C1280.34 672.716 1280.67 673.099 1280.9 673.54C1280.9 674.233 1281.1 674.902 1281.1 675.572C1281.1 681.368 1281.1 687.117 1281.1 692.936C1281.1 696.4 1279.72 698.039 1276.49 698.432C1263.28 700.002 1250.05 701.133 1236.8 699.032C1233.44 698.496 1230.12 697.724 1226.87 696.723C1221.78 695.199 1217.08 692.592 1213.1 689.08C1209.11 685.569 1205.93 681.236 1203.78 676.38C1200.11 668.297 1198.13 659.554 1197.94 650.68C1197.55 641.837 1197.43 632.993 1197.32 624.126C1197.32 615.629 1197.32 607.132 1197.32 598.727L1197.08 358.793Z" fill="white"/>
<g filter="url(#filter1_d)">
<path d="M532.863 694.097C531.432 694.302 530.001 694.622 528.57 694.69C526.609 694.69 524.531 694.69 522.512 694.69H152.138C149.256 694.69 146.375 694.553 143.473 694.462C142.908 694.386 142.379 694.101 141.962 693.65C141.546 693.199 141.265 692.605 141.16 691.955C141.16 691.613 141.023 691.294 141.003 690.974C141.003 681.218 141.003 671.485 141.003 661.728C140.967 660.714 141.244 659.719 141.783 658.921C142.322 658.122 143.088 657.574 143.944 657.374C150.609 655.095 157.274 652.815 163.92 650.536C184.445 643.56 204.735 635.787 224.594 626.487C252.826 613.474 279.698 596.78 304.695 576.725C327.023 558.712 347.505 537.786 365.741 514.357C384.472 490.105 400.903 463.578 414.75 435.235C429.244 405.784 443.248 376.013 456.761 345.924C489.97 272.493 523.12 199.032 556.211 125.54C562.504 111.544 568.738 97.5246 575.05 83.5511C576.521 80.2686 578.01 76.9861 579.736 73.886C584.494 65.0091 590.88 57.464 598.437 51.7896C605.994 46.1152 614.536 42.4518 623.452 41.0609C627.17 40.4185 630.926 40.1061 634.685 40.1263C660.105 40.1263 685.544 40.1263 711.002 40.1263C713.63 39.831 716.281 40.0545 718.844 40.7873C719.295 45.0045 717.609 48.6745 716.531 52.4585C707.382 84.6301 698.182 116.779 688.929 148.905L535.196 684.387C534.294 687.601 533.647 690.883 532.863 694.097Z" fill="white"/>
<path d="M525.021 694.361C525.806 691.147 526.453 687.864 527.354 684.696L681.087 149.214C690.301 117.073 699.502 84.924 708.689 52.7676C709.767 48.9836 711.453 45.3136 711.002 41.0964C712.684 40.7039 714.387 40.445 716.099 40.3214C738.931 40.3214 761.77 40.3214 784.615 40.3214C786.033 40.395 787.437 40.6862 788.79 41.1876C789.241 41.3244 789.633 42.0766 789.829 42.6465C790.006 43.2789 790.046 43.9521 789.947 44.6069C788.084 57.509 786.163 70.3883 784.321 83.3587C782.36 97.2638 780.4 111.192 778.439 125.097C777.028 135.013 775.518 144.929 774.087 154.844C772.656 164.76 771.264 174.699 769.853 184.638C768.441 194.576 767.05 204.492 765.619 214.408C764.188 224.324 762.717 234.263 761.267 244.179C759.679 255.098 758.071 265.994 756.522 276.935C754.562 290.818 752.602 304.746 750.641 318.651C749.23 328.566 747.72 338.482 746.289 348.284C744.858 358.086 743.486 368.162 742.055 378.078L737.605 408.851C736.193 418.767 734.801 428.706 733.37 438.622L728.92 469.395L724.686 499.188C723.274 509.104 721.883 519.043 720.451 528.959L716.021 559.732L711.767 589.503L707.337 620.276L703.083 650.07C701.606 660.328 700.122 670.578 698.632 680.82C698.26 683.465 697.711 686.086 697.378 688.753C696.613 694.657 696.084 695.022 690.517 694.999C689.654 694.999 688.791 694.999 687.929 694.999C636.462 694.999 585.002 694.999 533.549 694.999C530.765 694.999 527.884 694.703 525.021 694.361V694.361Z" fill="#D9D9D9"/>
</g>
</g>
<defs>
<filter id="filter0_d" x="-4" y="-4" width="4114" height="887" filterUnits="userSpaceOnUse" color-interpolation-filters="sRGB">
<feFlood flood-opacity="0" result="BackgroundImageFix"/>
<feColorMatrix in="SourceAlpha" type="matrix" values="0 0 0 0 0 0 0 0 0 0 0 0 0 0 0 0 0 0 127 0"/>
<feOffset dx="1" dy="1"/>
<feGaussianBlur stdDeviation="2.5"/>
<feColorMatrix type="matrix" values="0 0 0 0 0 0 0 0 0 0 0 0 0 0 0 0 0 0 0.25 0"/>
<feBlend mode="normal" in2="BackgroundImageFix" result="effect1_dropShadow"/>
<feBlend mode="normal" in="SourceGraphic" in2="effect1_dropShadow" result="shape"/>
</filter>
<filter id="filter1_d" x="132" y="31" width="669" height="675" filterUnits="userSpaceOnUse" color-interpolation-filters="sRGB">
<feFlood flood-opacity="0" result="BackgroundImageFix"/>
<feColorMatrix in="SourceAlpha" type="matrix" values="0 0 0 0 0 0 0 0 0 0 0 0 0 0 0 0 0 0 127 0"/>
<feOffset dx="1" dy="1"/>
<feGaussianBlur stdDeviation="5"/>
<feColorMatrix type="matrix" values="0 0 0 0 0 0 0 0 0 0 0 0 0 0 0 0 0 0 0.25 0"/>
<feBlend mode="normal" in2="BackgroundImageFix" result="effect1_dropShadow"/>
<feBlend mode="normal" in="SourceGraphic" in2="effect1_dropShadow" result="shape"/>
</filter>
</defs>
</svg>
