<?xml version="1.0" encoding="UTF-8" standalone="no"?>
<svg
   xmlns:dc="http://purl.org/dc/elements/1.1/"
   xmlns:cc="http://creativecommons.org/ns#"
   xmlns:rdf="http://www.w3.org/1999/02/22-rdf-syntax-ns#"
   xmlns:svg="http://www.w3.org/2000/svg"
   xmlns="http://www.w3.org/2000/svg"
   xmlns:sodipodi="http://sodipodi.sourceforge.net/DTD/sodipodi-0.dtd"
   xmlns:inkscape="http://www.inkscape.org/namespaces/inkscape"
   id="Layer_1"
   data-name="Layer 1"
   viewBox="0 0 1711.5255 488.34729"
   version="1.1"
   sodipodi:docname="FBW-WebOps.svg"
   width="1711.5255"
   height="488.34729"
   inkscape:version="1.0.1 (3bc2e813f5, 2020-09-07)"
   inkscape:export-filename="N:\!Mod REPOs\fbw-branding\png\FBW-WebOps.png"
   inkscape:export-xdpi="96"
   inkscape:export-ydpi="96">
  <metadata
     id="metadata51">
    <rdf:RDF>
      <cc:Work
         rdf:about="">
        <dc:format>image/svg+xml</dc:format>
        <dc:type
           rdf:resource="http://purl.org/dc/dcmitype/StillImage" />
        <dc:title></dc:title>
      </cc:Work>
    </rdf:RDF>
  </metadata>
  <sodipodi:namedview
     pagecolor="#ffffff"
     bordercolor="#666666"
     borderopacity="1"
     objecttolerance="10"
     gridtolerance="10"
     guidetolerance="10"
     inkscape:pageopacity="0"
     inkscape:pageshadow="2"
     inkscape:window-width="1920"
     inkscape:window-height="1017"
     id="namedview49"
     showgrid="false"
     inkscape:zoom="0.58676091"
     inkscape:cx="822.2771"
     inkscape:cy="490.78867"
     inkscape:window-x="-8"
     inkscape:window-y="-8"
     inkscape:window-maximized="1"
     inkscape:current-layer="Layer_1"
     inkscape:document-rotation="0"
     showguides="true"
     inkscape:guide-bbox="true" />
  <defs
     id="defs4">
    <style
       id="style2">.cls-1{fill:#fff;}.cls-2{fill:#01c2cb;}.cls-3{fill:#649aae;}.cls-4{fill:#669bb0;}.cls-5{fill:#595757;}.cls-6{fill:#679aaf;}.cls-7{fill:#585858;}.cls-8{fill:#05c3cc;}.cls-9{fill:#06c4cc;}.cls-10{fill:#679bb0;}.cls-11{fill:#05c4cd;}.cls-12{fill:#06c2cb;}.cls-13{fill:#595555;}.cls-14{fill:#565959;}.cls-15{fill:#595858;}.cls-16{fill:#feffff;}.cls-17{fill:#fefefe;}.cls-18{fill:#fdfeff;}</style>
  </defs>
  <path
     class="cls-2"
     d="m 199.89157,286.94543 c -0.73,0.09 -1.46,0.23 -2.19,0.26 -1,0 -2.06,0 -3.09,0 H 5.6815717 c -1.47,0 -2.94,-0.06 -4.42,-0.1 a 1.36,1.36 0 0 1 -1.17999999,-1.1 c 0,-0.15 -0.07,-0.29 -0.08,-0.43 0,-4.28003 0,-8.55003 0,-12.83003 a 1.87,1.87 0 0 1 1.49999999,-1.91 c 3.4,-1 6.8,-2 10.1900003,-3 10.47,-3.06 20.82,-6.47 30.95,-10.55 a 204.87,204.87 0 0 0 40.86,-21.83 181.7,181.7 0 0 0 31.139998,-27.36 199.22,199.22 0 0 0 25,-34.71 q 11.09,-19.38 21.43,-39.18 25.41,-48.319998 50.73,-96.679998 c 3.21,-6.14 6.39,-12.29 9.61,-18.42 0.75,-1.44 1.51,-2.88 2.39,-4.24 a 31.16,31.16 0 0 1 22.3,-14.4000003 37.8,37.8 0 0 1 5.73,-0.41 q 19.45,0 38.93,0 a 11.94,11.94 0 0 1 4,0.29 c 0.23,1.85 -0.63,3.46 -1.18,5.12 q -7,21.1700003 -14.08,42.3100003 l -78.42,234.909998 c -0.46,1.41003 -0.79,2.85003 -1.19,4.26003 z"
     id="path8" />
  <path
     class="cls-3"
     d="m 199.89157,286.94543 c 0.4,-1.41 0.73,-2.85 1.19,-4.24003 l 78.42,-234.909998 q 7.05,-21.15 14.08,-42.3100003 c 0.55,-1.66 1.41,-3.27 1.18,-5.12 a 19.28,19.28 0 0 1 2.6,-0.34 q 17.47,0 34.95,0 a 8.22,8.22 0 0 1 2.13,0.38 c 0.23,0.06 0.43,0.39 0.53,0.64 a 1.78,1.78 0 0 1 0.06,0.86 c -0.95,5.66 -1.93,11.3100003 -2.87,17.0000003 -1,6.1 -2,12.21 -3,18.31 -0.72,4.35 -1.49,8.7 -2.22,13.05 -0.73,4.35 -1.44,8.71 -2.16,13.07 -0.72,4.36 -1.43,8.71 -2.16,13.06 -0.73,4.35 -1.48,8.71 -2.22,13.06 -0.81,4.79 -1.63,9.57 -2.42,14.369998 -1,6.09 -2,12.2 -3,18.3 -0.72,4.35 -1.49,8.7 -2.22,13 -0.73,4.3 -1.43,8.72 -2.16,13.07 l -2.27,13.5 c -0.72,4.35 -1.43,8.71 -2.16,13.06 l -2.27,13.5 -2.16,13.07 c -0.72,4.35 -1.43,8.71 -2.16,13.06 l -2.26,13.5 -2.17,13.06 -2.26,13.5 -2.17,13.07 q -1.13,6.75 -2.27,13.49 c -0.19,1.16 -0.47,2.31003 -0.64,3.48003 -0.39,2.59 -0.66,2.75 -3.5,2.74 -0.44,0 -0.88,0 -1.32,0 q -39.38,0 -78.75,0 c -1.42,0 -2.89,-0.13 -4.35,-0.28 z"
     id="path10" />
  <path
     class="cls-5"
     d="m 1220.1815,102.6154 c -0.62,2 -1.27,4 -1.84,5.92 q -16.08,55.14 -32.15,110.29 -8.78,30.12 -17.63,60.22 c -1.4,4.75003 -0.44,4.19003 -5.58,4.21003 -4.13,0 -8.26,0 -12.4,0 a 10.42,10.42 0 0 1 -1.76,-0.12 1,1 0 0 1 -0.66,-0.52003 25.54,25.54 0 0 1 -0.94,-2.47 l -46.75,-146.47 -13.8,-43.369998 c -0.35,-1.12 -0.68,-2.26 -1,-3.39 a 1,1 0 0 1 0.67,-1 c 0.14,0 0.28,-0.09 0.42,-0.09 q 6.87,0 13.72,0 a 1.59,1.59 0 0 1 1.63,1.22 l 3.91,12.67 23.21,75.599998 26.94,87.87 c 0.38,1.26 0.86,2.49 1.31,3.73 0,0.1 0.22,0.16 0.34,0.22 0.34,0.16 0.61,0.1 0.71,-0.2 0.39,-1.11 0.8,-2.21 1.13,-3.34 l 24.77,-85.28 25.75,-88.679998 c 0.28,-1 0.68,-1.94 1,-2.91 a 7,7 0 0 1 1.34,-0.3 c 5.16,0 10.32,0 15.49,0 a 5.22,5.22 0 0 1 0.88,0.07 1.48,1.48 0 0 1 1.32,1 c 0.62,2 1.23,3.94 1.81,5.91 l 23.8,80.999998 25.93,88.17 c 0.41,1.41 0.85,2.81 1.32,4.37 0.45,-0.31 1,-0.47 1.06,-0.77 q 1.45,-4.41 2.77,-8.85 20.79,-69.42 41.55,-138.83 c 2.83,-9.46 5.62,-18.919998 8.44,-28.379998 a 32.61,32.61 0 0 1 1.13,-3.33 c 0.15,-0.35 0.62,-0.57 1,-0.83 a 0.83,0.83 0 0 1 0.43,-0.07 q 6.42,0 12.83,0 a 1,1 0 0 1 0.91,1.21 c -0.28,1 -0.56,2 -0.87,3 l -7.87,24.859998 -43,135.6 q -4.61,14.54 -9.17,29.08 c -0.27,0.84 -0.54,1.68 -0.85,2.51 a 1.74,1.74 0 0 1 -1.72,1.15003 q -7.29,0 -14.6,0 c -1,0 -1.53,-0.51003 -1.86,-1.57003 -0.33,-1.06 -0.6,-2 -0.89,-3 l -21.47,-73.81 q -14.58,-50.06 -29.2,-100.1 a 7.84,7.84 0 0 0 -0.65,-1.62 c -0.16,-0.25 -0.5,-0.35 -0.86,-0.58 z"
     id="path14" />
  <path
     class="cls-6"
     d="M 721.78157,145.7754 V 13.965402 c 0,-1.47 0,-2.94 0.1,-4.4100003 a 1.71,1.71 0 0 1 1.78,-1.61 c 3.69,0 7.37,0 11.06,0 a 1.61,1.61 0 0 1 1.6,1.73 c 0,1.4700003 0,2.9500003 0,4.4200003 V 120.2354 c 0,1.48 0,3 0.06,4.43 a 1.93,1.93 0 0 0 0.31,0.71 c 0.16,0.29 0.6,0 1,-0.68 2,-3.79 3.94,-7.59 5.93,-11.37 1.1,-2.09 2.28,-4.13 3.33,-6.24 a 17.76,17.76 0 0 1 3.13,-4.25 70.57,70.57 0 0 1 17.46995,-13.429998 67.41,67.41 0 0 1 22.12,-7.39 105.29,105.29 0 0 1 19.81,-1.44 c 12.51,0.46 24.56,2.9 35.82,8.61 a 78,78 0 0 1 24.78,19.629998 97.57,97.57 0 0 1 18.86,36.19 127.18,127.18 0 0 1 4,19.46 107.06,107.06 0 0 1 1.09,15 c 0,2.95 0.06,5.9 -0.06,8.84 -0.22,5.3 -0.73,10.57 -1.43,15.84 a 117.48,117.48 0 0 1 -2.79,14.29 104.7,104.7 0 0 1 -12.23,29.25 84.14,84.14 0 0 1 -40.92,34.41 91.44,91.44 0 0 1 -19.58,5.29003 c -6.6,1.09 -13.22,1 -19.85,0.9 a 72,72 0 0 1 -22.52,-4.08 64.49,64.49 0 0 1 -26.38995,-17.25003 13.91,13.91 0 0 1 -2.33,-3.73 q -3.51,-7.38 -7,-14.75 c -0.45,-0.93 -1,-1.83 -1.49,-2.71 -0.1,-0.16 -0.48,-0.16 -0.74,-0.18 0,0 -0.16,0.22 -0.17,0.34 0,1.32 -0.11,2.64 -0.12,4 v 29.63 c 0,3.36 -0.06,3.89003 -3.63,3.87003 -2.66,0 -5.31,0 -8,0 -2.69,0 -2.94,-0.43003 -3,-3.18003 0,-1.33 0,-2.66 0,-4 z m 14.61,40.16 v 0 c 0,4.42 0,8.84 0,13.27 a 112.23,112.23 0 0 0 1.88,20.2 80.46,80.46 0 0 0 8.94,25.76 59.12,59.12 0 0 0 27.81995,25.59 68.53,68.53 0 0 0 28.37,5.79 62.69,62.69 0 0 0 7.48,-0.62 82.68,82.68 0 0 0 8.3,-1.26 69.14,69.14 0 0 0 21.53,-9 63.82,63.82 0 0 0 9.78,-7.56 c 9.49,-8.82 16,-19.55 20.61,-31.54 4.66,-12.24 6.63,-25 7,-38 a 129.24,129.24 0 0 0 -0.55,-16.33 142.56,142.56 0 0 0 -3,-18.73 97.44,97.44 0 0 0 -8.94,-23.94 71.9,71.9 0 0 0 -20.26,-24.22 59.4,59.4 0 0 0 -20.5,-10.079998 73.68,73.68 0 0 0 -19.21,-2.57 98.26,98.26 0 0 0 -10.14,0.67 69.42,69.42 0 0 0 -16.74,3.88 57.17,57.17 0 0 0 -26.49995,19.849998 67.34,67.34 0 0 0 -8.72,15.83 97.66,97.66 0 0 0 -5.5,20.88 128,128 0 0 0 -1.65,19.35 z"
     id="path16" />
  <path
     class="cls-7"
     d="m 1708.2215,222.1654 a 9.62,9.62 0 0 1 -0.11,1.41 89.56,89.56 0 0 1 -17.23,35 c -11.18,13.71 -25.48,22.55 -42.56,27.00003 a 90.16,90.16 0 0 1 -32,2.5 c -22.67,-2.26 -41.35,-12.09003 -55.56,-30.00003 a 93.78,93.78 0 0 1 -15.73,-30.46 124.74,124.74 0 0 1 -4.77,-22 164.91,164.91 0 0 1 -1.43,-23.81 c 0.3,-15.45 2.86,-30.49 8.72,-44.86 a 93.23,93.23 0 0 1 22.25,-33.15 82.68,82.68 0 0 1 43.64,-21.819998 87.49,87.49 0 0 1 26.44,-0.63 c 21,2.78 38.17,12.4 51.06,29.389998 a 96.5,96.5 0 0 1 14.86,29.36 119.21,119.21 0 0 1 4.77,22.44 140.83,140.83 0 0 1 0.8,22.95 c 0,0.59 -0.08,1.17 -0.14,1.76 -0.08,0.82 -0.55,1.23 -1.49,1.25 -1.33,0 -2.66,0 -4,0 h -145.55 c -1.48,0 -3,0 -4.42,0.06 a 1.7,1.7 0 0 0 -1.74,2.05 c 0.15,2.8 0.27,5.6 0.55,8.38 a 121.24,121.24 0 0 0 7.22,31.79 77.93,77.93 0 0 0 12.22,21.41 63.37,63.37 0 0 0 37.82,22.91 71.57,71.57 0 0 0 40.83,-3.68 c 13.94,-5.5 24.57,-14.94 32.28,-27.72 a 81.07,81.07 0 0 0 7.59,-16.89 c 0.37,-1.12 0.67,-2.26 1,-3.38 0.33,-1.12 0.8,-1.52 1.85,-1.53 1.62,0 3.25,0 4.87,0 2.06,0 4.13,0 6.19,0 a 11.4,11.4 0 0 1 1.77,0.27 z m -82.87,-46 h 65.9 c 1.33,0 2.66,0 4,0 1.11,0 1.67,-0.59 1.63,-1.59 0,-0.44 0,-0.88 -0.08,-1.32 -0.48,-4.39 -0.68,-8.8 -1.33,-13.19 a 111,111 0 0 0 -5.65,-22.66 77.44,77.44 0 0 0 -10.16,-19 60.64,60.64 0 0 0 -23.61,-19.489998 66.1,66.1 0 0 0 -40.15,-5.07 68.86,68.86 0 0 0 -37.36,19.629998 78.67,78.67 0 0 0 -18.52,29.76 104.57,104.57 0 0 0 -5.69,27.16 c -0.49,6.45 -1.1,5.82 5.59,5.83 q 32.69,-0.05 65.43,-0.07 z"
     id="path18" />
  <path
     class="cls-9"
     d="m 535.43157,360.47543 c -0.06,-0.93 -0.18,-1.79 -0.18,-2.66 0,-2.65 0,-5.31 0.08,-8 a 1.24,1.24 0 0 1 1.53,-1.15 c 0.15,0 0.3,0 0.44,0.06 a 61.9,61.9 0 0 0 15.44,0.53 28.53,28.53 0 0 0 14.37,-5.25 44.53,44.53 0 0 0 9.29,-8.79 93.77,93.77 0 0 0 9.62,-14.82 200.8,200.8 0 0 0 9.55,-20.9 c 1.47,-3.7 2.9,-7.41 4.3,-11 a 19.88,19.88 0 0 0 -1.77,-5.62003 q -8.39,-21.89 -16.85,-43.73 l -40.25,-104.36 -17.47,-45.389998 c -0.32,-0.82 -0.58,-1.67 -0.86,-2.51 a 0.9,0.9 0 0 1 0.6,-1 c 0.44,0 0.87,-0.14 1.31,-0.14 q 6,0 11.95,0 a 11.62,11.62 0 0 1 1.45,0.18 13.24,13.24 0 0 1 1.06,1.81 c 1,2.61 2,5.25 2.92,7.87 l 42.71,115.249998 q 10.44,28.18 20.88,56.38 c 0.35,1 0.79,1.89 1.21,2.83 a 0.41,0.41 0 0 0 0.33,0.2 c 0.25,0 0.64,-0.1 0.72,-0.27 q 0.66,-1.4 1.2,-2.85 l 42.64,-115.27 q 11.41,-30.89 22.88,-61.769998 c 0.36,-1 0.67,-2 1.1,-2.89 a 9,9 0 0 1 1,-1.44 c 4.78,0 9.5,0 14.21,0 0.83,0 1.18,0.69 0.87,1.59 -0.24,0.7 -0.49,1.39 -0.76,2.08 l -7,18.149998 -34.47,89.53 q -17.24,44.77 -34.46,89.54003 c -4,10.31 -8.15,20.55 -13,30.48 a 152.93,152.93 0 0 1 -13.33,22.9 72.59,72.59 0 0 1 -9.32,10.64 40,40 0 0 1 -16.76,9.51 37.72,37.72 0 0 1 -7.82,1.39 106.21,106.21 0 0 1 -14.16,-0.1 14.31,14.31 0 0 1 -5.2,-1.01 z"
     id="path28" />
  <path
     class="cls-10"
     d="m 1062.8315,86.095402 a 16.21,16.21 0 0 1 2.16,-0.29 c 3.24,0 6.49,0 9.74,0 4.08,0 4.49,-0.28 2.83,3.95 -4.36,11.109998 -8.57,22.279998 -12.85,33.419998 l -14.9,38.79 q -5.79,15.06 -11.61,30.11 l -14.92,38.78 -11.45,29.7 -10.63,27.64003 q -3.99997,10.53 -8.63997,20.83 c -2.23,5 -4.55,9.91 -7.11,14.73 a 127.1,127.1 0 0 1 -11,17.63 61.47,61.47 0 0 1 -11.25,11.82 39.25,39.25 0 0 1 -23.69,8.58 c -3.84,0.06 -7.67,0 -11.51,-0.1 a 22.84,22.84 0 0 1 -3.09,-0.24 c -2.91,-0.46 -3.2,-0.82 -3.18,-3.68 0,-2.51 0,-5 0,-7.52 0,-1.08 0.71,-1.71 1.69,-1.5 4.23,0.9 8.52,0.71 12.79,0.74 a 29.92,29.92 0 0 0 19.22,-6.75 46.89,46.89 0 0 0 7.51,-7.46 108.22,108.22 0 0 0 13.05,-21.5 c 3.42,-7.19 6.28,-14.63 9.21,-22 a 15.53,15.53 0 0 0 0.89,-2.5 5.29,5.29 0 0 0 0,-2.17 15.38,15.38 0 0 0 -0.88,-2.49 q -10.7,-27.86003 -21.41,-55.71003 -8.84,-22.89 -17.71,-45.76 -7.48,-19.4 -14.91,-38.79 l -11.24,-29.35 -9.71,-25.159998 c -0.37,-1 -0.63,-2 -0.93,-2.94 a 1.14,1.14 0 0 1 0.69,-1 c 0.44,-0.05 0.87,-0.15 1.31,-0.16 4,0 8,0 11.95,0 a 2.29,2.29 0 0 1 2.32,1.67 l 0.92,2.48 q 8.29,22.399998 16.59,44.769998 c 3.53,9.54 7,19.09 10.55,28.62 l 15.86,42.68 q 4.92,13.26 9.81,26.54 l 13.18,35.65 a 10.88,10.88 0 0 0 1,1.93 0.79,0.79 0 0 0 0.71,-0.06 7.3,7.3 0 0 0 0.83,-1.53 l 8.14997,-22 q 8.54,-23 17.08,-46 c 3.53,-9.54 7,-19.09 10.54,-28.63 q 8,-21.55 16,-43.09 c 2.51,-6.77 5,-13.56 7.47,-20.34 2.47,-6.78 5,-13.529998 7.57,-20.289998 0.34,-0.63 0.66,-1.29 1,-2.05 z"
     id="path30" />
  <path
     class="cls-11"
     d="m 442.94157,2.7154017 a 4,4 0 0 1 0.5,1.23 c 0,3.24 0,6.4800003 0,9.7200003 a 1.09,1.09 0 0 1 -1.11,1.09 c -1,-0.12 -2,-0.25 -3.06,-0.41 a 55.75,55.75 0 0 0 -14.54,-0.57 32.37,32.37 0 0 0 -6.48,1.38 24.18,24.18 0 0 0 -15.59,14.6 37.2,37.2 0 0 0 -2.58,10.7 179.33,179.33 0 0 0 -0.85,18.54 c 0.09,8.11 0,16.22 0,24.32 a 21.05,21.05 0 0 0 0.17,3.08 1.29,1.29 0 0 0 0.86,0.84 29.43,29.43 0 0 0 3.52,0.19 q 15.48,0 31,0 c 5.47,0 5.06,-0.47 5.07,4.92 0,1.92 0,3.83 -0.06,5.75 a 1.44,1.44 0 0 1 -1.46,1.35 c -1.33,0 -2.66,0.06 -4,0.06 q -15.5,0 -31,0 c -4.2,0 -4.15,-0.12 -4.12,4.119998 v 174.24 c 0,6.05003 0.74,5.40003 -5.41,5.43003 -2.51,0 -5,-0.05 -7.52,-0.1 a 1.28,1.28 0 0 1 -1.18,-1.09003 c 0,-0.44 -0.08,-0.88 -0.08,-1.32 v -175.55 c 0,-1.62 -0.08,-3.23 -0.18,-4.85 a 0.93,0.93 0 0 0 -0.58,-0.609998 10.63,10.63 0 0 0 -2.18,-0.24 c -4.43,0 -8.85,0 -13.28,0 -1.17,0 -2.35,0 -3.53,0 a 1.52,1.52 0 0 1 -1.56,-1.73 q 0,-4.42 0,-8.84 a 1.39,1.39 0 0 1 1.39,-1.4 c 1,0 2.07,-0.06 3.1,-0.06 3.83,0 7.67,0 11.5,0 1.18,0 2.36,0 3.54,0 1.18,0 1.69,-0.56 1.71,-1.55 0,-1.33 0,-2.65 0,-4 q 0,-13.26 0,-26.53 a 155.51,155.51 0 0 1 0.87,-17.66 46.49,46.49 0 0 1 5.52,-17.67 c 5.94,-10.6300003 15,-16.7000003 27,-18.5800003 a 61.64,61.64 0 0 1 15,-0.24 c 1.91,0.17 3.83,0.34 5.72,0.62 1.32,0.14 2.59,0.52 3.88,0.82 z"
     id="path32" />
  <path
     class="cls-12"
     d="M 472.48157,137.3854 V 13.585402 c 0,-1.47 0,-2.94 0.11,-4.4100003 a 1.34,1.34 0 0 1 1.15,-1.15 c 1.32,-0.05 2.65,-0.09 4,-0.1 2.21,0 4.43,0 6.64,0 1.9,0 2.29,0.43 2.33,2.3600003 0,1.33 0,2.65 0,4 V 240.6454 c 0,5.6 0.13,11.2 0.17,16.8 a 29.54,29.54 0 0 0 0.81,6.57 17.48,17.48 0 0 0 1.25,3.76 8.62,8.62 0 0 0 5.2,4.51 16,16 0 0 0 5.64,0.94 c 2.65,-0.07 5.3,-0.17 8,-0.26 a 1.38,1.38 0 0 1 1,0.73 c 0,0.3 0.09,0.59 0.09,0.88 0,2.51 0,5 0,7.52 0,1.50003 -0.6,2.21003 -2,2.38003 -5.72,0.68 -11.45,1.17 -17.19,0.26 a 31.44,31.44 0 0 1 -4.3,-1 15.94,15.94 0 0 1 -10,-8.81003 28.39,28.39 0 0 1 -2.53,-11.13 c -0.17,-3.83 -0.22,-7.66 -0.27,-11.5 0,-3.68 0,-7.36 0,-11 z"
     id="path34" />
  <path
     class="cls-13"
     d="m 1465.6815,282.7454 a 3.94,3.94 0 0 1 -2.64,0.50003 c -3.67,-0.11 -7.35,0.3 -11,-0.27003 a 7.33,7.33 0 0 1 -0.32,-1.39 c 0,-1.32 0,-2.65 0,-4 V 91.435402 c 0,-1.47 0,-2.94 0.1,-4.41 a 1.26,1.26 0 0 1 1.14,-1.14 c 3.84,0 7.67,0 11.5,0 a 1.38,1.38 0 0 1 1.46,1.33 c 0,1.33 0.06,2.65 0.06,4 q 0,15.259998 0,30.509998 a 11.15,11.15 0 0 0 0.31,2.06 c 0,0 0.37,0.07 0.41,0 a 20.78,20.78 0 0 0 1,-1.92 c 2.47,-5.67 5,-11.34 7.37,-17 a 22.67,22.67 0 0 1 3.47,-5.609998 50,50 0 0 1 21.18,-15.46 45.44,45.44 0 0 1 21.72,-2.74 c 1.31,0.16 2.62,0.36 3.92,0.58 a 1.53,1.53 0 0 1 1.08,1.26 q 0,4.65 0,9.28 c 0,0.79 -0.59,1.26 -1.48,1.26 -1.62,0 -3.24,0 -4.86,0 a 53.89,53.89 0 0 0 -12.7,1.54 45.35,45.35 0 0 0 -27.53,19.379998 69.39,69.39 0 0 0 -8.47,17.92 105.07,105.07 0 0 0 -3.69,16.35 173.87,173.87 0 0 0 -1.77,26 q 0.06,51.73 0,103.48 c 0,1.5 0.25,3.13 -0.26,4.64 z"
     id="path36" />
  <path
     class="cls-14"
     d="M 1382.9415,184.7054 V 91.425402 c 0,-1.48 0.06,-2.95 0.12,-4.42 a 1.31,1.31 0 0 1 1.17,-1.11 c 4,0 7.95,0 11.92,0 0.51,0 1,0.62 1.08,1.21 0.08,0.59 0.09,0.88 0.1,1.32 0,1.18 0,2.36 0,3.53 V 277.2254 c 0,1.62 0,3.24 -0.1,4.86 a 1.26,1.26 0 0 1 -1.17,1.09003 q -6,0 -11.93,0 a 1.35,1.35 0 0 1 -1.13,-1.16003 c 0,-1.48 -0.06,-3 -0.06,-4.42 z"
     id="path38" />
  <path
     class="cls-15"
     d="m 1389.7815,55.585402 a 10.84,10.84 0 0 1 0.56,-21.67 10.84,10.84 0 1 1 -0.56,21.67 z"
     id="path40" />
  <text
     xml:space="preserve"
     style="font-style:normal;font-weight:normal;font-size:156.289px;line-height:1.25;font-family:sans-serif;fill:#000000;fill-opacity:1;stroke:none;stroke-width:1.30241"
     x="1078.699"
     y="456.90634"
     id="text910"><tspan
       sodipodi:role="line"
       id="tspan908"
       x="1078.699"
       y="456.90634"
       style="font-size:156.289px;stroke-width:1.30241"
       rotate="0 0 0 0"><tspan
         style="letter-spacing:0px;opacity:0.999;fill:#00c2cb;fill-opacity:1;stroke-width:1.30241"
         id="tspan912">Web</tspan><tspan
         style="fill:#545454;fill-opacity:1;stroke-width:1.30241"
         id="tspan944">Ops</tspan></tspan></text>
</svg>
