<?xml version="1.0" encoding="UTF-8" standalone="no"?>
<svg
   xmlns:dc="http://purl.org/dc/elements/1.1/"
   xmlns:cc="http://creativecommons.org/ns#"
   xmlns:rdf="http://www.w3.org/1999/02/22-rdf-syntax-ns#"
   xmlns:svg="http://www.w3.org/2000/svg"
   xmlns="http://www.w3.org/2000/svg"
   xmlns:sodipodi="http://sodipodi.sourceforge.net/DTD/sodipodi-0.dtd"
   xmlns:inkscape="http://www.inkscape.org/namespaces/inkscape"
   id="Layer_1"
   data-name="Layer 1"
   viewBox="0 0 1081.0697 267.64603"
   version="1.1"
   sodipodi:docname="FBW-A32NX-Alone.svg"
   width="1081.0697"
   height="267.64603"
   inkscape:version="1.0.1 (3bc2e813f5, 2020-09-07)"
   inkscape:export-filename="N:\!Mod REPOs\fbw-branding\png\FBW-A32NX-Alone.png"
   inkscape:export-xdpi="96"
   inkscape:export-ydpi="96">
  <metadata
     id="metadata51">
    <rdf:RDF>
      <cc:Work
         rdf:about="">
        <dc:format>image/svg+xml</dc:format>
        <dc:type
           rdf:resource="http://purl.org/dc/dcmitype/StillImage" />
        <dc:title></dc:title>
      </cc:Work>
    </rdf:RDF>
  </metadata>
  <sodipodi:namedview
     pagecolor="#ffffff"
     bordercolor="#666666"
     borderopacity="1"
     objecttolerance="10"
     gridtolerance="10"
     guidetolerance="10"
     inkscape:pageopacity="0"
     inkscape:pageshadow="2"
     inkscape:window-width="1920"
     inkscape:window-height="1017"
     id="namedview49"
     showgrid="false"
     inkscape:zoom="0.41490262"
     inkscape:cx="208.8521"
     inkscape:cy="-24.497277"
     inkscape:window-x="-8"
     inkscape:window-y="-8"
     inkscape:window-maximized="1"
     inkscape:current-layer="Layer_1"
     inkscape:document-rotation="0" />
  <defs
     id="defs4">
    <style
       id="style2">.cls-1{fill:#fff;}.cls-2{fill:#01c2cb;}.cls-3{fill:#649aae;}.cls-4{fill:#669bb0;}.cls-5{fill:#595757;}.cls-6{fill:#679aaf;}.cls-7{fill:#585858;}.cls-8{fill:#05c3cc;}.cls-9{fill:#06c4cc;}.cls-10{fill:#679bb0;}.cls-11{fill:#05c4cd;}.cls-12{fill:#06c2cb;}.cls-13{fill:#595555;}.cls-14{fill:#565959;}.cls-15{fill:#595858;}.cls-16{fill:#feffff;}.cls-17{fill:#fefefe;}.cls-18{fill:#fdfeff;}</style>
  </defs>
  <path
     class="cls-4"
     d="m 827.24553,246.26603 c 0,-0.87 0.09,-1.75 0.09,-2.62 -0.11,-20.06 0,-40.12 -0.37,-60.17 -0.49,-28.76 -0.17,-57.51 -0.25,-86.259997 -0.08,-28.75 0,-57.52 0,-86.28 0,-6.1400001 -0.17,-5.5000001 5.5,-5.5200001 2.36,0 4.72,0.06 7.07,0.12 a 1.33,1.33 0 0 1 1.15,1.15 c 0.06,1.47 0.13,2.94 0.13,4.4100001 0,23.6 -0.18,47.2 0.14,70.79 0.24,17.1 0.19,34.209997 0.27,51.309997 0.08,17.1 0.06,33.92 0.08,50.88 l 0.08,72.56 c 0,1.47 -0.06,2.94 -0.13,4.41 a 1.73,1.73 0 0 1 -1.49,1.41 c -0.59,0 -1.18,0.08 -1.77,0.08 q -8,0 -15.93,0 a 6.42,6.42 0 0 1 -1.76,-0.12 3.5,3.5 0 0 1 -1.5,-0.85 10.05,10.05 0 0 1 -1.22,-1.83 l -12.56,-20.81 -25.53,-42.44 -22.08,-36.78 -25.27,-42.1 q -11.26,-18.759997 -22.56,-37.519997 -14.25,-23.68 -28.48,-47.39 -3.42,-5.67 -6.91,-11.32 c -0.1,-0.16 -0.5,-0.16 -0.76,-0.19 -0.05,0 -0.16,0.21 -0.19,0.34 a 5,5 0 0 0 -0.12,0.86 c 0,0.44 0,0.89 0,1.33 0.12,33.92 0.32,67.84 0.37,101.759997 q 0.09,65.7 0,131.4 c 0,1.47 -0.06,2.94 -0.12,4.41 a 1.41,1.41 0 0 1 -1.16,1.16 11.77,11.77 0 0 1 -1.32,0.12 c -3.24,0 -6.49,0 -9.73,0 -1.5,0 -1.79,-0.8 -1.84,-2 -0.05,-1.2 0,-2.07 0,-3.1 V 10.576033 c 0,-1.1800001 0,-2.3600001 0,-3.5400001 a 1.61,1.61 0 0 1 1.74,-1.59 c 2.51,0 5,0 7.52,0 3.54,0 7.08,0 10.63,0 a 3,3 0 0 1 2.84,1.7 q 4.08,6.8400001 8.2,13.6500001 l 21.7,36 22.6,37.5 21.69,35.999997 q 11.19,18.56 22.38,37.12 10.84,18 21.68,36 12.33,20.44 24.7,40.88 a 16.06,16.06 0 0 0 1.56,2.12 c 0.13,0.02 0.55,-0.12 0.93,-0.15 z"
     id="path12" />
  <path
     class="cls-8"
     d="m 320.05554,267.64603 c -11.62,-0.18 -22.13,-1.3 -32.32,-4.7 a 74.68,74.68 0 0 1 -21.15994,-10.85 69.81,69.81 0 0 1 -19,-21.85 89.56,89.56 0 0 1 -8.89,-22.55 118.46,118.46 0 0 1 -3.21,-19.61 v -0.45 a 1.32,1.32 0 0 1 1.08,-1.18 q 6,0 11.94,0 a 1.5,1.5 0 0 1 1.18,1.16 c 0.4,3.06 0.69,6.15 1.21,9.2 a 77.16,77.16 0 0 0 10.48,28.43 c 9.15,14.6 22.22,23.72 38.91994,27.76 a 79.64,79.64 0 0 0 16.64,2.11 94.43,94.43 0 0 0 26.73,-2.92 69.15,69.15 0 0 0 17.92,-7.44 c 13,-7.79 21.62,-19 25.46,-33.67 a 65.47,65.47 0 0 0 0.39,-32 c -3,-12.84 -10.21,-22.69 -21.23,-29.83 a 67.84,67.84 0 0 0 -20.28,-8.57 101,101 0 0 0 -17.88,-2.9 c -5.15,-0.37 -10.3,-0.67 -15.47,-0.63 a 8.82,8.82 0 0 1 -2.18,-0.21 1.25,1.25 0 0 1 -0.83,-0.86 c -0.12,-1.91 -0.17,-3.82 -0.16,-5.74 0,-6 -0.67,-5.52 5.4,-5.49 a 80.35,80.35 0 0 0 18.43,-1.91 c 11.68,-2.69 22.33,-7.53 31.51,-15.32 9.65,-8.189997 16.08,-18.359997 18.55,-30.849997 a 53.09,53.09 0 0 0 1,-14.07 64.8,64.8 0 0 0 -3.12,-16.9 45.53,45.53 0 0 0 -22.56,-26.12 62,62 0 0 0 -22.35,-6.58 84.33,84.33 0 0 0 -19,0 63.43,63.43 0 0 0 -30,11 59.12,59.12 0 0 0 -20.44994,26.12 76.49,76.49 0 0 0 -5.51,21.77 c -0.14,1.32 -0.35,2.63 -0.54,3.94 a 1.3,1.3 0 0 1 -1.11,1.18 c -4,0 -8,0 -11.93,0 a 1.24,1.24 0 0 1 -1.11,-1.16 c 0.29,-2.79 0.47,-5.59 0.92,-8.35 a 90,90 0 0 1 6.79,-23.26 q 12.78,-27.93 41.47994,-38.8200001 a 88.63,88.63 0 0 1 21,-4.88999996 100.15,100.15 0 0 1 24.71,0.27 77.3,77.3 0 0 1 25.69,7.75999996 59.58,59.58 0 0 1 20.85,17.4400001 58.94,58.94 0 0 1 10.55,24.1 69.29,69.29 0 0 1 0.89,22.44 61.52,61.52 0 0 1 -7.17,22.16 66.55,66.55 0 0 1 -32.2,29.139997 83.09,83.09 0 0 1 -9.54,3.49 c -0.36,0.11 -0.53,0.35 -0.4,0.61 a 1.3,1.3 0 0 0 0.51,0.63 13.63,13.63 0 0 0 1.69,0.48 109.81,109.81 0 0 1 13.47,4.29 71.74,71.74 0 0 1 12.52,6.56 56,56 0 0 1 24.49,35.48 77.23,77.23 0 0 1 -0.6,37.64 65.91,65.91 0 0 1 -16.37,28.94 78.51,78.51 0 0 1 -31.6,19.71 98.19,98.19 0 0 1 -27.25,5.37 c -2.63,0.25 -5.28,0.4 -6.98,0.5 z"
     id="path20" />
  <path
     class="cls-9"
     d="m 51.245601,164.79603 a 20.4,20.4 0 0 0 -2.14,4.91 q -16.17,43.73 -32.31,87.47 c -0.1,0.28 -0.22,0.55 -0.33,0.82 -2,5.06 -0.91,4.46 -6.5299999,4.48 -3.09,0 -6.18,-0.08 -9.26999999,-0.13 -0.35,0 -0.75,-0.63 -0.65,-1 0.21,-0.7 0.4,-1.42 0.66,-2.1 1.13999999,-3 2.30999999,-6.06 3.45999999,-9.09 l 34.3499999,-90 32.79,-85.879997 24.6,-64.4000001 c 0.37,-1 0.7,-1.94 1.13,-2.88 a 9.64,9.64 0 0 1 0.93,-1.37 c 4.079999,-0.28 14.419999,-0.26 17.789999,0 a 5.19,5.19 0 0 1 1.49,2.63 q 5.24,13.8600001 10.47,27.7000001 l 34.75,92.219997 37,98 q 5.93,15.7 11.82,31.43 c 0.47,1.24 0.88,2.5 1.31,3.75 0.1,0.3 -0.38,0.93 -0.71,1 -0.15,0 -0.29,0.09 -0.43,0.09 q -6.2,0 -12.38,0 a 1.8,1.8 0 0 1 -1.71,-1.19 c -0.53,-1.21 -1,-2.46 -1.45,-3.7 l -29.9,-79.41 c -1.5,-4 -3,-8 -4.51,-12 a 2.19,2.19 0 0 0 -2.33,-1.59 c -1,0 -2.07,0 -3.1,0 q -50.22,0 -100.439999,0 a 14.55,14.55 0 0 0 -4.36,0.24 z m 104.529999,-12.78 a 5.53,5.53 0 0 0 0,-1.43 c -0.35,-1.13 -0.79,-2.22 -1.2,-3.33 l -19.1,-51.789997 q -13.68,-37.08 -27.39,-74.15 c -0.3,-0.82 -0.7,-1.61 -1.07,-2.41 0,-0.09 -0.22,-0.15 -0.34,-0.2 a 0.51,0.51 0 0 0 -0.74,0.27 c -0.61,1.49 -1.27,3 -1.83,4.48 q -13.649999,36.39 -27.259999,72.79 l -19.52,52.099997 c -0.31,0.83 -0.6,1.67 -0.88,2.5 a 0.88,0.88 0 0 0 0.75,1.27 c 1.47,0 3,0.07 4.42,0.07 q 35.59,0 71.179999,0 c 6.49,0 13,0 19.46,0 1.14,0 2.3,-0.11 3.52,-0.17 z"
     id="path22" />
  <path
     class="cls-9"
     d="m 437.77556,253.27603 c 0.6,-0.64 1.09,-1.2 1.61,-1.71 l 50.19,-49.32 c 12.41,-12.2 24.88,-24.35 37.24,-36.61 7.42997,-7.37 14.79997,-14.81 21.99997,-22.39 a 247.55,247.55 0 0 0 19.82,-23.2 117.37,117.37 0 0 0 11.09,-17.55 68.11,68.11 0 0 0 7.06,-38.999997 66,66 0 0 0 -3.25,-14.64 51.74,51.74 0 0 0 -22.21,-27.76 53.4,53.4 0 0 0 -16.76,-6.7 74,74 0 0 0 -33.77997,0.35 c -17.27,4.32 -30.09,14.46 -38.7,30 a 80.31,80.31 0 0 0 -8.84,25.81 c -0.45,2.61 -0.71,5.26 -1.06,7.89 -0.07,0.58 -0.13,1.17 -0.22,1.75 a 1.7,1.7 0 0 1 -1.72,1.65 c -2.21,0 -4.43,0 -6.64,0 -1.48,0 -3,0 -4.43,0 a 1.41,1.41 0 0 1 -1.5,-1.7 c 0.44,-4.25 0.92,-8.5 1.75,-12.7 a 96.08,96.08 0 0 1 7.38,-22.65 77.2,77.2 0 0 1 22.57,-28.53 74.31,74.31 0 0 1 28.59,-13.6100001 92,92 0 0 1 30.75997,-2.07999996 97.06,97.06 0 0 1 16.5,3.04999996 67,67 0 0 1 17.75,7.8400001 61.37,61.37 0 0 1 24,28.18 67.69,67.69 0 0 1 5.39,20.89 c 0.26,2.94 0.58,5.88 0.62,8.82 a 75.34,75.34 0 0 1 -5.61,29.34 116.59,116.59 0 0 1 -13.15,23.479997 230.38,230.38 0 0 1 -16.06,20 c -5.76,6.53 -11.77,12.83 -18,18.94 q -14.18,14 -28.46997,27.86 -12.35,12 -24.73,24.07 l -33,32.07 c -3.28,3.19 -3.82,3.92 -3.27,4.34 1.55,1.14 3.38,0.59 5.08,0.6 q 66,0 131.89997,0 c 2,0 4.12,-0.57 6,0.52 0.57,1.88 0.25,3.8 0.3,5.7 0,1.62 0,3.24 -0.08,4.86 a 1.38,1.38 0 0 1 -1.13,1.18 c -0.44,0 -0.88,0.1 -1.32,0.11 -1.18,0 -2.36,0 -3.54,0 q -77.22997,0 -154.47997,0 c -6.86,0 -5.89,0.72 -6,-5.8 0,-0.74 0,-1.47 0,-2.21 0.16,-0.24 0.25,-0.49 0.35,-1.14 z"
     id="path24" />
  <path
     class="cls-5"
     d="m 894.80553,262.21603 a 148,148 0 0 1 -16,0.07 c -0.07,-0.27 -0.27,-0.63 -0.17,-0.81 a 21.34,21.34 0 0 1 1.41,-2.22 q 35.08,-48.86 70.19,-97.69 l 17,-23.71 c 0.69,-1 1.37,-1.92 2,-2.88 a 1.74,1.74 0 0 0 0.09,-2.06 c -0.63,-1 -1.28,-2 -1.93,-3 l -26.76,-40.089997 q -26.64,-39.9 -53.25,-79.82 c -0.82,-1.2200001 -1.53,-2.5100001 -2.24,-3.7900001 -0.07,-0.13 0.2,-0.49 0.36,-0.69 0.16,-0.2 0.28,-0.1 0.43,-0.1 h 14.03 a 12,12 0 0 1 2.88,3.58 l 24.1,36.0000001 49.68,74.229997 a 12.57,12.57 0 0 0 2.31,3.05 c 1.11,-0.24 1.51,-1.09 2,-1.79 q 6.9,-9.48 13.76,-19 L 1061.9655,8.8560329 a 11.23,11.23 0 0 1 3,-3.41 c 5,0 10.18,0 15.34,0 a 0.86,0.86 0 0 1 0.67,0.38 0.94,0.94 0 0 1 0,0.82 c -0.56,0.87 -1.17,1.7 -1.79,2.52 q -9.07,12.2700001 -18.18,24.5100001 l -70.48997,95.249997 c -1,1.3 -1.9,2.62 -2.79,3.86 0,1.42 1,2.22 1.66,3.14 q 10.75997,14.87 21.56997,29.7 l 68.11,93.74 a 21.64,21.64 0 0 1 1.24,1.82 0.84,0.84 0 0 1 -0.73,1.21 c -4.86,0 -9.73,0 -14.6,0 a 2.9,2.9 0 0 1 -2.6,-1.34 c -2.63,-3.74 -5.29,-7.46 -7.92,-11.19 q -36,-50.94 -71.92997,-101.88 c -0.93,-1.32 -1.94,-2.58 -2.95,-3.83 a 0.76,0.76 0 0 0 -0.75,-0.07 22.29,22.29 0 0 0 -2,2.36 q -5.39,7.58 -10.72,15.17 l -68.65,97.15 a 17.6,17.6 0 0 1 -2.65,3.45 z"
     id="path26" />
</svg>
