<svg width="1920" height="846" viewBox="0 0 1920 846" fill="none" opacity="0.03" xmlns="http://www.w3.org/2000/svg">
<path d="M0 618C750 618 907.5 828 1520 828H1920" stroke="#00E1FF" stroke-width="35"/>
<path d="M0 518C750 518 907.5 728 1520 728H1920" stroke="#1AE4FF" stroke-width="35"/>
<path d="M0 418C750 418 907.5 628 1520 628H1920" stroke="#33E7FF" stroke-width="35"/>
<path d="M0 318C750 318 907.5 528 1520 528H1920" stroke="#4CEAFF" stroke-width="35"/>
<path d="M0 218C750 218 907.5 428 1520 428H1920" stroke="#66EDFF" stroke-width="35"/>
<path d="M0 118C750 118 907.5 328 1520 328H1920" stroke="#80F0FF" stroke-width="35"/>
<path d="M0 18C750 18 907.5 228 1520 228H1920" stroke="#80F0FF" stroke-width="35"/>
</svg>
