<svg width="46" height="36" viewBox="0 0 46 36" fill="none" xmlns="http://www.w3.org/2000/svg">
<path d="M38.9126 3.8087C35.9976 2.47116 32.8717 1.48572 29.6033 0.921313C29.5438 0.91042 29.4844 0.937642 29.4537 0.992086C29.0517 1.70711 28.6064 2.63993 28.2945 3.37311C24.7792 2.84683 21.2819 2.84683 17.8387 3.37311C17.5268 2.62363 17.0653 1.70711 16.6615 0.992086C16.6308 0.939458 16.5713 0.912237 16.5118 0.921313C13.2453 1.48391 10.1193 2.46935 7.2025 3.8087C7.17725 3.81958 7.15561 3.83775 7.14124 3.86132C1.21201 12.7195 -0.41225 21.3599 0.384559 29.8932C0.388164 29.9349 0.4116 29.9748 0.444049 30.0002C4.35599 32.8731 8.14536 34.6171 11.8644 35.7732C11.9239 35.7913 11.987 35.7695 12.0248 35.7205C12.9046 34.5192 13.6888 33.2524 14.3611 31.9203C14.4008 31.8423 14.363 31.7497 14.2819 31.7189C13.038 31.247 11.8536 30.6717 10.7142 30.0184C10.6241 29.9658 10.6169 29.8369 10.6998 29.7752C10.9396 29.5955 11.1794 29.4086 11.4083 29.2198C11.4497 29.1854 11.5074 29.1781 11.5561 29.1999C19.0411 32.6172 27.1444 32.6172 34.541 29.1999C34.5897 29.1763 34.6474 29.1836 34.6906 29.218C34.9196 29.4068 35.1594 29.5955 35.4009 29.7752C35.4838 29.8369 35.4784 29.9658 35.3883 30.0184C34.249 30.6844 33.0645 31.247 31.8189 31.7171C31.7378 31.7479 31.7017 31.8423 31.7414 31.9203C32.4282 33.2505 33.2124 34.5173 34.0759 35.7187C34.112 35.7695 34.1768 35.7913 34.2363 35.7732C37.9734 34.6171 41.7627 32.8731 45.6747 30.0002C45.7089 29.9748 45.7306 29.9367 45.7342 29.895C46.6878 20.0296 44.1369 11.46 38.9721 3.86313C38.9595 3.83775 38.9379 3.81958 38.9126 3.8087ZM15.4789 24.6973C13.2254 24.6973 11.3686 22.6284 11.3686 20.0877C11.3686 17.5469 13.1894 15.478 15.4789 15.478C17.7864 15.478 19.6252 17.5651 19.5891 20.0877C19.5891 22.6284 17.7683 24.6973 15.4789 24.6973ZM30.6759 24.6973C28.4225 24.6973 26.5657 22.6284 26.5657 20.0877C26.5657 17.5469 28.3864 15.478 30.6759 15.478C32.9834 15.478 34.8222 17.5651 34.7862 20.0877C34.7862 22.6284 32.9834 24.6973 30.6759 24.6973Z" fill="#5865F2"/>
</svg>
