<?xml version="1.0" encoding="utf-8"?>
<!-- Generator: Adobe Illustrator 24.1.2, SVG Export Plug-In . SVG Version: 6.00 Build 0)  -->
<svg version="1.1" xmlns="http://www.w3.org/2000/svg" xmlns:xlink="http://www.w3.org/1999/xlink" x="0px" y="0px"
	 viewBox="0 0 2533.1 3924.1" style="enable-background:new 0 0 2533.1 3924.1;" xml:space="preserve">
<style type="text/css">
	.st0{fill:#9A9A9A;}
	.st1{fill:#FFFFFF;}
</style>
<g id="Layer_2">
</g>
<g id="Layer_1">
	<g>
		<path class="st0" d="M294.1,1411.9l946.2-1338c17.9-16.9,72.2-63.6,155.9-72.4c115-12.1,195.2,57,208.5,68.9l886.2,723.4
			c50.3,72.8,56,167.4,14.9,245.8L1376.9,2295c59.3,28,83.1,100.4,53.6,156.4c-28.3,53.9-97.2,76.2-153.4,47.7
			c-121.4,80.1-233,104.9-295.9,114c-216.4,31.2-385.5-48.5-462.3-85.9c-80.4-39.3-154.5-90.2-220-151.2
			c-107.8-103.5-166-206.5-197-273c-27.6-59.3-57.2-124-64-211.2c-11.8-150.5,50.5-269.5,86.3-326.4c-50.4-46.9-49-127.3,0-171.3
			C173.1,1350.2,252.8,1357.3,294.1,1411.9z"/>
		<path class="st1" d="M1440.7,192.3l848.9,668.4c22.4,32.5,22.4,75.5,0,108L1196.8,2165.7l-754-633l899.5-1300.5
			c4.4-6.2,30.6-42.3,72.4-43.7C1423.5,188.3,1432.3,189.6,1440.7,192.3z"/>
		<circle class="st0" cx="186.2" cy="2661.8" r="93.1"/>
		<circle class="st0" cx="697.5" cy="3002.5" r="93.1"/>
		
			<ellipse transform="matrix(3.327796e-02 -0.9994 0.9994 3.327796e-02 -2866.2053 3615.1118)" class="st0" cx="435.6" cy="3289.2" rx="93.1" ry="93.1"/>
		<circle class="st0" cx="93.1" cy="3639.2" r="93.1"/>
		<circle class="st0" cx="712.9" cy="3831.1" r="93.1"/>
		<path class="st1" d="M264,1991.5c15.7-15.7,57.4,0.5,93,36.2c35.6,35.7,51.9,77.3,36.2,93.1s-57.4-0.5-93-36.2
			S248.3,2007.2,264,1991.5z"/>
		<path class="st1" d="M411.2,2253.7c15.7-15.7,57.3,0.5,93,36.2s51.9,77.4,36.2,93s-57.4-0.5-93-36.2S395.5,2269.4,411.2,2253.7z"
			/>
		<path class="st1" d="M689,2325.7c15.7-15.7,57.3,0.5,93,36.2s51.9,77.3,36.2,93.1s-57.4-0.5-93-36.2S673.3,2341.4,689,2325.7z"/>
	</g>
</g>
</svg>
