<svg id="Layer_1" xmlns="http://www.w3.org/2000/svg" viewBox="0 0 1806 606.56"><defs><style>.cls-1{fill:none;stroke:white;stroke-miterlimit:10;}</style></defs><path class="cls-1" d="M842.5,562.5l-738-56s-34-8-43-33l-12-94,8,100s14,28,44,34,233,24,233,24v15l3,3h12l2-4v-10l166,16v11l3,4h12.39l3.61-4v-9l96,11a52.41,52.41,0,0,1,16-3s0-9,9-9,11,9,11,9,18-1,38,16h8L852,610.63s.54-9.13-4.46-16.13a87.3,87.3,0,0,0-8-10,13.38,13.38,0,0,1-3-11l6-10Z" transform="translate(-49 -122.44)"/><path class="cls-1" d="M839.5,554.5" transform="translate(-49 -122.44)"/><path class="cls-1" d="M1061.5,562.5l203.6-15.45,534.4-40.55s34-8,43-33l12-94-8,100s-14,28-44,34-233,24-233,24v15l-3,3h-12l-2-4v-10l-166,16v11l-3,4h-12.39l-3.61-4v-9l-96,11a52.41,52.41,0,0,0-16-3s0-9-9-9-11,9-11,9-18-1-38,16h-8L1052,610.63s-.54-9.13,4.46-16.13a87.3,87.3,0,0,1,8-10,13.38,13.38,0,0,0,3-11l-6-10Z" transform="translate(-49 -122.44)"/><polygon class="cls-1" points="815.5 353.06 584.5 333.06 580.5 335.06 584.5 339.06 808.5 368.06 815.5 353.06"/><polygon class="cls-1" points="990.76 353.49 1221.77 333.49 1225.77 335.49 1221.77 339.49 997.76 368.49 990.76 353.49"/><ellipse class="cls-1" cx="903" cy="407.06" rx="100.5" ry="106"/><polyline class="cls-1" points="885.67 302.63 888.5 296.06 898.5 3.06 903 0.56 908.5 3.06 917.5 296.06 920.34 302.63"/><polygon class="cls-1" points="698.24 467.52 698.24 483.89 700.5 484.06 700.5 521.82 702.5 526.06 702.5 544.49 705.5 539.06 705.5 468.95 698.24 467.52"/><polygon class="cls-1" points="1108.07 467.3 1108.07 483.67 1105.81 483.84 1105.81 521.6 1103.81 525.84 1103.81 544.27 1100.81 538.84 1100.81 468.74 1108.07 467.3"/><polygon class="cls-1" points="708.23 469.49 708.23 571.3 705.5 571.3 705.5 560.6 701.87 560.78 701.87 550.56 698.24 546.12 682.5 546.06 679.5 550.06 679.5 600 681.5 605.06 698.24 605.06 701.87 600 701.87 590.41 705.5 590.56 705.5 579.97 717.5 580.06 717.5 590.63 721.5 590.06 721.5 600.34 725.5 605.06 742.22 605.06 744.5 600.06 744.5 551.12 741.5 546.06 724.5 546.06 721.5 551.06 721.5 560.06 719.5 560.06 718.5 560.06 718.5 571.06 715.5 571.06 715.5 539.06 719.5 539.06 719.5 535.06 717.5 532.06 717.5 528.06 769.98 481.68 763.43 480.39 716.5 521.06 716.66 471.16 708.23 469.49"/><polygon class="cls-1" points="1097.84 469.16 1097.84 570.97 1100.57 570.97 1100.57 560.27 1104.2 560.45 1104.2 550.23 1107.84 545.78 1123.57 545.73 1126.57 549.73 1126.57 599.67 1124.57 604.73 1107.84 604.73 1104.2 599.67 1104.2 590.08 1100.57 590.23 1100.57 579.64 1088.57 579.73 1088.57 590.3 1084.57 589.73 1084.57 600.01 1080.57 604.73 1063.85 604.73 1061.57 599.73 1061.57 550.78 1064.57 545.73 1081.57 545.73 1084.57 550.73 1084.57 559.73 1086.57 559.73 1087.57 559.73 1087.57 570.73 1090.57 570.73 1090.57 538.73 1086.57 538.73 1086.57 534.73 1088.57 531.73 1088.57 527.73 1036.09 481.35 1042.64 480.06 1089.57 520.73 1089.42 470.83 1097.84 469.16"/><polygon class="cls-1" points="716.65 473.97 748.01 493.75 745.87 495.61 716.65 477.37 716.65 473.97"/><polygon class="cls-1" points="1089.5 473.33 1058.14 493.12 1060.28 494.97 1089.5 476.74 1089.5 473.33"/><polygon class="cls-1" points="1049.02 479.12 1066.36 487.93 1064.22 489.28 1045.88 479.73 1049.02 479.12"/><polygon class="cls-1" points="756.49 479.01 739.15 487.82 741.29 489.17 759.63 479.63 756.49 479.01"/><polygon class="cls-1" points="903 513.06 898.66 513.06 898.5 519.06 885.7 511.49 881.16 510.55 881.16 516.67 898.5 538.06 898.5 547.06 896.55 547.06 896.5 545.06 893.5 545.06 891.5 547.06 891.5 550.06 894.5 552.06 896.33 552.06 896.5 549.06 898.5 549.06 898.5 577.06 900.29 577.06 900.5 582.06 898.5 583.06 898.5 585.06 894.39 585.06 894.5 572.06 891.5 569.06 888.5 569.06 885.5 572.06 885.5 604.06 887.5 606.06 892.08 606.06 894.5 603.06 894.5 590.06 898.5 590.06 902.5 591.06 903.5 591.06 907.5 590.06 911.5 590.06 911.5 603.06 913.5 606.06 918.5 606.06 920.5 603.06 920.5 570.78 917.5 568.06 914.5 568.06 911.5 571.06 911.5 585.06 907.5 585.06 907.5 583.06 905.5 582.06 905.5 577.06 907.5 577.06 907.5 563.06 912 558.3 910.5 553.06 912.5 552.06 914.5 549.06 914.5 547.06 912.5 545.06 909.5 545.06 909.5 547.06 907.5 547.06 907.5 538.06 924.5 516.06 924.5 510.55 921.77 511.21 907.5 519.06 907.48 512.96 903 513.06"/><path class="cls-1" d="M852,540s1.51,15.5-9.49,23.5" transform="translate(-49 -122.44)"/><path class="cls-1" d="M852,610.63S848.5,640.5,883.5,643.5l51.24,1.25" transform="translate(-49 -122.44)"/><path class="cls-1" d="M1052,610.63s2.46,28.87-24.54,31.87l-58.83,2.25" transform="translate(-49 -122.44)"/><line class="cls-1" x1="865.1" y1="355.29" x2="855.5" y2="384.06"/><line class="cls-1" x1="861.69" y1="355" x2="850.38" y2="385.1"/><line class="cls-1" x1="940.74" y1="355.04" x2="950.67" y2="383.89"/><line class="cls-1" x1="944.41" y1="354.72" x2="956.02" y2="385.18"/><line class="cls-1" x1="854.38" y1="354.37" x2="828.37" y2="391.52"/><line class="cls-1" x1="851.78" y1="354" x2="825.56" y2="391.81"/><polyline class="cls-1" points="951.63 354 975.5 391.06 975.87 391.53"/><line class="cls-1" x1="954.15" y1="353.78" x2="979.5" y2="392.06"/><polyline class="cls-1" points="905.67 358.06 905.5 380.06 912.5 385.06 913.61 385.73"/><polyline class="cls-1" points="899.83 358.06 899.83 379.89 892.29 385.67"/><path class="cls-1" d="M632.5,570.5s-13,5-21,14l-10-10h-2v1.83l10,10.17s-20,16-18,49c0,0-1,59,63,66,0,0,39,3,61-29s8-64,8-64-8-16-13-21l-5-5h0s-18-15-37-15c0,0-2-9-11-9s-9,9-9,9A56,56,0,0,0,632.5,570.5Z" transform="translate(-49 -122.44)"/><path class="cls-1" d="M1271.5,570.5s13,5,21,14l10-10h2v1.83l-10,10.17s20,16,18,49c0,0,1,59-63,66,0,0-39,3-61-29s-8-64-8-64,8-16,13-21l5-5h0s18-15,37-15c0,0,2-9,11-9s9,9,9,9A56,56,0,0,1,1271.5,570.5Z" transform="translate(-49 -122.44)"/><ellipse class="cls-1" cx="611" cy="511.56" rx="63.5" ry="62.5"/><ellipse class="cls-1" cx="1195" cy="510.56" rx="63.5" ry="62.5"/><circle class="cls-1" cx="611.5" cy="512.06" r="57"/><circle class="cls-1" cx="1195.5" cy="511.06" r="57"/><circle class="cls-1" cx="611.5" cy="510.06" r="5"/><circle class="cls-1" cx="1194.5" cy="510.06" r="5"/><ellipse class="cls-1" cx="611" cy="510.06" rx="14.5" ry="14"/><ellipse class="cls-1" cx="1195" cy="510.06" rx="14.5" ry="14"/><line class="cls-1" x1="589.31" y1="424.57" x2="589.31" y2="446.36"/><path class="cls-1" d="M815.44,560.45s-21.94,9-3.94,26l-130-17c-12-14,3.61-18.94,3.61-18.94Z" transform="translate(-49 -122.44)"/><path class="cls-1" d="M1087.77,560.6s21.94,9,3.94,26l130-17c12-14-3.61-18.94-3.61-18.94Z" transform="translate(-49 -122.44)"/><line class="cls-1" x1="1216.16" y1="446.24" x2="1216.1" y2="424.61"/><path class="cls-1" d="M886.93,448.72l6.57.78s-45,46-36,100l-4,1.06" transform="translate(-49 -122.44)"/><path class="cls-1" d="M1016.73,448.76l-6.58.77s45,46,36,100l4,1.06" transform="translate(-49 -122.44)"/><line class="cls-1" x1="701.87" y1="560.78" x2="701.87" y2="590.41"/><line class="cls-1" x1="721.5" y1="560.06" x2="721.5" y2="590.06"/><line class="cls-1" x1="911.5" y1="585.06" x2="911.5" y2="590.06"/><line class="cls-1" x1="894.39" y1="585.06" x2="894.5" y2="590.06"/><line class="cls-1" x1="1104.21" y1="560.45" x2="1104.21" y2="590.08"/><line class="cls-1" x1="1084.57" y1="559.73" x2="1084.57" y2="589.73"/><path class="cls-1" d="M930.17,633l.33-7.49s21.33,6,42.17,0l.83,7.49" transform="translate(-49 -122.44)"/><line class="cls-1" x1="903" y1="513.06" x2="903" y2="505.72"/><path class="cls-1" d="M893.5,553.5h-6.94s-.19,15.06,6.94,22l3.78.06S892.5,564.5,893.5,553.5Z" transform="translate(-49 -122.44)"/><path class="cls-1" d="M1010.45,553.5h6.94s.18,15.06-6.94,22l-3.78.06S1011.45,564.5,1010.45,553.5Z" transform="translate(-49 -122.44)"/><circle class="cls-1" cx="902.5" cy="437.06" r="29"/><path class="cls-1" d="M952.5,481l-53.09-4.56s-15.19-1.35-30.73,35.46c0,0-.66,5.76,17.58.18L903,506.5l49.5,2.06" transform="translate(-49 -122.44)"/><path class="cls-1" d="M951.57,481.07l53.09-4.55s15.19-1.36,30.73,35.45c0,0,.66,5.76-17.58.18l-16.74-5.58-49.5,2.06" transform="translate(-49 -122.44)"/></svg>
