<svg xmlns="http://www.w3.org/2000/svg" xmlns:xlink="http://www.w3.org/1999/xlink" viewBox="0 0 328.05 334.85"><defs><style>.cls-1{fill:none;}.cls-2{fill:#751d28;}.cls-3{fill:#8e202d;}.cls-4{fill:#efefef;}.cls-5,.cls-6{fill:#fff;}.cls-6{opacity:0.06;}.cls-7{clip-path:url(#clip-path);}.cls-8{fill:#eaeaea;}.cls-9{clip-path:url(#clip-path-2);}.cls-10{clip-path:url(#clip-path-3);}</style><clipPath id="clip-path" transform="translate(18.74)"><path class="cls-1" d="M232,119.41s.1,1.14.22,3.13c.73,11.35,2.38,50.15-8,60.4,0,0-170.16-39.89-224.3-19.08,0,0,3.21-39.86,26.41-59.58S213.25,104.07,232,119.41Z"/></clipPath><clipPath id="clip-path-2" transform="translate(18.74)"><path class="cls-1" d="M303.54,293.87a35.36,35.36,0,0,1-70.72,0,34.6,34.6,0,0,1,5.09-18.12,35.42,35.42,0,0,1,65.63,18.12Z"/></clipPath><clipPath id="clip-path-3" transform="translate(18.74)"><path class="cls-1" d="M272.35,259.06s26.06-117.68,22.83-145.57c-3.55-30.71-8.42-88.57-86.84-96.18s-146.15,79-146.15,79L232,119.41a22.87,22.87,0,0,1,4.52-6.51c2.4-2.25,5.56-5,8.55-2,10.75,10.59,17.05,148.44,17.05,148.44Z"/></clipPath></defs><g id="Christmas_Hat" data-name="Christmas Hat"><path class="cls-2" d="M27.29,104.35S127.1-6.55,201.79.3c66.39,6.1,156.29,43.32,75.63,260.21l-15.23-.68s-5.39-137.46-17-149c-5.53-5.48-13.15,8.55-13.15,8.55L26.41,104.28" transform="translate(18.74)"/><path class="cls-3" d="M272.44,259.26s26.05-117.68,22.83-145.58c-3.56-30.7-8.43-88.56-86.84-96.17s-146.16,79-146.16,79L232.12,119.6s7.45-14.71,13.15-8.55c10.58,11.43,17,148.47,17,148.47Z" transform="translate(18.74)"/><path class="cls-4" d="M37.21,99.53" transform="translate(18.74)"/><path class="cls-5" d="M232,119.41s.1,1.14.22,3.13c.73,11.35,2.38,50.15-8,60.4,0,0-170.16-39.89-224.3-19.08,0,0,3.21-39.86,26.41-59.58S213.25,104.07,232,119.41Z" transform="translate(18.74)"/><ellipse class="cls-5" cx="286.91" cy="293.87" rx="35.36" ry="35.05"/><path class="cls-6" d="M244.63,73.64A7.11,7.11,0,0,1,246,76.06c2.22,6.16,13.15,34.53,22.17,23.47,7.09-8.71,7.4-30.27-2.5-47.69-9.49-16.71-60.34-38.17-102.63-13.13s-28,45.52-15.57,49.06c23.69,6.77,40.86-.72,49.74-5.07C208.54,77.15,235.16,63.11,244.63,73.64Z" transform="translate(18.74)"/><g class="cls-7"><path class="cls-8" d="M46.73,97.72S15,145.72,31.6,145.8c18.79.1,184.57,7.95,201.22,23.52L230,190.38S-2.89,168.22-3.44,169.16s-15.3-33.91-15.3-35,51.27-48.06,50.5-48.06S46.73,97.72,46.73,97.72Z" transform="translate(18.74)"/></g><g class="cls-9"><path class="cls-8" d="M246.51,266.18s-23.9,46.54,32.69,61-41.88,4-41.88,4l-17.26-51.77Z" transform="translate(18.74)"/></g><g class="cls-10"><path class="cls-2" d="M247.36,116.56c0-5.82,5.33-9.4,5.33-9.4a35.7,35.7,0,0,0-11.44,2,1.4,1.4,0,0,0-.33,2.42Z" transform="translate(18.74)"/></g></g></svg>