<svg id="Layer_1" data-name="Layer 1" xmlns="http://www.w3.org/2000/svg" xmlns:xlink="http://www.w3.org/1999/xlink" viewBox="0 0 1746.58 361.81"><defs><style>.cls-1{fill:none;}.cls-2{fill:#01c2cb;}.cls-3{fill:#649aae;}.cls-4{fill:#595757;}.cls-5{fill:#679aaf;}.cls-6{fill:#585858;}.cls-7{fill:#06c4cc;}.cls-8{fill:#679bb0;}.cls-9{fill:#05c4cd;}.cls-10{fill:#06c2cb;}.cls-11{fill:#595555;}.cls-12{fill:#565959;}.cls-13{fill:#595858;}.cls-14{fill:#751d28;}.cls-15{fill:#8e202d;}.cls-16{fill:#efefef;}.cls-17,.cls-18{fill:#fff;}.cls-18{opacity:0.06;}.cls-19{clip-path:url(#clip-path);}.cls-20{fill:#eaeaea;}.cls-21{clip-path:url(#clip-path-2);}.cls-22{clip-path:url(#clip-path-3);}</style><clipPath id="clip-path" transform="translate(0 -0.59)"><path class="cls-1" d="M1701.62,81.28s.05.67.13,1.82c.42,6.6.47,30.11-5.54,36.08,0,0-98-23.84-129.46-11.73,0,0,1.74-23.5,15.24-35S1690.69,72.36,1701.62,81.28Z"/></clipPath><clipPath id="clip-path-2" transform="translate(0 -0.59)"><path class="cls-1" d="M1743.21,182.77a20.57,20.57,0,0,1-41.14,0,20.17,20.17,0,0,1,3-10.54,20.61,20.61,0,0,1,38.18,10.54Z"/></clipPath><clipPath id="clip-path-3" transform="translate(0 -0.59)"><path class="cls-1" d="M1725.07,162.53s15.16-68.47,13.28-84.69c-2.07-17.87-4.9-51.53-50.52-56s-85,46-85,46l98.81,13.43a13.17,13.17,0,0,1,2.63-3.78c1.39-1.32,3.23-2.89,5-1.18,6.26,6.16,9.92,86.36,9.92,86.36Z"/></clipPath></defs><path id="path8" class="cls-2" d="M199.89,287.54c-.73.09-1.46.23-2.19.26H5.68c-1.47,0-2.94-.06-4.42-.1a1.37,1.37,0,0,1-1.18-1.1c0-.15-.07-.29-.08-.43V273.34a1.87,1.87,0,0,1,1.5-1.91l10.19-3c10.47-3.06,20.82-6.47,31-10.55A204.87,204.87,0,0,0,83.5,236.05a181.42,181.42,0,0,0,31.14-27.36,198.94,198.94,0,0,0,25-34.71q11.09-19.38,21.43-39.18,25.41-48.32,50.73-96.68C215,32,218.19,25.83,221.41,19.7c.75-1.44,1.51-2.88,2.39-4.24a31.13,31.13,0,0,1,22.3-14.4,37.9,37.9,0,0,1,5.73-.41h38.93a12,12,0,0,1,4,.29c.23,1.85-.63,3.46-1.18,5.12q-7,21.17-14.08,42.31L201.08,283.28c-.46,1.41-.79,2.85-1.19,4.26Z" transform="translate(0 -0.59)"/><path id="path10" class="cls-3" d="M199.89,287.54c.4-1.41.73-2.85,1.19-4.24L279.5,48.39q7-21.15,14.08-42.31c.55-1.66,1.41-3.27,1.18-5.12a19.08,19.08,0,0,1,2.6-.34h34.95a8.08,8.08,0,0,1,2.13.38c.23.06.43.39.53.64a1.79,1.79,0,0,1,.06.86c-.95,5.66-1.93,11.31-2.87,17l-3,18.31c-.72,4.35-1.49,8.7-2.22,13s-1.44,8.71-2.16,13.07-1.43,8.71-2.16,13.06-1.48,8.71-2.22,13.06c-.81,4.79-1.63,9.57-2.42,14.37l-3,18.3c-.72,4.35-1.49,8.7-2.22,13s-1.43,8.72-2.16,13.07l-2.27,13.5c-.72,4.35-1.43,8.71-2.16,13.06l-2.27,13.5-2.16,13.07c-.72,4.35-1.43,8.71-2.16,13.06l-2.26,13.5-2.17,13.06L292.89,255l-2.17,13.07q-1.12,6.75-2.27,13.49c-.19,1.16-.47,2.31-.64,3.48-.39,2.59-.66,2.75-3.5,2.74H204.24a43.08,43.08,0,0,1-4.35-.28Z" transform="translate(0 -0.59)"/><path id="path14" class="cls-4" d="M1220.18,103.21c-.62,2-1.27,4-1.84,5.92q-16.08,55.14-32.15,110.29-8.78,30.12-17.63,60.22c-1.4,4.75-.44,4.19-5.58,4.21h-12.4a10.35,10.35,0,0,1-1.76-.12,1,1,0,0,1-.66-.52c-.35-.81-.67-1.63-.94-2.47l-46.75-146.47-13.8-43.37c-.35-1.12-.68-2.26-1-3.39a1,1,0,0,1,.67-1c.14,0,.28-.09.42-.09h13.72a1.59,1.59,0,0,1,1.63,1.22l3.91,12.67,23.21,75.6,26.94,87.87c.38,1.26.86,2.49,1.31,3.73,0,.1.22.16.34.22.34.16.61.1.71-.2.39-1.11.8-2.21,1.13-3.34l24.77-85.28,25.75-88.68c.28-1,.68-1.94,1-2.91a7,7,0,0,1,1.34-.3H1228a5.14,5.14,0,0,1,.88.07,1.48,1.48,0,0,1,1.32,1c.62,2,1.23,3.94,1.81,5.91l23.8,81,25.93,88.17c.41,1.41.85,2.81,1.32,4.37.45-.31,1-.47,1.06-.77q1.45-4.41,2.77-8.85,20.79-69.42,41.55-138.83c2.83-9.46,5.62-18.92,8.44-28.38.32-1.13.7-2.24,1.13-3.33.15-.35.62-.57,1-.83a.8.8,0,0,1,.43-.07h12.83a1,1,0,0,1,.93,1.06.77.77,0,0,1,0,.15c-.28,1-.56,2-.87,3l-7.87,24.86-43,135.6q-4.6,14.53-9.17,29.08c-.27.84-.54,1.68-.85,2.51a1.73,1.73,0,0,1-1.72,1.15h-14.6c-1,0-1.53-.51-1.86-1.57s-.6-2-.89-3l-21.47-73.81q-14.58-50.06-29.2-100.1a7.32,7.32,0,0,0-.65-1.62c-.16-.25-.5-.35-.86-.58Z" transform="translate(0 -0.59)"/><path id="path16" class="cls-5" d="M721.78,146.37V14.56c0-1.47,0-2.94.1-4.41a1.72,1.72,0,0,1,1.78-1.61h11.06a1.62,1.62,0,0,1,1.61,1.61s0,.08,0,.12V120.83c0,1.48,0,3,.06,4.43a2,2,0,0,0,.31.71c.16.29.6,0,1-.68,2-3.79,3.94-7.59,5.93-11.37,1.1-2.09,2.28-4.13,3.33-6.24a17.69,17.69,0,0,1,3.13-4.25A70.44,70.44,0,0,1,767.55,90a67.41,67.41,0,0,1,22.12-7.39,105.17,105.17,0,0,1,19.81-1.44c12.51.46,24.56,2.9,35.82,8.61a77.9,77.9,0,0,1,24.78,19.63,97.44,97.44,0,0,1,18.86,36.19,126.53,126.53,0,0,1,4,19.46,106.06,106.06,0,0,1,1.09,15c0,2.95.06,5.9-.06,8.84-.22,5.3-.73,10.57-1.43,15.84A115.6,115.6,0,0,1,889.75,219a104.7,104.7,0,0,1-12.23,29.25,84.15,84.15,0,0,1-40.92,34.41A91.6,91.6,0,0,1,817,288c-6.6,1.09-13.22,1-19.85.9a72.07,72.07,0,0,1-22.52-4.08,64.59,64.59,0,0,1-26.39-17.25,14,14,0,0,1-2.33-3.73q-3.51-7.38-7-14.75c-.45-.93-1-1.83-1.49-2.71-.1-.16-.48-.16-.74-.18a1,1,0,0,0-.17.34c0,1.32-.11,2.64-.12,4v29.63c0,3.36-.06,3.89-3.63,3.87h-8c-2.69,0-2.94-.43-3-3.18V146.37Zm14.61,40.16h0V199.8a113.06,113.06,0,0,0,1.88,20.2,80.55,80.55,0,0,0,8.94,25.76A59.17,59.17,0,0,0,775,271.35a68.56,68.56,0,0,0,28.37,5.79,64.66,64.66,0,0,0,7.48-.62,82.68,82.68,0,0,0,8.3-1.26,69,69,0,0,0,21.53-9,64,64,0,0,0,9.78-7.56c9.49-8.82,16-19.55,20.61-31.54,4.66-12.24,6.63-25,7-38a129,129,0,0,0-.55-16.33,141.26,141.26,0,0,0-3-18.73,97,97,0,0,0-8.94-23.94,71.71,71.71,0,0,0-20.26-24.22,59.31,59.31,0,0,0-20.5-10.08,73.73,73.73,0,0,0-19.21-2.57A98.26,98.26,0,0,0,795.5,94a69.27,69.27,0,0,0-16.74,3.88,57.13,57.13,0,0,0-26.5,19.85,67.31,67.31,0,0,0-8.72,15.83A97.82,97.82,0,0,0,738,154.4a128,128,0,0,0-1.65,19.35Z" transform="translate(0 -0.59)"/><path id="path18" class="cls-6" d="M1708.22,222.76a9.57,9.57,0,0,1-.11,1.41,89.49,89.49,0,0,1-17.23,35c-11.18,13.71-25.48,22.55-42.56,27a90.11,90.11,0,0,1-32,2.5c-22.67-2.26-41.35-12.09-55.56-30A93.87,93.87,0,0,1,1545,228.21a125.44,125.44,0,0,1-4.77-22,164.83,164.83,0,0,1-1.43-23.81c.3-15.45,2.86-30.49,8.72-44.86a93.27,93.27,0,0,1,22.25-33.15,82.68,82.68,0,0,1,43.64-21.82,87.48,87.48,0,0,1,26.44-.63c21,2.78,38.17,12.4,51.06,29.39a96.22,96.22,0,0,1,14.86,29.36,118.59,118.59,0,0,1,4.77,22.44,140.75,140.75,0,0,1,.8,23,17.38,17.38,0,0,1-.14,1.76c-.08.82-.55,1.23-1.49,1.25H1560.19c-1.48,0-3,0-4.42.06a1.69,1.69,0,0,0-1.77,1.62,1.56,1.56,0,0,0,0,.43c.15,2.8.27,5.6.55,8.38a121.33,121.33,0,0,0,7.22,31.79A77.93,77.93,0,0,0,1574,252.78a63.38,63.38,0,0,0,37.82,22.91,71.59,71.59,0,0,0,40.83-3.68c13.94-5.5,24.57-14.94,32.28-27.72a81.07,81.07,0,0,0,7.59-16.89c.37-1.12.67-2.26,1-3.38s.8-1.52,1.85-1.53h11.06a10.51,10.51,0,0,1,1.77.27Zm-82.87-46h69.9c1.11,0,1.67-.59,1.63-1.59a7.31,7.31,0,0,0-.08-1.32c-.48-4.39-.68-8.8-1.33-13.19a110.54,110.54,0,0,0-5.65-22.66,77.07,77.07,0,0,0-10.16-19,60.59,60.59,0,0,0-23.61-19.49,66.06,66.06,0,0,0-40.15-5.07,68.86,68.86,0,0,0-37.36,19.63A78.71,78.71,0,0,0,1560,143.83a104.66,104.66,0,0,0-5.69,27.16c-.49,6.45-1.1,5.82,5.59,5.83q32.68,0,65.43-.07Z" transform="translate(0 -0.59)"/><path id="path28" class="cls-7" d="M535.43,361.07c-.06-.93-.18-1.79-.18-2.66,0-2.65,0-5.31.08-8a1.23,1.23,0,0,1,1.3-1.18.91.91,0,0,1,.23,0,1.09,1.09,0,0,1,.44.06,61.89,61.89,0,0,0,15.44.53,28.58,28.58,0,0,0,14.37-5.25,44.53,44.53,0,0,0,9.29-8.79A93.52,93.52,0,0,0,586,321a200.8,200.8,0,0,0,9.55-20.9c1.47-3.7,2.9-7.41,4.3-11a19.78,19.78,0,0,0-1.77-5.62q-8.39-21.89-16.85-43.73L541,135.38,523.53,90c-.32-.82-.58-1.67-.86-2.51a.9.9,0,0,1,.6-1c.44,0,.87-.14,1.31-.14h11.95a11.72,11.72,0,0,1,1.45.18A12.6,12.6,0,0,1,539,88.33c1,2.61,2,5.25,2.92,7.87l42.71,115.25,20.88,56.38c.35,1,.79,1.89,1.21,2.83a.42.42,0,0,0,.33.2c.25,0,.64-.1.72-.27q.66-1.39,1.2-2.85l42.64-115.27q11.42-30.89,22.88-61.77a30.49,30.49,0,0,1,1.1-2.89,9.49,9.49,0,0,1,1-1.44h14.21c.83,0,1.18.69.87,1.59-.24.7-.49,1.39-.76,2.08l-7,18.15-34.47,89.53Q632.25,242.5,615,287.26c-4,10.31-8.15,20.55-13,30.48a152.57,152.57,0,0,1-13.33,22.9,72.51,72.51,0,0,1-9.32,10.64,40,40,0,0,1-16.76,9.51,37.72,37.72,0,0,1-7.82,1.39,106.2,106.2,0,0,1-14.16-.1,14.28,14.28,0,0,1-5.2-1Z" transform="translate(0 -0.59)"/><path id="path30" class="cls-8" d="M1062.83,86.69a15.78,15.78,0,0,1,2.16-.29h9.74c4.08,0,4.49-.28,2.83,3.95-4.36,11.11-8.57,22.28-12.85,33.42l-14.9,38.79q-5.79,15.06-11.61,30.11l-14.92,38.78-11.45,29.7-10.63,27.64q-4,10.53-8.64,20.83c-2.23,5-4.55,9.91-7.11,14.73a127.36,127.36,0,0,1-11,17.63A61.48,61.48,0,0,1,963.2,353.8a39.28,39.28,0,0,1-23.69,8.58c-3.84.06-7.67,0-11.51-.1a22.84,22.84,0,0,1-3.09-.24c-2.91-.46-3.2-.82-3.18-3.68v-7.52a1.36,1.36,0,0,1,1.69-1.5c4.23.9,8.52.71,12.79.74a29.9,29.9,0,0,0,19.22-6.75,46.9,46.9,0,0,0,7.51-7.46,108.4,108.4,0,0,0,13-21.5c3.42-7.19,6.28-14.63,9.21-22a14.88,14.88,0,0,0,.89-2.5,5.29,5.29,0,0,0,0-2.17,14.74,14.74,0,0,0-.88-2.49q-10.69-27.85-21.41-55.71-8.84-22.89-17.71-45.76-7.49-19.4-14.91-38.79L919.94,115.6l-9.71-25.16c-.37-1-.63-2-.93-2.94a1.14,1.14,0,0,1,.69-1c.44,0,.87-.15,1.31-.16h12A2.29,2.29,0,0,1,925.57,88l.92,2.48q8.29,22.4,16.59,44.77c3.53,9.54,7,19.09,10.55,28.62l15.86,42.68q4.92,13.26,9.81,26.54l13.18,35.65a11,11,0,0,0,1,1.93.81.81,0,0,0,.71-.06,7.1,7.1,0,0,0,.83-1.53l8.15-22,17.08-46c3.53-9.54,7-19.09,10.54-28.63q8-21.56,16-43.09,3.76-10.16,7.47-20.34t7.57-20.29c.34-.63.66-1.29,1-2Z" transform="translate(0 -0.59)"/><path id="path32" class="cls-9" d="M442.94,3.31a3.89,3.89,0,0,1,.5,1.23v9.72a1.09,1.09,0,0,1-1.09,1.09h0c-1-.12-2-.25-3.06-.41a55.34,55.34,0,0,0-14.54-.57,32.66,32.66,0,0,0-6.48,1.38,24.18,24.18,0,0,0-15.59,14.6,37.54,37.54,0,0,0-2.58,10.7,179.33,179.33,0,0,0-.85,18.54c.09,8.11,0,16.22,0,24.32A21.13,21.13,0,0,0,399.4,87a1.29,1.29,0,0,0,.86.84,29.66,29.66,0,0,0,3.52.19h31c5.47,0,5.06-.47,5.07,4.92,0,1.92,0,3.83-.06,5.75a1.44,1.44,0,0,1-1.46,1.35c-1.33,0-2.66.06-4,.06h-31c-4.2,0-4.15-.12-4.12,4.12V278.46c0,6.05.74,5.4-5.41,5.43-2.51,0-5-.05-7.52-.1a1.29,1.29,0,0,1-1.18-1.09c0-.44-.08-.88-.08-1.32V105.83c0-1.62-.08-3.23-.18-4.85a.91.91,0,0,0-.58-.61,10,10,0,0,0-2.18-.24H365.27a1.52,1.52,0,0,1-1.57-1.47,1.15,1.15,0,0,1,0-.26V89.56a1.39,1.39,0,0,1,1.38-1.4h0c1,0,2.07-.06,3.1-.06h15c1.18,0,1.69-.56,1.71-1.55V56a157.74,157.74,0,0,1,.87-17.66,46.65,46.65,0,0,1,5.52-17.67c5.94-10.63,15-16.7,27-18.58a61.71,61.71,0,0,1,15-.24c1.91.17,3.83.34,5.72.62a32.24,32.24,0,0,1,3.88.82Z" transform="translate(0 -0.59)"/><path id="path34" class="cls-10" d="M472.48,138V14.18c0-1.47,0-2.94.11-4.41a1.34,1.34,0,0,1,1.15-1.15c1.32,0,2.65-.09,4-.1h6.64c1.9,0,2.29.43,2.33,2.36V241.24c0,5.6.13,11.2.17,16.8a29.68,29.68,0,0,0,.81,6.57,17.12,17.12,0,0,0,1.25,3.76,8.64,8.64,0,0,0,5.2,4.51,16,16,0,0,0,5.64.94c2.65-.07,5.3-.17,8-.26a1.37,1.37,0,0,1,1,.73c0,.3.09.59.09.88v7.52c0,1.5-.6,2.21-2,2.38-5.72.68-11.45,1.17-17.19.26a31.91,31.91,0,0,1-4.3-1,16,16,0,0,1-10-8.81,28.35,28.35,0,0,1-2.53-11.13c-.17-3.83-.22-7.66-.27-11.5v-11Z" transform="translate(0 -0.59)"/><path id="path36" class="cls-11" d="M1465.68,283.34a3.93,3.93,0,0,1-2.64.5c-3.67-.11-7.35.3-11-.27a7.37,7.37,0,0,1-.32-1.39V92c0-1.47,0-2.94.1-4.41a1.26,1.26,0,0,1,1.14-1.14h11.5a1.37,1.37,0,0,1,1.46,1.3v0c0,1.33.06,2.65.06,4v30.51a11.15,11.15,0,0,0,.31,2.06s.37.07.41,0a19.41,19.41,0,0,0,1-1.92c2.47-5.67,5-11.34,7.37-17a22.85,22.85,0,0,1,3.47-5.61,50,50,0,0,1,21.18-15.46,45.45,45.45,0,0,1,21.72-2.74c1.31.16,2.62.36,3.92.58a1.52,1.52,0,0,1,1.08,1.26v9.28c0,.79-.59,1.26-1.48,1.26h-4.86a53.83,53.83,0,0,0-12.7,1.54A45.38,45.38,0,0,0,1479.87,115a69.57,69.57,0,0,0-8.47,17.92,105.07,105.07,0,0,0-3.69,16.35,174,174,0,0,0-1.77,26q.06,51.74,0,103.48a14.25,14.25,0,0,1-.26,4.64Z" transform="translate(0 -0.59)"/><path id="path38" class="cls-12" d="M1382.94,185.3V92c0-1.48.06-3,.12-4.42a1.31,1.31,0,0,1,1.17-1.11h11.92c.51,0,1,.62,1.08,1.21a9.92,9.92,0,0,1,.1,1.32v188.8c0,1.62,0,3.24-.1,4.86a1.27,1.27,0,0,1-1.17,1.09h-11.93a1.36,1.36,0,0,1-1.13-1.16c0-1.48-.06-3-.06-4.42Z" transform="translate(0 -0.59)"/><path id="path40" class="cls-13" d="M1389.78,56.18a10.81,10.81,0,1,1,.35,0Z" transform="translate(0 -0.59)"/><path class="cls-14" d="M1582.51,72.52S1640.57,8,1684,12c38.62,3.55,90.92,25.2,44,151.38l-8.86-.4s-3.14-80-9.89-86.66c-3.22-3.19-7.65,5-7.65,5L1582,72.48" transform="translate(0 -0.59)"/><path class="cls-15" d="M1725.12,162.64S1740.28,94.18,1738.4,78c-2.06-17.86-4.9-51.52-50.52-55.95s-85,46-85,46l98.81,13.43s4.33-8.57,7.65-5c6.15,6.65,9.88,86.37,9.88,86.37Z" transform="translate(0 -0.59)"/><path class="cls-16" d="M1588.28,69.72" transform="translate(0 -0.59)"/><path class="cls-17" d="M1701.62,81.28s.05.67.13,1.82c.42,6.6,1.38,29.18-4.63,35.14,0,0-99-23.21-130.49-11.1,0,0,1.86-23.19,15.36-34.66S1690.69,72.36,1701.62,81.28Z" transform="translate(0 -0.59)"/><ellipse class="cls-17" cx="1722.64" cy="182.18" rx="20.57" ry="20.39"/><path class="cls-18" d="M1708.94,54.66a4.17,4.17,0,0,1,.81,1.4c1.29,3.58,7.65,20.09,12.89,13.66,4.13-5.07,4.31-17.61-1.45-27.75-5.52-9.72-35.1-22.2-59.71-7.64s-16.27,26.49-9,28.55c13.78,3.93,23.77-.42,28.93-3C1688,56.7,1703.43,48.53,1708.94,54.66Z" transform="translate(0 -0.59)"/><g class="cls-19"><path class="cls-20" d="M1593.82,68.66s-18.46,27.93-8.81,28c10.93,0,107.38,4.62,117.06,13.68l-1.66,12.25S1565,109.68,1564.63,110.22s-8.9-19.72-8.9-20.37,29.82-28,29.38-28S1593.82,68.66,1593.82,68.66Z" transform="translate(0 -0.59)"/></g><g class="cls-21"><path class="cls-20" d="M1710,166.67s-13.9,27.07,19,35.48-24.36,2.36-24.36,2.36l-10-30.12Z" transform="translate(0 -0.59)"/></g><g class="cls-22"><path class="cls-14" d="M1710.53,79.62c0-3.38,3.1-5.46,3.1-5.46a20.64,20.64,0,0,0-6.65,1.19.82.82,0,0,0-.2,1.41Z" transform="translate(0 -0.59)"/></g></svg>