<?xml version="1.0" standalone="no"?>
<!DOCTYPE svg PUBLIC "-//W3C//DTD SVG 20010904//EN"
 "http://www.w3.org/TR/2001/REC-SVG-20010904/DTD/svg10.dtd">
<svg version="1.0" xmlns="http://www.w3.org/2000/svg"
 width="1024.000000pt" height="1024.000000pt" viewBox="0 0 1024.000000 1024.000000"
 preserveAspectRatio="xMidYMid meet">
<metadata>
Created by potrace 1.14, written by Peter Selinger 2001-2017
</metadata>
<g transform="translate(0.000000,1024.000000) scale(0.100000,-0.100000)"
fill="#000000" stroke="none">
<path d="M7670 9915 c-38 -7 -166 -28 -170 -27 -3 0 -12 -4 -21 -9 -9 -4 -30
-11 -46 -13 -17 -3 -57 -17 -89 -32 -32 -14 -60 -25 -62 -24 -3 2 -109 -54
-172 -91 -19 -12 -36 -25 -38 -30 -2 -5 -8 -9 -13 -9 -11 0 -12 -1 -78 -57
-96 -81 -217 -217 -254 -284 -7 -13 -24 -42 -38 -64 -26 -44 -38 -65 -118
-217 -29 -57 -57 -107 -61 -113 -5 -5 -24 -39 -43 -75 -19 -36 -43 -81 -54
-100 -11 -19 -33 -60 -49 -90 -16 -30 -31 -57 -34 -60 -3 -3 -18 -30 -33 -60
-28 -54 -58 -110 -131 -240 -20 -36 -46 -85 -59 -110 -13 -25 -51 -95 -85
-157 -34 -61 -62 -116 -62 -122 0 -6 -4 -11 -10 -11 -5 0 -10 -6 -10 -13 0 -7
-11 -29 -24 -48 -14 -20 -28 -48 -32 -63 -3 -14 -9 -26 -13 -26 -9 0 -35 -51
-33 -62 1 -5 -2 -8 -8 -8 -5 0 -10 -4 -10 -8 0 -8 -33 -71 -132 -251 -17 -31
-40 -74 -52 -96 -11 -22 -23 -42 -26 -45 -3 -3 -15 -25 -28 -50 -12 -25 -38
-74 -58 -110 -20 -36 -54 -99 -77 -140 -22 -41 -53 -97 -68 -125 -15 -27 -43
-79 -62 -115 -19 -36 -45 -83 -57 -105 -44 -77 -79 -140 -100 -180 -11 -22
-40 -76 -64 -120 -25 -44 -55 -100 -69 -125 -13 -25 -34 -63 -47 -85 -12 -22
-38 -69 -57 -105 -19 -36 -47 -87 -62 -115 -15 -27 -46 -84 -68 -125 -23 -41
-57 -104 -77 -140 -20 -36 -46 -85 -58 -110 -13 -25 -25 -47 -28 -50 -3 -3
-15 -23 -26 -45 -12 -22 -35 -65 -52 -96 -97 -177 -132 -243 -132 -250 0 -4
-3 -9 -7 -11 -5 -1 -21 -28 -36 -58 -52 -102 -82 -155 -89 -158 -5 -2 -8 -8
-8 -13 0 -6 -30 -65 -67 -132 -37 -67 -67 -125 -65 -129 1 -5 -3 -8 -8 -8 -6
0 -10 -4 -10 -9 0 -5 -21 -46 -47 -92 -76 -139 -110 -201 -140 -259 -15 -30
-30 -57 -33 -60 -5 -5 -36 -62 -82 -150 -13 -25 -25 -47 -28 -50 -3 -3 -14
-23 -25 -45 -11 -22 -24 -43 -30 -47 -5 -4 -6 -8 -2 -8 5 0 0 -12 -11 -27 -11
-16 -41 -68 -67 -118 -26 -49 -64 -121 -86 -160 -21 -38 -48 -88 -60 -110 -11
-22 -32 -60 -46 -85 -31 -57 -80 -146 -126 -230 -19 -36 -51 -94 -71 -130 -20
-36 -46 -85 -58 -110 -13 -25 -26 -46 -30 -48 -5 -2 -8 -7 -8 -12 0 -8 -90
-171 -100 -180 -3 -3 -16 -25 -29 -50 -14 -25 -42 -71 -63 -103 -21 -32 -38
-61 -38 -64 0 -8 -74 -118 -82 -121 -5 -2 -6 -8 -2 -13 3 -5 1 -9 -4 -9 -4 0
-19 -19 -32 -43 -13 -23 -26 -44 -29 -47 -3 -3 -20 -25 -36 -50 -16 -25 -32
-47 -35 -50 -4 -3 -16 -21 -28 -40 -18 -31 -31 -47 -82 -107 -5 -7 -10 -15
-10 -18 0 -3 -18 -29 -41 -58 -22 -29 -53 -67 -67 -86 -15 -19 -36 -44 -47
-56 -11 -12 -33 -39 -50 -60 -16 -22 -36 -47 -45 -56 -8 -9 -42 -47 -75 -85
-133 -154 -413 -423 -560 -539 -27 -22 -52 -42 -55 -45 -3 -3 -21 -17 -40 -30
-19 -13 -40 -31 -47 -40 -7 -8 -13 -11 -13 -6 0 5 -8 -1 -19 -12 -10 -12 -21
-22 -25 -22 -7 0 -67 -40 -76 -51 -5 -6 -179 -112 -247 -150 -180 -101 -449
-213 -613 -255 -149 -38 -163 -41 -220 -50 -19 -3 -46 -7 -60 -10 -14 -2 -52
-7 -85 -10 -33 -3 -62 -8 -64 -10 -2 -2 1834 -3 4080 -2 4076 3 4084 3 4086
23 1 11 7 45 13 75 7 30 13 67 14 82 0 16 3 28 6 28 3 0 6 8 7 17 1 17 5 35
19 101 3 15 7 36 9 47 1 11 10 56 20 100 9 44 19 90 21 103 6 35 14 75 49 242
11 54 15 76 20 105 3 17 7 40 10 52 13 57 22 104 31 153 7 44 12 65 14 65 1 0
3 9 4 20 2 11 9 47 15 80 7 33 14 71 17 85 3 14 16 81 30 150 14 69 27 136 29
150 2 14 4 25 5 25 2 0 8 25 15 70 4 22 11 60 16 85 6 25 12 54 14 65 3 19 7
36 19 95 5 22 16 78 32 160 3 14 12 60 20 102 9 43 17 85 19 95 2 10 4 18 5
18 1 0 3 9 5 20 3 22 13 77 20 115 3 14 7 34 9 45 3 11 9 40 14 65 6 25 13 61
16 80 3 19 9 49 14 65 5 17 8 42 8 57 -1 16 1 28 4 28 3 0 11 28 17 63 7 34
14 73 17 87 16 74 29 142 30 163 0 9 3 17 6 17 3 0 6 8 6 18 1 19 11 74 30
162 2 14 16 81 29 150 14 69 27 135 30 148 2 13 7 32 10 42 3 10 8 31 10 46 2
16 6 40 9 54 3 14 11 52 17 85 14 76 17 90 19 90 1 0 3 9 5 20 3 22 13 77 20
115 3 14 7 34 9 45 3 11 9 40 14 65 6 25 13 61 16 80 3 19 9 49 14 65 5 17 8
42 8 58 -1 15 1 27 5 27 3 0 6 6 7 13 0 6 3 23 7 37 3 14 7 36 9 50 2 14 11
59 19 100 9 41 18 86 21 100 2 14 13 70 25 125 11 55 22 111 25 125 3 14 10
52 17 85 6 33 13 69 15 80 1 11 3 20 4 20 2 0 7 21 14 65 9 49 18 96 31 153 3
12 7 36 10 52 5 29 9 51 20 105 35 167 43 207 49 243 2 12 12 58 21 102 10 44
19 89 21 100 3 23 22 118 29 153 3 12 7 32 10 45 3 12 8 36 10 52 6 31 18 94
21 108 1 4 2 8 3 10 1 1 4 16 6 32 3 17 12 64 20 105 9 41 18 84 21 95 20 101
25 124 30 155 9 59 12 75 14 78 3 3 5 10 15 67 4 28 10 55 11 60 6 20 14 61
19 90 5 29 11 58 19 100 28 133 57 279 61 310 2 11 4 20 5 20 1 0 4 13 14 65
2 14 5 25 6 25 1 0 7 34 13 78 2 13 7 28 11 35 4 7 5 12 2 12 -2 0 0 15 5 32
5 18 12 55 15 82 3 28 8 54 10 58 3 4 7 18 9 30 18 91 25 126 29 144 2 12 7
37 10 55 3 19 8 45 11 59 5 22 28 134 40 195 2 11 4 20 5 20 1 0 3 12 6 28 2
15 6 39 8 55 3 15 5 28 7 30 3 3 16 69 25 122 1 8 5 29 9 45 7 32 33 164 41
205 2 14 10 50 16 80 6 30 12 60 14 65 1 6 6 35 13 65 13 66 22 118 26 145 2
11 4 22 5 25 1 3 3 10 5 15 1 6 3 12 4 15 2 3 4 14 6 25 5 34 40 217 50 263
l5 22 -1277 -1 c-703 -1 -1285 -3 -1293 -4z"/>
</g>
</svg>
