<svg id="Layer_1" data-name="Layer 1" xmlns="http://www.w3.org/2000/svg" viewBox="0 0 885.75 1771.5"><defs><style>.cls-1{fill:#fff;}.cls-2{fill:#01c2cb;}.cls-3{fill:#649aae;}.cls-4{fill:#669bb0;}.cls-5{fill:#595757;}.cls-6{fill:#679aaf;}.cls-7{fill:#585858;}.cls-8{fill:#05c3cc;}.cls-9{fill:#06c4cc;}.cls-10{fill:#679bb0;}.cls-11{fill:#05c4cd;}.cls-12{fill:#06c2cb;}.cls-13{fill:#595555;}.cls-14{fill:#565959;}.cls-15{fill:#595858;}.cls-16{fill:#feffff;}.cls-17{fill:#fefefe;}.cls-18{fill:#fdfeff;}</style></defs><path class="cls-1" d="M391.13,369.09h885.74v1771.5H391.13Zm27.14,1458.09a11.94,11.94,0,0,0-.29,4q0,19.47,0,38.93a37.8,37.8,0,0,0,.41,5.73,31.16,31.16,0,0,0,14.4,22.3c1.36.88,2.8,1.64,4.24,2.39,6.13,3.22,12.28,6.4,18.42,9.61q48.35,25.37,96.68,50.73,19.77,10.4,39.18,21.43a199.22,199.22,0,0,1,34.71,25,181.7,181.7,0,0,1,27.42,31.13,204.87,204.87,0,0,1,21.83,40.86c4.08,10.13,7.49,20.48,10.55,30.95,1,3.39,2,6.79,3,10.19a1.87,1.87,0,0,0,1.91,1.5c4.28,0,8.55,0,12.83,0,.14,0,.28-.07.43-.08a1.36,1.36,0,0,0,1.1-1.18c0-1.48.1-2.95.1-4.42V1927.33c0-1,0-2.06,0-3.09,0-.73-.17-1.46-.26-2.19.1-1.46.28-2.93.28-4.39q0-39.37,0-78.75c0-.44,0-.88,0-1.32,0-2.84-.15-3.11-2.74-3.5-1.17-.17-2.32-.45-3.48-.64q-6.73-1.15-13.49-2.27L672.37,1829l-13.5-2.26-13.06-2.17-13.5-2.26c-4.35-.73-8.71-1.44-13.06-2.16L606.18,1818l-13.5-2.27c-4.35-.73-8.71-1.44-13.06-2.16l-13.5-2.27c-4.35-.73-8.71-1.43-13.07-2.16s-8.7-1.5-13-2.22c-6.1-1-12.21-2-18.3-3-4.8-.79-9.58-1.61-14.37-2.42-4.35-.74-8.7-1.49-13.06-2.22s-8.71-1.44-13.06-2.16-8.72-1.43-13.07-2.16-8.7-1.5-13.05-2.22c-6.1-1-12.21-2-18.31-3-5.66-.94-11.31-1.92-17-2.87a1.78,1.78,0,0,0-.86.06c-.25.1-.58.3-.64.53a8.22,8.22,0,0,0-.38,2.13q0,17.47,0,34.95A19.28,19.28,0,0,0,418.27,1827.18ZM1168.34,826.72c0,.38.17.8.05.9a16.06,16.06,0,0,1-2.12,1.56q-20.43,12.36-40.88,24.7-18,10.86-36,21.68-18.57,11.18-37.12,22.38l-36,21.69-37.5,22.6-36,21.7q-6.83,4.11-13.65,8.2a3,3,0,0,0-1.7,2.84c0,3.55,0,7.09,0,10.63,0,2.51,0,5,0,7.52a1.61,1.61,0,0,0,1.59,1.74c1.18,0,2.36,0,3.54,0h246.87c1,0,2.06,0,3.1,0s1.94-.34,2-1.84c0-3.24,0-6.49,0-9.73a11.77,11.77,0,0,0-.12-1.32,1.41,1.41,0,0,0-1.16-1.16c-1.47-.06-2.94-.12-4.41-.12q-65.7,0-131.4,0c-33.92,0-67.84.25-101.76.37-.44,0-.89,0-1.33,0a5,5,0,0,1-.86-.12c-.13,0-.34-.14-.34-.19,0-.26,0-.66.19-.76q5.64-3.48,11.32-6.91,23.7-14.25,47.39-28.48,18.76-11.28,37.52-22.56l42.1-25.27,36.78-22.08L1161,849.19l20.85-12.54a10.05,10.05,0,0,0,1.83-1.22,3.5,3.5,0,0,0,.85-1.5,6.42,6.42,0,0,0,.12-1.76q0-8,0-15.93c0-.59,0-1.18-.08-1.77a1.73,1.73,0,0,0-1.41-1.49c-1.47-.07-2.94-.13-4.41-.13l-72.56.08c-17,0-33.92,0-50.88.08s-34.21,0-51.31.27c-23.59.32-47.19.11-70.79.14-1.47,0-2.94.07-4.41.13a1.33,1.33,0,0,0-1.15,1.15c-.06,2.35-.13,4.71-.12,7.07,0,5.67-.62,5.5,5.52,5.5,28.76,0,57.52.06,86.28,0s57.5.24,86.26-.25c20-.34,40.11-.26,60.17-.37C1166.59,826.63,1167.47,826.69,1168.34,826.72Zm-647.82,75c.23-.36.33-.7.55-.82a7.84,7.84,0,0,1,1.62-.65q50-14.61,100.1-29.2l73.81-21.47c1-.29,2-.58,3-.89s1.56-.89,1.57-1.86q0-7.3,0-14.6a1.74,1.74,0,0,0-1.15-1.72c-.83-.31-1.67-.58-2.51-.85q-14.54-4.59-29.08-9.17l-135.6-43-24.86-7.87c-1-.31-2-.59-3-.87a1,1,0,0,0-1.21.91q0,6.42,0,12.83a.83.83,0,0,0,.07.43c.26.35.48.82.83,1A32.61,32.61,0,0,0,508,785c9.46,2.82,18.92,5.61,28.38,8.44Q605.78,814.24,675.19,835q4.44,1.32,8.85,2.77c.3.09.46.61.77,1.06-1.56.47-3,.91-4.37,1.32l-88.17,25.93-81,23.8c-2,.58-3.94,1.19-5.91,1.81a1.48,1.48,0,0,0-1,1.32,5.22,5.22,0,0,0-.07.88c0,5.17,0,10.33,0,15.49a7,7,0,0,0,.3,1.34c1,.34,1.93.74,2.91,1l88.68,25.75,85.28,24.77c1.13.33,2.23.74,3.34,1.13.3.1.36.37.2.71-.06.12-.12.3-.22.34-1.24.45-2.47.93-3.73,1.31l-87.87,26.94-75.6,23.21L505,1019.84a1.59,1.59,0,0,0-1.22,1.63q0,6.85,0,13.72c0,.14.08.28.09.42a1,1,0,0,0,1,.67c1.13-.33,2.27-.66,3.39-1l43.37-13.8,146.47-46.75a25.54,25.54,0,0,0,2.47-.94,1,1,0,0,0,.52-.66,10.42,10.42,0,0,0,.12-1.76c0-4.14,0-8.27,0-12.4,0-5.14.54-4.18-4.21-5.58q-30.11-8.86-60.22-17.63-55.14-16.1-110.29-32.15C524.47,903,522.51,902.38,520.52,901.76Zm43.16,498.4H694.15c1.33,0,2.66,0,4,0,2.75,0,3.15-.4,3.18-3s0-5.31,0-8c0-3.57-.51-3.65-3.87-3.63H667.83c-1.33,0-2.65-.07-4-.12-.12,0-.35-.12-.34-.17,0-.26,0-.64.18-.74.88-.54,1.78-1,2.71-1.49q7.37-3.54,14.75-7a13.91,13.91,0,0,0,3.73-2.33,64.49,64.49,0,0,0,17.25-26.39,72,72,0,0,0,4.08-22.52c.07-6.63.19-13.25-.9-19.85a91.44,91.44,0,0,0-5.29-19.58,84.14,84.14,0,0,0-34.46-40.87,104.7,104.7,0,0,0-29.25-12.23,117.48,117.48,0,0,0-14.29-2.79c-5.27-.7-10.54-1.21-15.84-1.43-2.94-.12-5.89,0-8.84-.06a107.06,107.06,0,0,0-15,1.09,127.18,127.18,0,0,0-19.46,4,97.57,97.57,0,0,0-36.19,18.85,78,78,0,0,0-19.63,24.78c-5.71,11.26-8.15,23.31-8.61,35.82a105.29,105.29,0,0,0,1.44,19.81,67.41,67.41,0,0,0,7.39,22.12,70.57,70.57,0,0,0,13.43,17.47A17.76,17.76,0,0,0,525,1375c2.11,1,4.15,2.23,6.24,3.33,3.78,2,7.58,4,11.37,5.93.67.35,1,.79.68,1a1.93,1.93,0,0,1-.71.31c-1.48,0-3,.06-4.43.06H432c-1.47,0-2.95,0-4.42,0a1.61,1.61,0,0,0-1.73,1.6c0,3.69,0,7.37,0,11.06a1.71,1.71,0,0,0,1.61,1.78c1.47.07,2.94.1,4.41.1Zm76.39-986.44a11.4,11.4,0,0,0-.29,1.75c0,2.06,0,4.13,0,6.19,0,1.62,0,3.25,0,4.87,0,1.05.4,1.5,1.53,1.85s2.26.65,3.38,1A81.07,81.07,0,0,1,661.59,437c12.78,7.71,22.22,18.34,27.72,32.28A71.57,71.57,0,0,1,693,510.1a63.37,63.37,0,0,1-22.81,37.82,77.93,77.93,0,0,1-21.41,12.22A121.24,121.24,0,0,1,617,567.36c-2.78.28-5.58.4-8.38.55a1.7,1.7,0,0,1-2.05-1.74c0-1.47-.06-2.94-.06-4.42V416.18c0-1.32,0-2.65,0-4,0-.94-.43-1.41-1.25-1.49-.59-.06-1.17-.11-1.76-.14a140.83,140.83,0,0,0-22.95.8A119.21,119.21,0,0,0,558,416.14,96.5,96.5,0,0,0,528.62,431c-17,12.89-26.61,30-29.39,51.06a87.49,87.49,0,0,0,.63,26.44,82.68,82.68,0,0,0,21.82,43.64,93.23,93.23,0,0,0,33.15,22.25c14.37,5.86,29.41,8.42,44.86,8.72a164.91,164.91,0,0,0,23.81-1.43,124.74,124.74,0,0,0,22-4.77A93.78,93.78,0,0,0,676,561.21c18-14.21,27.79-32.89,30-55.56a90.16,90.16,0,0,0-2.5-32c-4.47-17.08-13.31-31.38-27-42.56a89.56,89.56,0,0,0-35-17.23A9.62,9.62,0,0,0,640.07,413.72Zm549.65,920.19c-.1-1.7-.25-4.35-.38-7a98.19,98.19,0,0,0-5.37-27.25,78.51,78.51,0,0,0-19.71-31.6,65.91,65.91,0,0,0-28.94-16.37,77.23,77.23,0,0,0-37.64-.6,56,56,0,0,0-35.48,24.49,71.74,71.74,0,0,0-6.56,12.52,109.81,109.81,0,0,0-4.29,13.47,13.63,13.63,0,0,1-.48,1.69,1.3,1.3,0,0,1-.63.51c-.26.13-.5,0-.61-.4a83.09,83.09,0,0,0-3.49-9.54,66.55,66.55,0,0,0-29.14-32.2,61.52,61.52,0,0,0-22.16-7.17,69.29,69.29,0,0,0-22.44.89,58.94,58.94,0,0,0-24.1,10.55,59.58,59.58,0,0,0-17.44,20.85,77.3,77.3,0,0,0-7.76,25.69,100.15,100.15,0,0,0-.27,24.71,88.63,88.63,0,0,0,4.89,21q10.83,28.75,38.82,41.48a90,90,0,0,0,23.26,6.79c2.76.45,5.56.63,8.35.92a1.24,1.24,0,0,0,1.16-1.11c0-4,0-8,0-11.93a1.3,1.3,0,0,0-1.18-1.11c-1.31-.19-2.62-.4-3.94-.54a76.49,76.49,0,0,1-21.77-5.51,59.12,59.12,0,0,1-26.12-20.45,63.43,63.43,0,0,1-11-30,84.33,84.33,0,0,1,0-19,62,62,0,0,1,6.58-22.35A45.53,45.53,0,0,1,968,1272.87a64.8,64.8,0,0,1,16.9-3.12,53.09,53.09,0,0,1,14.07,1c12.49,2.47,22.66,8.9,30.85,18.55,7.79,9.18,12.63,19.83,15.32,31.51a80.35,80.35,0,0,1,1.91,18.43c0,6.07-.52,5.36,5.49,5.4,1.92,0,3.83,0,5.74-.16a1.25,1.25,0,0,0,.86-.83,8.82,8.82,0,0,0,.21-2.18c0-5.17.26-10.32.63-15.47a101,101,0,0,1,2.9-17.88,67.84,67.84,0,0,1,8.57-20.28c7.14-11,17-18.23,29.83-21.23a65.47,65.47,0,0,1,32,.39c14.68,3.84,25.88,12.44,33.67,25.46a69.15,69.15,0,0,1,7.44,17.92,94.43,94.43,0,0,1,2.92,26.73,79.64,79.64,0,0,1-2.11,16.64c-4,16.7-13.16,29.77-27.76,38.92a77.16,77.16,0,0,1-28.43,10.48c-3,.52-6.14.81-9.2,1.21a1.5,1.5,0,0,0-1.16,1.18q0,6,0,11.94a1.32,1.32,0,0,0,1.18,1.08h.45a118.46,118.46,0,0,0,19.61-3.21,89.56,89.56,0,0,0,22.55-8.89,69.81,69.81,0,0,0,21.85-19,74.68,74.68,0,0,0,10.85-21.16C1188.42,1356,1189.54,1345.53,1189.72,1333.91Zm-102.85,268.81a14.55,14.55,0,0,1-.26-4.33q0-50.22,0-100.44c0-1,0-2.07,0-3.1a2.19,2.19,0,0,1,1.59-2.33c4-1.48,8-3,12-4.51l79.41-29.9c1.24-.47,2.49-.92,3.7-1.45a1.8,1.8,0,0,0,1.19-1.71q0-6.18,0-12.38c0-.14-.08-.28-.09-.43,0-.33-.66-.81-1-.71-1.25.43-2.51.84-3.75,1.31q-15.72,5.9-31.43,11.82l-98,37-92.22,34.75q-13.86,5.22-27.7,10.47a5.19,5.19,0,0,0-2.63,1.49c-.29,3.37-.31,13.71,0,17.79a9.64,9.64,0,0,0,1.37.93c.94.43,1.92.76,2.88,1.13l64.4,24.6,85.88,32.79,90,34.35c3,1.15,6,2.32,9.09,3.46.68.26,1.4.45,2.1.66.36.1,1-.3,1-.65,0-3.09.14-6.18.13-9.27,0-5.62.58-4.57-4.48-6.53-.27-.11-.54-.23-.82-.33q-43.74-16.15-87.47-32.31A20.4,20.4,0,0,1,1086.87,1602.72Zm88.48-386.53c.61.1.9.19,1.19.2.74,0,1.47,0,2.21,0,6.52-.08,5.8.89,5.8-6q0-77.23,0-154.48c0-1.18,0-2.36,0-3.54,0-.44-.07-.88-.11-1.32a1.38,1.38,0,0,0-1.18-1.13c-1.62,0-3.24-.12-4.86-.08-1.9,0-3.82-.27-5.7.3-1.09,1.93-.52,4-.52,6q-.06,66,0,131.9c0,1.7.54,3.53-.6,5.08-.42.55-1.15,0-4.34-3.27l-32.07-33q-12-12.37-24.07-24.73-13.9-14.25-27.86-28.47c-6.11-6.19-12.41-12.2-18.94-18a230.38,230.38,0,0,0-20-16.06,116.59,116.59,0,0,0-23.48-13.15,75.34,75.34,0,0,0-29.34-5.61c-2.94,0-5.88.36-8.82.62a67.69,67.69,0,0,0-20.89,5.39,61.37,61.37,0,0,0-28.18,24,67,67,0,0,0-7.84,17.75,97.06,97.06,0,0,0-3.05,16.5,92,92,0,0,0,2.08,30.76,74.31,74.31,0,0,0,13.55,28.55,77.2,77.2,0,0,0,28.53,22.57,96.08,96.08,0,0,0,22.65,7.38c4.2.83,8.45,1.31,12.7,1.75a1.41,1.41,0,0,0,1.7-1.5c0-1.48,0-3,0-4.43,0-2.21,0-4.43,0-6.64a1.7,1.7,0,0,0-1.65-1.72c-.58-.09-1.17-.15-1.75-.22-2.63-.35-5.28-.61-7.89-1.06a80.31,80.31,0,0,1-25.81-8.84c-15.5-8.61-25.64-21.43-30-38.7a74,74,0,0,1-.35-33.78,53.4,53.4,0,0,1,6.7-16.76,51.74,51.74,0,0,1,27.76-22.21,66,66,0,0,1,14.64-3.25,68.11,68.11,0,0,1,39,7.06,117.37,117.37,0,0,1,17.55,11.09,247.55,247.55,0,0,1,23.2,19.82c7.58,7.23,15,14.6,22.39,22,12.26,12.36,24.41,24.83,36.61,37.24l49.32,50.19C1174.15,1215.1,1174.71,1215.59,1175.35,1216.19Zm8.94-457a17.6,17.6,0,0,0-3.39-2.67l-97.15-68.65q-7.59-5.36-15.17-10.72a22.29,22.29,0,0,1-2.36-2,.76.76,0,0,1,.07-.75c1.25-1,2.51-2,3.83-2.95q50.93-36,101.88-71.93c3.73-2.63,7.45-5.29,11.19-7.92a2.9,2.9,0,0,0,1.34-2.6c0-4.87,0-9.74,0-14.6a.84.84,0,0,0-1.21-.73,21.64,21.64,0,0,0-1.82,1.24L1087.73,643q-14.85,10.79-29.7,21.57c-.92.67-1.72,1.62-3.14,1.66-1.24-.89-2.56-1.83-3.86-2.79l-95.26-70.54q-12.25-9.09-24.51-18.18c-.82-.62-1.65-1.23-2.52-1.79a.94.94,0,0,0-.82,0,.86.86,0,0,0-.38.67c0,5.16,0,10.32,0,15.34a11.23,11.23,0,0,0,3.41,3l92.72,67.26q9.48,6.88,19,13.76c.7.51,1.55.91,1.79,2a12.57,12.57,0,0,1-3.05,2.31L967.13,727l-36,24.1a12,12,0,0,0-3.58,2.88v14c0,.15,0,.36.1.43s.56.43.69.36c1.28-.71,2.57-1.42,3.79-2.24q39.92-26.61,79.82-53.25L1052,686.48c1-.65,2-1.3,3-1.93a1.74,1.74,0,0,1,2.06.09c1,.67,1.93,1.35,2.88,2l23.71,17q48.84,35.1,97.69,70.19a21.34,21.34,0,0,0,2.22,1.41c.18.1.54-.1.81-.17A148,148,0,0,0,1184.29,759.16ZM778.38,1586.51a14.31,14.31,0,0,0,1.08-5.23,106.21,106.21,0,0,0,.1-14.16,37.72,37.72,0,0,0-1.39-7.82,40,40,0,0,0-9.51-16.76,72.59,72.59,0,0,0-10.64-9.32,152.93,152.93,0,0,0-22.9-13.33c-9.93-4.88-20.17-9.05-30.48-13q-44.76-17.25-89.54-34.46l-89.53-34.47-18.15-7c-.69-.27-1.38-.52-2.08-.76-.9-.31-1.58,0-1.59.87,0,4.71,0,9.43,0,14.21a9,9,0,0,0,1.44,1c.93.43,1.92.74,2.89,1.1q30.88,11.44,61.77,22.88l115.27,42.64q1.46.54,2.85,1.2c.17.08.22.47.27.72a.41.41,0,0,1-.2.33c-.94.42-1.87.86-2.83,1.21q-28.19,10.45-56.38,20.88L513.58,1580c-2.62,1-5.26,1.91-7.87,2.92a13.24,13.24,0,0,0-1.81,1.06,11.62,11.62,0,0,0-.18,1.45q0,6,0,11.95c0,.44.1.87.14,1.31a.9.9,0,0,0,1,.6c.84-.28,1.69-.54,2.51-.86l45.39-17.47,104.36-40.25q21.87-8.43,43.73-16.85a19.88,19.88,0,0,1,5.62-1.77c3.56,1.4,7.27,2.83,11,4.3a200.8,200.8,0,0,1,20.9,9.55,93.77,93.77,0,0,1,14.82,9.62,44.53,44.53,0,0,1,8.79,9.29,28.53,28.53,0,0,1,5.25,14.37,61.9,61.9,0,0,1-.53,15.44c0,.14,0,.29-.06.44a1.24,1.24,0,0,0,1.15,1.53c2.65.05,5.31.08,8,.08C776.59,1586.69,777.45,1586.57,778.38,1586.51ZM504,1059.11c.79.34,1.45.66,2.14.91q10.14,3.8,20.29,7.57c6.78,2.5,13.57,5,20.34,7.47q21.56,8,43.09,16c9.54,3.53,19.09,7,28.63,10.54q23,8.52,46,17.08l22,8.15a7.3,7.3,0,0,1,1.53.83.79.79,0,0,1,.06.71,10.88,10.88,0,0,1-1.93,1l-35.65,13.18q-13.28,4.9-26.54,9.81l-42.68,15.86c-9.53,3.53-19.08,7-28.62,10.55q-22.4,8.28-44.77,16.59l-2.48.92a2.29,2.29,0,0,0-1.67,2.32c0,4,0,8,0,11.95,0,.44.11.87.16,1.31a1.14,1.14,0,0,0,1,.69c1-.3,2-.56,2.94-.93l25.16-9.71,29.28-11.31q19.39-7.45,38.79-14.91,22.89-8.84,45.76-17.71,27.85-10.72,55.71-21.41a15.38,15.38,0,0,1,2.49-.88,5.29,5.29,0,0,1,2.17,0,15.53,15.53,0,0,1,2.5.89c7.39,2.93,14.83,5.79,22,9.21a108.22,108.22,0,0,1,21.5,13.05,46.89,46.89,0,0,1,7.46,7.51,29.92,29.92,0,0,1,6.75,19.22c0,4.27.16,8.56-.74,12.79-.21,1,.42,1.67,1.5,1.69,2.5,0,5,0,7.52,0,2.86,0,3.22-.27,3.68-3.18a22.84,22.84,0,0,0,.24-3.09c.06-3.84.16-7.67.1-11.51a39.25,39.25,0,0,0-8.58-23.69,61.47,61.47,0,0,0-11.82-11.25,127.1,127.1,0,0,0-17.63-11c-4.82-2.56-9.75-4.88-14.73-7.11q-10.3-4.61-20.83-8.64l-27.64-10.63-29.7-11.45-38.78-14.92q-15.06-5.79-30.11-11.61L541,1057.23c-11.14-4.28-22.31-8.49-33.42-12.85-4.23-1.66-4-1.25-3.95,2.83,0,3.25,0,6.5,0,9.74A16.21,16.21,0,0,0,504,1059.11ZM420.62,1679c-.3,1.32-.68,2.59-.87,3.9-.28,1.89-.45,3.81-.62,5.72a61.64,61.64,0,0,0,.24,15c1.88,12,7.95,21.08,18.58,27a46.49,46.49,0,0,0,17.63,5.38,155.51,155.51,0,0,0,17.66.87q13.26,0,26.53,0c1.33,0,2.65,0,4,0,1,0,1.52.62,1.55,1.71s0,2.36,0,3.54c0,3.83,0,7.67,0,11.5,0,1,0,2.07.06,3.1a1.39,1.39,0,0,0,1.4,1.39q4.41,0,8.84,0a1.52,1.52,0,0,0,1.73-1.56c0-1.18,0-2.36,0-3.53,0-4.43,0-8.85,0-13.28a10.63,10.63,0,0,1,.24-2.18.93.93,0,0,1,.61-.58c1.62-.1,3.23-.18,4.85-.18H698.69c.44,0,.88,0,1.32-.08a1.28,1.28,0,0,0,1.09-1.18c0-2.51.11-5,.1-7.52,0-6.15.62-5.41-5.43-5.41H521.55c-4.24,0-4.13.08-4.12-4.12q0-15.48,0-31c0-1.32,0-2.65-.06-4a1.44,1.44,0,0,0-1.35-1.46c-1.92,0-3.83-.06-5.75-.06-5.39,0-4.92-.4-4.92,5.07q0,15.5,0,31a29.43,29.43,0,0,1-.19,3.52,1.29,1.29,0,0,1-.84.86,21.05,21.05,0,0,1-3.08.17c-8.1,0-16.21-.06-24.32,0a179.33,179.33,0,0,1-18.54-.85,37.2,37.2,0,0,1-10.7-2.58,24.18,24.18,0,0,1-14.6-15.59,32.37,32.37,0,0,1-1.38-6.48,55.75,55.75,0,0,1,.57-14.54c.16-1,.29-2,.41-3.06a1.09,1.09,0,0,0-1.09-1.11c-3.24,0-6.48,0-9.72,0A4,4,0,0,0,420.62,1679Zm134.67-29.51h103.9c3.69,0,7.37,0,11,0,3.84-.05,7.67-.1,11.5-.27a28.39,28.39,0,0,0,11.13-2.53,15.94,15.94,0,0,0,8.81-10,31.44,31.44,0,0,0,1-4.3c.91-5.74.42-11.47-.26-17.19-.17-1.43-.88-2-2.38-2-2.51,0-5,0-7.52,0-.29,0-.58.06-.88.09a1.38,1.38,0,0,0-.73,1c.09,2.65.19,5.3.26,8a16,16,0,0,1-.94,5.64,8.62,8.62,0,0,1-4.51,5.2,17.48,17.48,0,0,1-3.76,1.25,29.54,29.54,0,0,1-6.57.81c-5.6,0-11.2.17-16.8.17H432.18c-1.33,0-2.65,0-4,0-1.93,0-2.34.43-2.36,2.33,0,2.21,0,4.43,0,6.64,0,1.32.05,2.65.1,4a1.34,1.34,0,0,0,1.15,1.15c1.47.06,2.94.11,4.41.11Zm145.36-993.2c-1.51-.51-3.14-.24-4.73-.24q-51.75,0-103.48,0a173.87,173.87,0,0,1-26-1.77,105.07,105.07,0,0,1-16.35-3.69,69.39,69.39,0,0,1-17.92-8.47,45.35,45.35,0,0,1-19.38-27.53,53.89,53.89,0,0,1-1.54-12.7c0-1.62,0-3.24,0-4.86,0-.89-.47-1.47-1.26-1.48q-4.63,0-9.28,0a1.53,1.53,0,0,0-1.26,1.08c-.22,1.3-.42,2.61-.58,3.92a45.44,45.44,0,0,0,2.74,21.72,50,50,0,0,0,15.46,21.18,22.67,22.67,0,0,0,5.61,3.47c5.69,2.42,11.36,4.9,17,7.37a20.78,20.78,0,0,1,1.92,1c.06,0,0,.4,0,.41a11.15,11.15,0,0,1-2.06.31q-15.26,0-30.51,0c-1.33,0-2.65,0-4,.06a1.38,1.38,0,0,0-1.33,1.46c0,3.83,0,7.66,0,11.5a1.26,1.26,0,0,0,1.14,1.14c1.47.05,2.94.1,4.41.1H695.52c1.32,0,2.65,0,4,0a7.33,7.33,0,0,0,1.39-.32c.57-3.66.16-7.34.27-11A3.94,3.94,0,0,0,700.65,656.26Zm-98,82.71h92.85c1.47,0,2.94,0,4.42-.06a1.35,1.35,0,0,0,1.16-1.13q0-6,0-11.93a1.26,1.26,0,0,0-1.09-1.17c-1.62,0-3.24-.1-4.86-.1H509.88c-1.17,0-2.35,0-3.53,0-.44,0-.88.06-1.32.1s-1.21.57-1.21,1.08c0,4,0,8,0,11.92a1.31,1.31,0,0,0,1.11,1.17c1.47.06,2.94.12,4.42.12Zm-129.12-6.81a10.84,10.84,0,1,0-11.33,10.5A10.87,10.87,0,0,0,473.49,732.16Z" transform="translate(-391.13 -369.09)"/><path class="cls-2" d="M704.85,1922.05c.09.73.23,1.46.26,2.19,0,1,0,2.06,0,3.09v188.93c0,1.47-.06,2.94-.1,4.42a1.36,1.36,0,0,1-1.1,1.18c-.15,0-.29.07-.43.08-4.28,0-8.55,0-12.83,0a1.87,1.87,0,0,1-1.91-1.5c-1-3.4-2-6.8-3-10.19-3.06-10.47-6.47-20.82-10.55-30.95a204.87,204.87,0,0,0-21.83-40.86A181.7,181.7,0,0,0,626,2007.3a199.22,199.22,0,0,0-34.71-25q-19.38-11.09-39.18-21.43-48.32-25.41-96.68-50.73c-6.14-3.21-12.29-6.39-18.42-9.61-1.44-.75-2.88-1.51-4.24-2.39a31.16,31.16,0,0,1-14.4-22.3,37.8,37.8,0,0,1-.41-5.73q0-19.45,0-38.93a11.94,11.94,0,0,1,.29-4c1.85-.23,3.46.63,5.12,1.18q21.17,7,42.31,14.08l234.91,78.42C702,1921.32,703.44,1921.65,704.85,1922.05Z" transform="translate(-391.13 -369.09)"/><path class="cls-3" d="M704.85,1922.05c-1.41-.4-2.85-.73-4.24-1.19L465.7,1842.44q-21.15-7.05-42.31-14.08c-1.66-.55-3.27-1.41-5.12-1.18a19.28,19.28,0,0,1-.34-2.6q0-17.47,0-34.95a8.22,8.22,0,0,1,.38-2.13c.06-.23.39-.43.64-.53a1.78,1.78,0,0,1,.86-.06c5.66.95,11.31,1.93,17,2.87,6.1,1,12.21,2,18.31,3,4.35.72,8.7,1.49,13.05,2.22s8.71,1.44,13.07,2.16,8.71,1.43,13.06,2.16,8.71,1.48,13.06,2.22c4.79.81,9.57,1.63,14.37,2.42,6.09,1,12.2,2,18.3,3,4.35.72,8.7,1.49,13,2.22s8.72,1.43,13.07,2.16l13.5,2.27c4.35.72,8.71,1.43,13.06,2.16l13.5,2.27,13.07,2.16c4.35.72,8.71,1.43,13.06,2.16l13.5,2.26,13.06,2.17,13.5,2.26,13.07,2.17q6.75,1.13,13.49,2.27c1.16.19,2.31.47,3.48.64,2.59.39,2.75.66,2.74,3.5,0,.44,0,.88,0,1.32q0,39.38,0,78.75C705.13,1919.12,705,1920.59,704.85,1922.05Z" transform="translate(-391.13 -369.09)"/><path class="cls-4" d="M1168.34,826.72c-.87,0-1.75-.09-2.62-.09-20.06.11-40.12,0-60.17.37-28.76.49-57.51.17-86.26.25s-57.52,0-86.28,0c-6.14,0-5.5.17-5.52-5.5,0-2.36.06-4.72.12-7.07a1.33,1.33,0,0,1,1.15-1.15c1.47-.06,2.94-.13,4.41-.13,23.6,0,47.2.18,70.79-.14,17.1-.24,34.21-.19,51.31-.27s33.92-.06,50.88-.08l72.56-.08c1.47,0,2.94.06,4.41.13a1.73,1.73,0,0,1,1.41,1.49c0,.59.08,1.18.08,1.77q0,8,0,15.93a6.42,6.42,0,0,1-.12,1.76,3.5,3.5,0,0,1-.85,1.5,10.05,10.05,0,0,1-1.83,1.22L1161,849.19l-42.44,25.53-36.78,22.08-42.1,25.27q-18.76,11.26-37.52,22.56-23.68,14.25-47.39,28.48-5.67,3.42-11.32,6.91c-.16.1-.16.5-.19.76,0,.05.21.16.34.19a5,5,0,0,0,.86.12c.44,0,.89,0,1.33,0,33.92-.12,67.84-.32,101.76-.37q65.7-.09,131.4,0c1.47,0,2.94.06,4.41.12a1.41,1.41,0,0,1,1.16,1.16,11.77,11.77,0,0,1,.12,1.32c0,3.24,0,6.49,0,9.73,0,1.5-.8,1.79-2,1.84s-2.07,0-3.1,0H932.65c-1.18,0-2.36,0-3.54,0a1.61,1.61,0,0,1-1.59-1.74c0-2.51,0-5,0-7.52,0-3.54,0-7.08,0-10.63a3,3,0,0,1,1.7-2.84q6.84-4.08,13.65-8.2l36-21.7,37.5-22.6,36-21.69q18.56-11.19,37.12-22.38,18-10.84,36-21.68,20.44-12.33,40.88-24.7a16.06,16.06,0,0,0,2.12-1.56C1168.51,827.52,1168.37,827.1,1168.34,826.72Z" transform="translate(-391.13 -369.09)"/><path class="cls-5" d="M520.52,901.76c2,.62,4,1.27,5.92,1.84q55.14,16.08,110.29,32.15,30.12,8.78,60.22,17.63c4.75,1.4,4.19.44,4.21,5.58,0,4.13,0,8.26,0,12.4a10.42,10.42,0,0,1-.12,1.76,1,1,0,0,1-.52.66,25.54,25.54,0,0,1-2.47.94l-146.47,46.75-43.37,13.8c-1.12.35-2.26.68-3.39,1a1,1,0,0,1-1-.67c0-.14-.09-.28-.09-.42q0-6.87,0-13.72a1.59,1.59,0,0,1,1.22-1.63l12.67-3.91,75.6-23.21,87.87-26.94c1.26-.38,2.49-.86,3.73-1.31.1,0,.16-.22.22-.34.16-.34.1-.61-.2-.71-1.11-.39-2.21-.8-3.34-1.13l-85.28-24.77-88.68-25.75c-1-.28-1.94-.68-2.91-1a7,7,0,0,1-.3-1.34c0-5.16,0-10.32,0-15.49a5.22,5.22,0,0,1,.07-.88,1.48,1.48,0,0,1,1-1.32c2-.62,3.94-1.23,5.91-1.81l81-23.8,88.17-25.93c1.41-.41,2.81-.85,4.37-1.32-.31-.45-.47-1-.77-1.06q-4.41-1.45-8.85-2.77-69.42-20.79-138.83-41.55c-9.46-2.83-18.92-5.62-28.38-8.44a32.61,32.61,0,0,1-3.33-1.13c-.35-.15-.57-.62-.83-1a.83.83,0,0,1-.07-.43q0-6.42,0-12.83a1,1,0,0,1,1.21-.91c1,.28,2,.56,3,.87l24.86,7.87,135.6,43q14.54,4.61,29.08,9.17c.84.27,1.68.54,2.51.85a1.74,1.74,0,0,1,1.15,1.72q0,7.29,0,14.6c0,1-.51,1.53-1.57,1.86s-2,.6-3,.89l-73.81,21.47q-50.06,14.58-100.1,29.2a7.84,7.84,0,0,0-1.62.65C520.85,901.06,520.75,901.4,520.52,901.76Z" transform="translate(-391.13 -369.09)"/><path class="cls-6" d="M563.68,1400.16H431.87c-1.47,0-2.94,0-4.41-.1a1.71,1.71,0,0,1-1.61-1.78c0-3.69,0-7.37,0-11.06a1.61,1.61,0,0,1,1.73-1.6c1.47,0,2.95,0,4.42,0H538.14c1.48,0,3,0,4.43-.06a1.93,1.93,0,0,0,.71-.31c.29-.16,0-.6-.68-1-3.79-2-7.59-3.94-11.37-5.93-2.09-1.1-4.13-2.28-6.24-3.33a17.76,17.76,0,0,1-4.25-3.13,70.57,70.57,0,0,1-13.43-17.47,67.41,67.41,0,0,1-7.39-22.12,105.29,105.29,0,0,1-1.44-19.81c.46-12.51,2.9-24.56,8.61-35.82a78,78,0,0,1,19.63-24.78A97.57,97.57,0,0,1,562.91,1233a127.18,127.18,0,0,1,19.46-4,107.06,107.06,0,0,1,15-1.09c2.95,0,5.9-.06,8.84.06,5.3.22,10.57.73,15.84,1.43a117.48,117.48,0,0,1,14.29,2.79,104.7,104.7,0,0,1,29.25,12.23A84.14,84.14,0,0,1,700,1285.34a91.44,91.44,0,0,1,5.29,19.58c1.09,6.6,1,13.22.9,19.85a72,72,0,0,1-4.08,22.52,64.49,64.49,0,0,1-17.25,26.39,13.91,13.91,0,0,1-3.73,2.33q-7.38,3.51-14.75,7c-.93.45-1.83,1-2.71,1.49-.16.1-.16.48-.18.74,0,0,.22.16.34.17,1.32,0,2.64.11,4,.12h29.63c3.36,0,3.89.06,3.87,3.63,0,2.66,0,5.31,0,8s-.43,2.94-3.18,3c-1.33,0-2.66,0-4,0Zm40.16-14.61h0c4.42,0,8.84,0,13.27,0a112.23,112.23,0,0,0,20.2-1.88,80.46,80.46,0,0,0,25.76-8.94,59.12,59.12,0,0,0,25.59-27.82,68.53,68.53,0,0,0,5.79-28.37,62.69,62.69,0,0,0-.62-7.48,82.68,82.68,0,0,0-1.26-8.3,69.14,69.14,0,0,0-9-21.53,63.82,63.82,0,0,0-7.56-9.78c-8.82-9.49-19.55-16-31.54-20.61-12.24-4.66-25-6.63-38-7a129.24,129.24,0,0,0-16.33.55,142.56,142.56,0,0,0-18.73,3,97.44,97.44,0,0,0-23.94,8.94,71.9,71.9,0,0,0-24.22,20.26,59.4,59.4,0,0,0-10.08,20.5,73.68,73.68,0,0,0-2.57,19.21,98.26,98.26,0,0,0,.67,10.14,69.42,69.42,0,0,0,3.88,16.74A57.17,57.17,0,0,0,535,1369.68a67.34,67.34,0,0,0,15.83,8.72,97.66,97.66,0,0,0,20.88,5.5,128,128,0,0,0,19.35,1.65Z" transform="translate(-391.13 -369.09)"/><path class="cls-7" d="M640.07,413.72a9.62,9.62,0,0,1,1.41.11,89.56,89.56,0,0,1,35,17.23c13.71,11.18,22.55,25.48,27,42.56a90.16,90.16,0,0,1,2.5,32c-2.26,22.67-12.09,41.35-30,55.56a93.78,93.78,0,0,1-30.46,15.73,124.74,124.74,0,0,1-22,4.77,164.91,164.91,0,0,1-23.81,1.43c-15.45-.3-30.49-2.86-44.86-8.72a93.23,93.23,0,0,1-33.15-22.25,82.68,82.68,0,0,1-21.82-43.64,87.49,87.49,0,0,1-.63-26.44c2.78-21,12.4-38.17,29.39-51.06A96.5,96.5,0,0,1,558,416.14a119.21,119.21,0,0,1,22.44-4.77,140.83,140.83,0,0,1,22.95-.8c.59,0,1.17.08,1.76.14.82.08,1.23.55,1.25,1.49,0,1.33,0,2.66,0,4V561.75c0,1.48,0,3,.06,4.42a1.7,1.7,0,0,0,2.05,1.74c2.8-.15,5.6-.27,8.38-.55a121.24,121.24,0,0,0,31.79-7.22,77.93,77.93,0,0,0,21.41-12.22A63.37,63.37,0,0,0,693,510.1a71.57,71.57,0,0,0-3.68-40.83c-5.5-13.94-14.94-24.57-27.72-32.28a81.07,81.07,0,0,0-16.89-7.59c-1.12-.37-2.26-.67-3.38-1s-1.52-.8-1.53-1.85c0-1.62,0-3.25,0-4.87,0-2.06,0-4.13,0-6.19A11.4,11.4,0,0,1,640.07,413.72Zm-46,82.87v-65.9c0-1.33,0-2.66,0-4,0-1.11-.59-1.67-1.59-1.63-.44,0-.88,0-1.32.08-4.39.48-8.8.68-13.19,1.33a111,111,0,0,0-22.66,5.65,77.44,77.44,0,0,0-19,10.16,60.64,60.64,0,0,0-19.49,23.61,66.1,66.1,0,0,0-5.07,40.15,68.86,68.86,0,0,0,19.63,37.36,78.67,78.67,0,0,0,29.76,18.52,104.57,104.57,0,0,0,27.16,5.69c6.45.49,5.82,1.1,5.83-5.59Q594.08,529.33,594.06,496.59Z" transform="translate(-391.13 -369.09)"/><path class="cls-8" d="M1189.72,1333.91c-.18,11.62-1.3,22.13-4.7,32.32a74.68,74.68,0,0,1-10.85,21.16,69.81,69.81,0,0,1-21.85,19,89.56,89.56,0,0,1-22.55,8.89,118.46,118.46,0,0,1-19.61,3.21h-.45a1.32,1.32,0,0,1-1.18-1.08q0-6,0-11.94a1.5,1.5,0,0,1,1.16-1.18c3.06-.4,6.15-.69,9.2-1.21a77.16,77.16,0,0,0,28.43-10.48c14.6-9.15,23.72-22.22,27.76-38.92a79.64,79.64,0,0,0,2.11-16.64,94.43,94.43,0,0,0-2.92-26.73,69.15,69.15,0,0,0-7.44-17.92c-7.79-13-19-21.62-33.67-25.46a65.47,65.47,0,0,0-32-.39c-12.84,3-22.69,10.21-29.83,21.23a67.84,67.84,0,0,0-8.57,20.28,101,101,0,0,0-2.9,17.88c-.37,5.15-.67,10.3-.63,15.47a8.82,8.82,0,0,1-.21,2.18,1.25,1.25,0,0,1-.86.83c-1.91.12-3.82.17-5.74.16-6,0-5.52.67-5.49-5.4a80.35,80.35,0,0,0-1.91-18.43c-2.69-11.68-7.53-22.33-15.32-31.51-8.19-9.65-18.36-16.08-30.85-18.55a53.09,53.09,0,0,0-14.07-1,64.8,64.8,0,0,0-16.9,3.12,45.53,45.53,0,0,0-26.12,22.56,62,62,0,0,0-6.58,22.35,84.33,84.33,0,0,0,0,19,63.43,63.43,0,0,0,11,30,59.12,59.12,0,0,0,26.12,20.45,76.49,76.49,0,0,0,21.77,5.51c1.32.14,2.63.35,3.94.54a1.3,1.3,0,0,1,1.18,1.11c0,4,0,8,0,11.93a1.24,1.24,0,0,1-1.16,1.11c-2.79-.29-5.59-.47-8.35-.92a90,90,0,0,1-23.26-6.79q-27.93-12.78-38.82-41.48a88.63,88.63,0,0,1-4.89-21,100.15,100.15,0,0,1,.27-24.71,77.3,77.3,0,0,1,7.76-25.69,59.58,59.58,0,0,1,17.44-20.85,58.94,58.94,0,0,1,24.1-10.55,69.29,69.29,0,0,1,22.44-.89,61.52,61.52,0,0,1,22.16,7.17,66.55,66.55,0,0,1,29.14,32.2,83.09,83.09,0,0,1,3.49,9.54c.11.36.35.53.61.4a1.3,1.3,0,0,0,.63-.51,13.63,13.63,0,0,0,.48-1.69,109.81,109.81,0,0,1,4.29-13.47,71.74,71.74,0,0,1,6.56-12.52,56,56,0,0,1,35.48-24.49,77.23,77.23,0,0,1,37.64.6,65.91,65.91,0,0,1,28.94,16.37,78.51,78.51,0,0,1,19.71,31.6,98.19,98.19,0,0,1,5.37,27.25C1189.47,1329.56,1189.62,1332.21,1189.72,1333.91Z" transform="translate(-391.13 -369.09)"/><path class="cls-9" d="M1086.87,1602.72a20.4,20.4,0,0,0,4.91,2.14q43.73,16.17,87.47,32.31c.28.1.55.22.82.33,5.06,2,4.46.91,4.48,6.53,0,3.09-.08,6.18-.13,9.27,0,.35-.63.75-1,.65-.7-.21-1.42-.4-2.1-.66-3-1.14-6.06-2.31-9.09-3.46l-90-34.35-85.88-32.79-64.4-24.6c-1-.37-1.94-.7-2.88-1.13a9.64,9.64,0,0,1-1.37-.93c-.28-4.08-.26-14.42,0-17.79a5.19,5.19,0,0,1,2.63-1.49q13.86-5.24,27.7-10.47l92.22-34.75,98-37q15.7-5.93,31.43-11.82c1.24-.47,2.5-.88,3.75-1.31.3-.1.93.38,1,.71,0,.15.09.29.09.43q0,6.2,0,12.38a1.8,1.8,0,0,1-1.19,1.71c-1.21.53-2.46,1-3.7,1.45l-79.41,29.9c-4,1.5-8,3-12,4.51a2.19,2.19,0,0,0-1.59,2.33c0,1,0,2.07,0,3.1q0,50.22,0,100.44A14.55,14.55,0,0,0,1086.87,1602.72Zm-12.78-104.53a5.53,5.53,0,0,0-1.43,0c-1.13.35-2.22.79-3.33,1.2l-51.79,19.1q-37.08,13.68-74.15,27.39c-.82.3-1.61.7-2.41,1.07-.09,0-.15.22-.2.34a.51.51,0,0,0,.27.74c1.49.61,3,1.27,4.48,1.83q36.39,13.65,72.79,27.26l52.1,19.52c.83.31,1.67.6,2.5.88a.88.88,0,0,0,1.27-.75c0-1.47.07-3,.07-4.42q0-35.59,0-71.18c0-6.49,0-13,0-19.46C1074.26,1500.57,1074.15,1499.41,1074.09,1498.19Z" transform="translate(-391.13 -369.09)"/><path class="cls-9" d="M1175.35,1216.19c-.64-.6-1.2-1.09-1.71-1.61l-49.32-50.19c-12.2-12.41-24.35-24.88-36.61-37.24-7.37-7.43-14.81-14.8-22.39-22a247.55,247.55,0,0,0-23.2-19.82,117.37,117.37,0,0,0-17.55-11.09,68.11,68.11,0,0,0-39-7.06,66,66,0,0,0-14.64,3.25,51.74,51.74,0,0,0-27.76,22.21,53.4,53.4,0,0,0-6.7,16.76,74,74,0,0,0,.35,33.78c4.32,17.27,14.46,30.09,30,38.7a80.31,80.31,0,0,0,25.81,8.84c2.61.45,5.26.71,7.89,1.06.58.07,1.17.13,1.75.22a1.7,1.7,0,0,1,1.65,1.72c0,2.21,0,4.43,0,6.64,0,1.48,0,3,0,4.43a1.41,1.41,0,0,1-1.7,1.5c-4.25-.44-8.5-.92-12.7-1.75a96.08,96.08,0,0,1-22.65-7.38,77.2,77.2,0,0,1-28.53-22.57A74.31,74.31,0,0,1,924.73,1146a92,92,0,0,1-2.08-30.76,97.06,97.06,0,0,1,3.05-16.5,67,67,0,0,1,7.84-17.75,61.37,61.37,0,0,1,28.18-24,67.69,67.69,0,0,1,20.89-5.39c2.94-.26,5.88-.58,8.82-.62a75.34,75.34,0,0,1,29.34,5.61,116.59,116.59,0,0,1,23.48,13.15,230.38,230.38,0,0,1,20,16.06c6.53,5.76,12.83,11.77,18.94,18q14,14.18,27.86,28.47,12,12.35,24.07,24.73l32.07,33c3.19,3.28,3.92,3.82,4.34,3.27,1.14-1.55.59-3.38.6-5.08q0-66,0-131.9c0-2-.57-4.12.52-6,1.88-.57,3.8-.25,5.7-.3,1.62,0,3.24,0,4.86.08a1.38,1.38,0,0,1,1.18,1.13c0,.44.1.88.11,1.32,0,1.18,0,2.36,0,3.54q0,77.23,0,154.48c0,6.86.72,5.89-5.8,6-.74,0-1.47,0-2.21,0C1176.25,1216.38,1176,1216.29,1175.35,1216.19Z" transform="translate(-391.13 -369.09)"/><path class="cls-5" d="M1184.29,759.16a148,148,0,0,1,.07,16c-.27.07-.63.27-.81.17a21.34,21.34,0,0,1-2.22-1.41q-48.86-35.08-97.69-70.19l-23.71-17c-1-.69-1.92-1.37-2.88-2a1.74,1.74,0,0,0-2.06-.09c-1,.63-2,1.28-3,1.93l-40.09,26.76q-39.9,26.64-79.82,53.25c-1.22.82-2.51,1.53-3.79,2.24-.13.07-.49-.2-.69-.36s-.1-.28-.1-.43V754a12,12,0,0,1,3.58-2.88l36-24.1,74.23-49.68a12.57,12.57,0,0,0,3.05-2.31c-.24-1.11-1.09-1.51-1.79-2q-9.48-6.9-19-13.76L930.93,592a11.23,11.23,0,0,1-3.41-3c0-5,0-10.18,0-15.34a.86.86,0,0,1,.38-.67.94.94,0,0,1,.82,0c.87.56,1.7,1.17,2.52,1.79q12.27,9.07,24.51,18.18L1051,663.45c1.3,1,2.62,1.9,3.86,2.79,1.42,0,2.22-1,3.14-1.66q14.87-10.76,29.7-21.57l93.74-68.11a21.64,21.64,0,0,1,1.82-1.24.84.84,0,0,1,1.21.73c0,4.86,0,9.73,0,14.6a2.9,2.9,0,0,1-1.34,2.6c-3.74,2.63-7.46,5.29-11.19,7.92q-50.94,36-101.88,71.93c-1.32.93-2.58,1.94-3.83,2.95a.76.76,0,0,0-.07.75,22.29,22.29,0,0,0,2.36,2q7.58,5.39,15.17,10.72l97.15,68.65A17.6,17.6,0,0,1,1184.29,759.16Z" transform="translate(-391.13 -369.09)"/><path class="cls-9" d="M778.38,1586.51c-.93.06-1.79.18-2.66.18-2.65,0-5.31,0-8-.08a1.24,1.24,0,0,1-1.15-1.53c0-.15,0-.3.06-.44a61.9,61.9,0,0,0,.53-15.44,28.53,28.53,0,0,0-5.25-14.37,44.53,44.53,0,0,0-8.79-9.29,93.77,93.77,0,0,0-14.82-9.62,200.8,200.8,0,0,0-20.9-9.55c-3.7-1.47-7.41-2.9-11-4.3a19.88,19.88,0,0,0-5.62,1.77q-21.89,8.39-43.73,16.85l-104.36,40.25-45.39,17.47c-.82.32-1.67.58-2.51.86a.9.9,0,0,1-1-.6c0-.44-.14-.87-.14-1.31q0-6,0-11.95a11.62,11.62,0,0,1,.18-1.45,13.24,13.24,0,0,1,1.81-1.06c2.61-1,5.25-2,7.87-2.92l115.25-42.71q28.18-10.44,56.38-20.88c1-.35,1.89-.79,2.83-1.21a.41.41,0,0,0,.2-.33c0-.25-.1-.64-.27-.72q-1.4-.66-2.85-1.2l-115.27-42.64q-30.89-11.41-61.77-22.88c-1-.36-2-.67-2.89-1.1a9,9,0,0,1-1.44-1c0-4.78,0-9.5,0-14.21,0-.83.69-1.18,1.59-.87.7.24,1.39.49,2.08.76l18.15,7,89.53,34.47q44.77,17.24,89.54,34.46c10.31,4,20.55,8.15,30.48,13a152.93,152.93,0,0,1,22.9,13.33,72.59,72.59,0,0,1,10.64,9.32,40,40,0,0,1,9.51,16.76,37.72,37.72,0,0,1,1.39,7.82,106.21,106.21,0,0,1-.1,14.16A14.31,14.31,0,0,1,778.38,1586.51Z" transform="translate(-391.13 -369.09)"/><path class="cls-10" d="M504,1059.11a16.21,16.21,0,0,1-.29-2.16c0-3.24,0-6.49,0-9.74,0-4.08-.28-4.49,3.95-2.83,11.11,4.36,22.28,8.57,33.42,12.85l38.79,14.9q15.06,5.79,30.11,11.61l38.78,14.92,29.7,11.45,27.64,10.63q10.53,4,20.83,8.64c5,2.23,9.91,4.55,14.73,7.11a127.1,127.1,0,0,1,17.63,11,61.47,61.47,0,0,1,11.82,11.25,39.25,39.25,0,0,1,8.58,23.69c.06,3.84,0,7.67-.1,11.51a22.84,22.84,0,0,1-.24,3.09c-.46,2.91-.82,3.2-3.68,3.18-2.51,0-5,0-7.52,0-1.08,0-1.71-.71-1.5-1.69.9-4.23.71-8.52.74-12.79a29.92,29.92,0,0,0-6.75-19.22,46.89,46.89,0,0,0-7.46-7.51,108.22,108.22,0,0,0-21.5-13.05c-7.19-3.42-14.63-6.28-22-9.21a15.53,15.53,0,0,0-2.5-.89,5.29,5.29,0,0,0-2.17,0,15.38,15.38,0,0,0-2.49.88q-27.86,10.7-55.71,21.41-22.89,8.84-45.76,17.71-19.4,7.48-38.79,14.91L532.91,1202l-25.16,9.71c-1,.37-2,.63-2.94.93a1.14,1.14,0,0,1-1-.69c-.05-.44-.15-.87-.16-1.31,0-4,0-8,0-11.95a2.29,2.29,0,0,1,1.67-2.32l2.48-.92q22.4-8.29,44.77-16.59c9.54-3.53,19.09-7,28.62-10.55l42.68-15.86q13.26-4.92,26.54-9.81l35.65-13.18a10.88,10.88,0,0,0,1.93-1,.79.79,0,0,0-.06-.71,7.3,7.3,0,0,0-1.53-.83l-22-8.15q-23-8.54-46-17.08c-9.54-3.53-19.09-7-28.63-10.54q-21.55-8-43.09-16c-6.77-2.51-13.56-5-20.34-7.47s-13.53-5-20.29-7.57C505.42,1059.77,504.76,1059.45,504,1059.11Z" transform="translate(-391.13 -369.09)"/><path class="cls-11" d="M420.62,1679a4,4,0,0,1,1.23-.5c3.24,0,6.48,0,9.72,0a1.09,1.09,0,0,1,1.09,1.11c-.12,1-.25,2-.41,3.06a55.75,55.75,0,0,0-.57,14.54,32.37,32.37,0,0,0,1.38,6.48,24.18,24.18,0,0,0,14.6,15.59,37.2,37.2,0,0,0,10.7,2.58,179.33,179.33,0,0,0,18.54.85c8.11-.09,16.22,0,24.32,0a21.05,21.05,0,0,0,3.08-.17,1.29,1.29,0,0,0,.84-.86,29.43,29.43,0,0,0,.19-3.52q0-15.48,0-31c0-5.47-.47-5.06,4.92-5.07,1.92,0,3.83,0,5.75.06a1.44,1.44,0,0,1,1.35,1.46c0,1.33.06,2.66.06,4q0,15.5,0,31c0,4.2-.12,4.15,4.12,4.12H695.77c6.05,0,5.4-.74,5.43,5.41,0,2.51-.05,5-.1,7.52a1.28,1.28,0,0,1-1.09,1.18c-.44,0-.88.08-1.32.08H523.14c-1.62,0-3.23.08-4.85.18a.93.93,0,0,0-.61.58,10.63,10.63,0,0,0-.24,2.18c0,4.43,0,8.85,0,13.28,0,1.17,0,2.35,0,3.53a1.52,1.52,0,0,1-1.73,1.56q-4.42,0-8.84,0a1.39,1.39,0,0,1-1.4-1.39c0-1-.06-2.07-.06-3.1,0-3.83,0-7.67,0-11.5,0-1.18,0-2.36,0-3.54s-.56-1.69-1.55-1.71c-1.33,0-2.65,0-4,0q-13.26,0-26.53,0a155.51,155.51,0,0,1-17.66-.87A46.49,46.49,0,0,1,438,1730.6c-10.63-5.94-16.7-15-18.58-27a61.64,61.64,0,0,1-.24-15c.17-1.91.34-3.83.62-5.72C419.94,1681.56,420.32,1680.29,420.62,1679Z" transform="translate(-391.13 -369.09)"/><path class="cls-12" d="M555.29,1649.46H431.49c-1.47,0-2.94,0-4.41-.11a1.34,1.34,0,0,1-1.15-1.15c-.05-1.32-.09-2.65-.1-4,0-2.21,0-4.43,0-6.64,0-1.9.43-2.29,2.36-2.33,1.33,0,2.65,0,4,0H658.55c5.6,0,11.2-.13,16.8-.17a29.54,29.54,0,0,0,6.57-.81,17.48,17.48,0,0,0,3.76-1.25,8.62,8.62,0,0,0,4.51-5.2,16,16,0,0,0,.94-5.64c-.07-2.65-.17-5.3-.26-8a1.38,1.38,0,0,1,.73-1c.3,0,.59-.09.88-.09,2.51,0,5,0,7.52,0,1.5,0,2.21.6,2.38,2,.68,5.72,1.17,11.45.26,17.19a31.44,31.44,0,0,1-1,4.3,15.94,15.94,0,0,1-8.81,10,28.39,28.39,0,0,1-11.13,2.53c-3.83.17-7.66.22-11.5.27-3.68,0-7.36,0-11,0Z" transform="translate(-391.13 -369.09)"/><path class="cls-13" d="M700.65,656.26a3.94,3.94,0,0,1,.5,2.64c-.11,3.67.3,7.35-.27,11a7.33,7.33,0,0,1-1.39.32c-1.32,0-2.65,0-4,0H509.34c-1.47,0-2.94,0-4.41-.1a1.26,1.26,0,0,1-1.14-1.14c0-3.84,0-7.67,0-11.5a1.38,1.38,0,0,1,1.33-1.46c1.33,0,2.65-.06,4-.06q15.26,0,30.51,0a11.15,11.15,0,0,0,2.06-.31s.07-.37,0-.41a20.78,20.78,0,0,0-1.92-1c-5.67-2.47-11.34-5-17-7.37a22.67,22.67,0,0,1-5.61-3.47,50,50,0,0,1-15.46-21.18,45.44,45.44,0,0,1-2.74-21.72c.16-1.31.36-2.62.58-3.92a1.53,1.53,0,0,1,1.26-1.08q4.65,0,9.28,0c.79,0,1.26.59,1.26,1.48,0,1.62,0,3.24,0,4.86a53.89,53.89,0,0,0,1.54,12.7,45.35,45.35,0,0,0,19.38,27.53,69.39,69.39,0,0,0,17.92,8.47,105.07,105.07,0,0,0,16.35,3.69,173.87,173.87,0,0,0,26,1.77q51.73-.06,103.48,0C697.51,656,699.14,655.75,700.65,656.26Z" transform="translate(-391.13 -369.09)"/><path class="cls-14" d="M602.61,739H509.33c-1.48,0-2.95-.06-4.42-.12a1.31,1.31,0,0,1-1.11-1.17c0-4,0-7.95,0-11.92,0-.51.62-1,1.21-1.08s.88-.09,1.32-.1c1.18,0,2.36,0,3.53,0H695.13c1.62,0,3.24,0,4.86.1a1.26,1.26,0,0,1,1.09,1.17q0,6,0,11.93a1.35,1.35,0,0,1-1.16,1.13c-1.48,0-3,.06-4.42.06Z" transform="translate(-391.13 -369.09)"/><path class="cls-15" d="M473.49,732.16a10.84,10.84,0,0,1-21.67-.56,10.84,10.84,0,1,1,21.67.56Z" transform="translate(-391.13 -369.09)"/><path class="cls-16" d="M603.84,1385.55H591a128,128,0,0,1-19.35-1.65,97.66,97.66,0,0,1-20.88-5.5,67.34,67.34,0,0,1-15.83-8.72,57.17,57.17,0,0,1-19.82-26.54,69.42,69.42,0,0,1-3.88-16.74,98.26,98.26,0,0,1-.67-10.14,73.68,73.68,0,0,1,2.57-19.21,59.4,59.4,0,0,1,10.08-20.5,71.9,71.9,0,0,1,24.22-20.26,97.44,97.44,0,0,1,23.94-8.94,142.56,142.56,0,0,1,18.73-3,129.24,129.24,0,0,1,16.33-.55c13,.39,25.81,2.36,38,7,12,4.56,22.72,11.12,31.54,20.61a63.82,63.82,0,0,1,7.56,9.78,69.14,69.14,0,0,1,9,21.53,82.68,82.68,0,0,1,1.26,8.3,62.69,62.69,0,0,1,.62,7.48,68.53,68.53,0,0,1-5.79,28.37,59.12,59.12,0,0,1-25.59,27.82,80.46,80.46,0,0,1-25.76,8.94,112.23,112.23,0,0,1-20.2,1.88c-4.43,0-8.85,0-13.27,0Z" transform="translate(-391.13 -369.09)"/><path class="cls-17" d="M594.06,496.59q0,32.73,0,65.45c0,6.69.62,6.08-5.83,5.59a104.57,104.57,0,0,1-27.16-5.69,78.67,78.67,0,0,1-29.76-18.52,68.86,68.86,0,0,1-19.63-37.36,66.1,66.1,0,0,1,5.07-40.15,60.64,60.64,0,0,1,19.49-23.61,77.44,77.44,0,0,1,19-10.16,111,111,0,0,1,22.66-5.65c4.39-.65,8.8-.85,13.19-1.33.44-.05.88-.06,1.32-.08,1,0,1.56.52,1.59,1.63,0,1.32,0,2.65,0,4Z" transform="translate(-391.13 -369.09)"/><path class="cls-18" d="M1074.09,1498.19c.06,1.22.17,2.38.17,3.54,0,6.49,0,13,0,19.46q0,35.58,0,71.18c0,1.47,0,3-.07,4.42a.88.88,0,0,1-1.27.75c-.83-.28-1.67-.57-2.5-.88l-52.1-19.52q-36.39-13.62-72.79-27.26c-1.51-.56-3-1.22-4.48-1.83a.51.51,0,0,1-.27-.74c.05-.12.11-.29.2-.34.8-.37,1.59-.77,2.41-1.07q37.08-13.71,74.15-27.39l51.79-19.1c1.11-.41,2.2-.85,3.33-1.2A5.53,5.53,0,0,1,1074.09,1498.19Z" transform="translate(-391.13 -369.09)"/></svg>